<svg width="209" height="81" viewBox="0 0 209 81" fill="none" xmlns="http://www.w3.org/2000/svg">
<path d="M1.9313 79.8134L39.8615 40.8078C39.9785 40.6918 40.0511 40.5382 40.0666 40.3738C40.0821 40.2094 40.0395 40.0447 39.9462 39.9087C37.6398 36.6782 33.3833 36.118 31.8062 33.9472C27.1341 27.5171 25.9486 23.8775 23.9409 24.1029C23.8008 24.1231 23.6719 24.1913 23.5762 24.296L9.87468 38.3873C1.9918 46.4873 0.858845 64.3411 0.654304 79.2923C0.653639 79.4411 0.6973 79.5866 0.779803 79.7102C0.862306 79.8339 0.979842 79.9299 1.1172 79.9859C1.25457 80.042 1.40545 80.0555 1.55054 80.0247C1.69562 79.994 1.82827 79.9204 1.9313 79.8134Z" fill="#017CEE"/>
<path d="M79.5581 78.8509L40.678 40.7957C40.5623 40.6779 40.4089 40.6049 40.2447 40.5893C40.0806 40.5737 39.9162 40.6167 39.7805 40.7107C36.5603 43.0259 36.0019 47.2946 33.838 48.8768C27.4286 53.564 23.8008 54.7533 24.0255 56.7675C24.0459 56.9076 24.1138 57.0364 24.2178 57.1321L38.2638 70.8778C46.3378 78.7861 64.1342 79.9228 79.0374 80.128C79.185 80.1281 79.3292 80.0841 79.4517 80.0017C79.5742 79.9192 79.6695 79.8019 79.7254 79.6649C79.7812 79.5279 79.7952 79.3773 79.7654 79.2323C79.7357 79.0873 79.6635 78.9546 79.5581 78.8509Z" fill="#00AD46"/>
<path d="M38.2645 70.8818C33.8508 66.5618 31.8053 58.0163 40.2641 40.3948C26.5128 46.5602 21.6939 54.6643 24.0636 56.9849L38.2645 70.8818Z" fill="#04D659"/>
<path d="M78.5974 0.974788L40.6687 39.9803C40.5514 40.0963 40.4786 40.25 40.4631 40.4144C40.4476 40.5789 40.4904 40.7435 40.584 40.8795C42.8918 44.11 47.1453 44.6702 48.7238 46.841C53.3959 53.2711 54.5828 56.9106 56.5892 56.6852C56.7293 56.6652 56.8582 56.5969 56.9538 56.4921L70.6554 42.4009C78.5382 34.3009 79.6714 16.4471 79.8759 1.49587C79.8762 1.34712 79.8321 1.20168 79.7494 1.0782C79.6667 0.954717 79.5492 0.858819 79.4118 0.802824C79.2745 0.74683 79.1236 0.733299 78.9785 0.763933C78.8334 0.794566 78.7006 0.867999 78.5974 0.974788Z" fill="#00C7D4"/>
<path d="M70.6619 42.4009C66.3558 46.8289 57.8377 48.8809 40.2715 40.3948C46.4171 54.1904 54.495 59.0248 56.8082 56.6474L70.6619 42.4009Z" fill="#11E1EE"/>
<path d="M0.969362 1.93732L39.8495 39.9884C39.9651 40.1058 40.1185 40.1787 40.2823 40.1943C40.4462 40.2098 40.6101 40.1671 40.7457 40.0735C43.9659 37.7583 44.5243 33.4895 46.6882 31.9073C53.0975 27.2201 56.7254 26.0307 56.5007 24.0165C56.4802 23.8761 56.4124 23.7469 56.3084 23.6507L42.2624 9.90499C34.1884 1.99669 16.392 0.86 1.48877 0.6548C1.3402 0.65385 1.19473 0.697622 1.07121 0.780456C0.947687 0.86329 0.851826 0.981349 0.795898 1.11944C0.73997 1.25753 0.726535 1.40929 0.75746 1.55507C0.788385 1.70086 0.862234 1.83404 0.969362 1.93732Z" fill="#E43921"/>
<path fill-rule="evenodd" clip-rule="evenodd" d="M42.2693 9.90637C46.6831 14.2264 48.7284 22.7719 40.2695 40.3948C54.0208 34.2293 58.8397 26.1239 56.47 23.8046L42.2693 9.90637Z" fill="#FF7557"/>
<path d="M9.875 38.3886C14.1811 33.9606 22.6991 31.9086 40.2654 40.3947C34.1198 26.5991 26.0418 21.7647 23.7286 24.1421L9.875 38.3886Z" fill="#0CB6FF"/>
<path d="M40.2707 42.089C41.2071 42.089 41.9663 41.3274 41.9663 40.388C41.9663 39.4486 41.2071 38.687 40.2707 38.687C39.3343 38.687 38.5752 39.4486 38.5752 40.388C38.5752 41.3274 39.3343 42.089 40.2707 42.089Z" fill="#4A4848"/>
<path d="M90.4424 26.5802C90.3634 26.5781 90.2883 26.5458 90.2324 26.4898C90.1766 26.4337 90.1443 26.3583 90.1423 26.2792C90.1397 26.2234 90.1447 26.1675 90.157 26.113L93.8793 16.3742C93.9099 16.2724 93.9741 16.1842 94.0615 16.1241C94.1488 16.0639 94.254 16.0355 94.3596 16.0434H95.3797C95.4852 16.036 95.5901 16.0647 95.6773 16.1247C95.7646 16.1848 95.8289 16.2727 95.86 16.3742L99.566 26.113L99.5956 26.2792C99.5938 26.3585 99.5618 26.434 99.5059 26.4901C99.45 26.5462 99.3745 26.5784 99.2954 26.5802H98.5311C98.4397 26.5861 98.3492 26.5593 98.2755 26.5046C98.2222 26.4544 98.1812 26.3924 98.1558 26.3236L97.3308 24.1866H92.4098L91.5848 26.3236C91.5569 26.3949 91.5105 26.4575 91.4503 26.5046C91.382 26.5577 91.2971 26.5844 91.2108 26.5802H90.4424ZM96.8949 22.892L94.8696 17.5486L92.8444 22.892H96.8949ZM101.365 29.4395C101.318 29.4403 101.271 29.4312 101.227 29.4131C101.183 29.395 101.144 29.3682 101.111 29.3342C101.08 29.3024 101.057 29.2646 101.041 29.2233C101.026 29.182 101.019 29.1379 101.021 29.0939V19.1039C101.019 19.0598 101.026 19.0158 101.041 18.9745C101.057 18.9331 101.08 18.8954 101.111 18.8635C101.144 18.8295 101.183 18.8026 101.227 18.7845C101.271 18.7664 101.318 18.7575 101.365 18.7582H102.055C102.146 18.7622 102.231 18.7999 102.295 18.8639C102.358 18.9278 102.396 19.0135 102.4 19.1039V19.7654C102.681 19.3821 103.054 19.0755 103.483 18.8732C103.913 18.6709 104.386 18.5794 104.86 18.607C105.303 18.5744 105.747 18.6474 106.157 18.8201C106.566 18.9928 106.929 19.2603 107.216 19.6007C107.773 20.3387 108.074 21.2398 108.072 22.1657C108.082 22.2755 108.087 22.446 108.087 22.6773C108.087 22.9086 108.082 23.0792 108.072 23.189C108.071 24.1144 107.77 25.0144 107.216 25.754C106.928 26.0927 106.565 26.3591 106.156 26.5316C105.746 26.7042 105.303 26.7782 104.86 26.7476C104.394 26.7694 103.93 26.6782 103.507 26.4817C103.084 26.2852 102.714 25.9893 102.429 25.619V29.1114C102.431 29.1555 102.425 29.1995 102.409 29.2408C102.394 29.2822 102.37 29.3199 102.339 29.3518C102.31 29.3865 102.273 29.414 102.231 29.4323C102.189 29.4505 102.144 29.459 102.098 29.4571L101.365 29.4395ZM104.546 25.511C104.838 25.5367 105.132 25.4896 105.402 25.374C105.672 25.2584 105.909 25.0778 106.092 24.8482C106.445 24.3349 106.633 23.7258 106.631 23.1026C106.641 23.0027 106.645 22.8573 106.645 22.6665C106.645 20.7702 105.945 19.8221 104.544 19.8221C104.247 19.8024 103.95 19.8551 103.679 19.9757C103.407 20.0964 103.169 20.2813 102.984 20.5146C102.638 20.9848 102.444 21.5504 102.429 22.1346L102.413 22.7071L102.429 23.2943C102.44 23.8611 102.641 24.4077 103 24.8454C103.189 25.0688 103.426 25.2452 103.694 25.3607C103.963 25.4762 104.254 25.5276 104.545 25.511H104.546ZM112.12 26.726C111.648 26.7301 111.181 26.6272 110.754 26.4249C110.356 26.2435 110.011 25.965 109.749 25.6149C109.512 25.275 109.386 24.8699 109.388 24.4553C109.383 24.1402 109.455 23.8285 109.595 23.5466C109.736 23.2647 109.941 23.0208 110.195 22.8353C110.849 22.3634 111.615 22.0728 112.416 21.9928L114.651 21.677V21.241C114.651 20.2177 114.068 19.706 112.902 19.706C112.522 19.6904 112.147 19.7901 111.825 19.9921C111.565 20.1528 111.349 20.3754 111.195 20.6402C111.175 20.7155 111.133 20.7834 111.075 20.8359C111.051 20.8577 111.022 20.8743 110.991 20.8848C110.96 20.8952 110.928 20.8993 110.895 20.8967H110.249C110.205 20.8997 110.161 20.8932 110.12 20.8776C110.078 20.862 110.041 20.8377 110.009 20.8064C109.978 20.7751 109.954 20.7375 109.939 20.696C109.923 20.6545 109.916 20.6102 109.919 20.566C109.951 20.2702 110.065 19.9894 110.249 19.7559C110.513 19.4099 110.858 19.1356 111.254 18.9581C111.775 18.7122 112.346 18.5938 112.92 18.6125C113.357 18.5696 113.798 18.6184 114.215 18.7558C114.632 18.8931 115.016 19.1161 115.343 19.4103C115.836 19.9397 116.101 20.6434 116.079 21.3679V26.2454C116.08 26.2931 116.071 26.3405 116.053 26.3846C116.035 26.4288 116.008 26.4687 115.974 26.5019C115.942 26.5325 115.904 26.5564 115.863 26.5719C115.822 26.5875 115.778 26.5944 115.734 26.5923H115.044C114.997 26.5974 114.95 26.592 114.906 26.5764C114.862 26.5609 114.822 26.5356 114.788 26.5024C114.755 26.4693 114.73 26.4291 114.714 26.3849C114.699 26.3406 114.693 26.2934 114.698 26.2467V25.6C114.449 25.945 114.119 26.2233 113.737 26.4101C113.231 26.6469 112.676 26.7567 112.118 26.73L112.12 26.726ZM112.435 25.5974C112.729 25.6082 113.022 25.5575 113.296 25.4485C113.57 25.3395 113.818 25.1746 114.025 24.9643C114.247 24.7128 114.417 24.4197 114.525 24.102C114.633 23.7844 114.677 23.4483 114.655 23.1134V22.6921L112.915 22.9486C112.349 23.0007 111.801 23.1753 111.309 23.4603C111.149 23.547 111.015 23.675 110.92 23.8311C110.826 23.9873 110.774 24.1659 110.771 24.3486C110.765 24.534 110.808 24.7178 110.895 24.8815C110.981 25.0452 111.11 25.1832 111.266 25.2815C111.616 25.4988 112.022 25.61 112.433 25.6014L112.435 25.5974ZM121.374 26.726C120.915 26.7521 120.455 26.6855 120.022 26.5304C119.59 26.3753 119.192 26.1347 118.853 25.8228C118.217 25.1229 117.873 24.2047 117.893 23.2578L117.878 22.6557L117.893 22.0536C117.873 21.1128 118.218 20.2009 118.853 19.5089C119.19 19.1927 119.586 18.9483 120.02 18.7905C120.453 18.6327 120.914 18.5649 121.374 18.5909C122.006 18.5715 122.634 18.7058 123.204 18.9824C123.653 19.1987 124.036 19.5314 124.314 19.9462C124.549 20.2846 124.688 20.68 124.718 21.0911C124.724 21.1355 124.719 21.1807 124.703 21.2227C124.687 21.2646 124.661 21.302 124.628 21.3314C124.556 21.3922 124.465 21.4244 124.372 21.4218H123.652C123.572 21.4277 123.492 21.4063 123.426 21.3611C123.358 21.2937 123.307 21.2114 123.277 21.1207C123.157 20.7088 122.903 20.3487 122.557 20.0974C122.207 19.8756 121.799 19.7654 121.386 19.7815C121.112 19.7696 120.838 19.8157 120.583 19.9169C120.328 20.0181 120.097 20.172 119.906 20.3688C119.505 20.8635 119.297 21.4871 119.32 22.1238L119.305 22.6638L119.32 23.1755C119.294 23.8193 119.502 24.4506 119.906 24.9521C120.098 25.1464 120.33 25.2979 120.585 25.3965C120.84 25.4951 121.113 25.5387 121.386 25.5245C121.797 25.5401 122.204 25.4355 122.557 25.2234C122.901 24.9638 123.154 24.5998 123.277 24.1853C123.307 24.0947 123.358 24.0124 123.426 23.945C123.457 23.9179 123.492 23.8973 123.531 23.8843C123.57 23.8713 123.611 23.8662 123.652 23.8694H124.372C124.419 23.8684 124.467 23.8773 124.511 23.8954C124.555 23.9135 124.594 23.9405 124.628 23.9747C124.661 24.0041 124.687 24.0414 124.703 24.0833C124.719 24.1253 124.724 24.1705 124.718 24.2149C124.685 24.6248 124.546 25.019 124.314 25.3584C124.036 25.7732 123.653 26.106 123.204 26.3223C122.636 26.6069 122.007 26.7469 121.372 26.73L121.374 26.726ZM126.861 26.5748C126.815 26.5799 126.768 26.5744 126.724 26.5589C126.679 26.5433 126.639 26.518 126.606 26.4849C126.573 26.4518 126.548 26.4116 126.532 26.3673C126.516 26.3231 126.511 26.2758 126.516 26.2291V16.2392C126.514 16.1951 126.521 16.1511 126.536 16.1097C126.552 16.0684 126.575 16.0307 126.606 15.9988C126.639 15.9647 126.679 15.9378 126.723 15.9197C126.767 15.9016 126.814 15.8927 126.861 15.8936H127.611C127.701 15.8969 127.787 15.9344 127.851 15.9984C127.915 16.0625 127.953 16.1485 127.957 16.2392V19.7492C128.228 19.3938 128.577 19.1056 128.977 18.9068C129.431 18.692 129.93 18.5887 130.433 18.6057C130.851 18.5822 131.27 18.6539 131.657 18.8154C132.044 18.977 132.389 19.2241 132.668 19.5385C133.233 20.2266 133.521 21.1022 133.475 21.9928V26.2373C133.476 26.285 133.468 26.3323 133.449 26.3765C133.431 26.4206 133.404 26.4606 133.37 26.4938C133.339 26.5245 133.301 26.5483 133.26 26.5638C133.219 26.5794 133.175 26.5863 133.131 26.5842H132.381C132.335 26.5891 132.288 26.5835 132.244 26.5679C132.2 26.5522 132.16 26.5269 132.127 26.4938C132.094 26.4607 132.069 26.4206 132.053 26.3765C132.037 26.3323 132.032 26.2852 132.037 26.2386V22.0617C132.075 21.4631 131.887 20.8721 131.512 20.4053C131.324 20.204 131.093 20.0469 130.837 19.9454C130.581 19.8439 130.306 19.8004 130.032 19.818C129.751 19.8056 129.471 19.8528 129.21 19.9565C128.949 20.0603 128.713 20.2183 128.517 20.4201C128.125 20.8732 127.926 21.462 127.962 22.0604V26.2291C127.963 26.2768 127.954 26.3243 127.936 26.3684C127.918 26.4125 127.891 26.4524 127.857 26.4856C127.826 26.5163 127.788 26.5401 127.747 26.5557C127.705 26.5712 127.662 26.5782 127.618 26.5761L126.861 26.5748ZM138.765 26.726C138.31 26.7475 137.855 26.6747 137.429 26.5121C137.003 26.3495 136.615 26.1006 136.289 25.781C135.647 25.0601 135.29 24.1287 135.284 23.162L135.269 22.6503L135.284 22.1535C135.303 21.1955 135.665 20.2763 136.304 19.5643C136.994 18.9284 137.902 18.5845 138.838 18.6041C139.775 18.6237 140.667 19.0054 141.33 19.6696C141.976 20.4775 142.302 21.4961 142.245 22.5302V22.7867C142.246 22.8341 142.237 22.8813 142.219 22.9252C142.201 22.9691 142.174 23.0088 142.14 23.0418C142.108 23.0724 142.071 23.0962 142.03 23.1118C141.988 23.1273 141.944 23.1343 141.9 23.1323H136.709V23.2673C136.722 23.8726 136.927 24.458 137.294 24.9385C137.468 25.1566 137.69 25.3311 137.942 25.4483C138.195 25.5654 138.471 25.622 138.749 25.6135C139.142 25.6308 139.531 25.5373 139.874 25.3436C140.13 25.1928 140.354 24.9932 140.535 24.7563C140.587 24.675 140.653 24.6037 140.73 24.5458C140.81 24.5097 140.898 24.4944 140.985 24.5012H141.722C141.803 24.4984 141.883 24.5252 141.946 24.5767C141.976 24.6026 142 24.635 142.016 24.6715C142.031 24.708 142.039 24.7477 142.036 24.7873C141.995 25.0946 141.846 25.3772 141.617 25.5852C141.292 25.9338 140.898 26.2098 140.461 26.3953C139.926 26.6263 139.348 26.7405 138.765 26.73V26.726ZM140.82 22.0901V22.0455C140.847 21.4316 140.643 20.8299 140.249 20.3594C140.059 20.1506 139.827 19.9838 139.569 19.8698C139.31 19.7557 139.031 19.6968 138.749 19.6968C138.467 19.6968 138.188 19.7557 137.929 19.8698C137.671 19.9838 137.439 20.1506 137.248 20.3594C136.873 20.8386 136.683 21.4369 136.71 22.0455V22.0901H140.82Z" fill="white"/>
<path d="M90.2271 26.4898L90.1451 26.5722L90.2271 26.4898ZM90.1519 26.1132L90.0441 26.0713L90.1519 26.1132ZM93.874 16.3743L93.9816 16.4162L93.874 16.3743ZM95.8547 16.3743L95.7458 16.4134L95.8547 16.3743ZM99.5607 26.1132L99.6737 26.0929C99.6745 26.0862 99.6745 26.0794 99.6737 26.0726L99.5607 26.1132ZM99.5902 26.2792H99.706V26.2589L99.5902 26.2792ZM99.5 26.4898L99.5809 26.5722L99.5 26.4898ZM98.2702 26.5047L98.1881 26.5871L98.1961 26.5938L98.2702 26.5047ZM98.1504 26.3238L98.2594 26.2874L98.1504 26.3238ZM97.3255 24.1867L97.4333 24.1449C97.4249 24.1231 97.4101 24.1043 97.3909 24.0911C97.3717 24.0778 97.3488 24.0707 97.3255 24.0706V24.1867ZM92.4044 24.1867V24.0706C92.3811 24.0707 92.3584 24.0778 92.3392 24.0911C92.32 24.1043 92.3053 24.1231 92.2968 24.1449L92.4044 24.1867ZM91.5795 26.3238L91.4719 26.2819L91.5795 26.3238ZM91.445 26.5047L91.5191 26.5938L91.445 26.5047ZM96.8909 22.8921V23.0082C96.9095 23.0081 96.9278 23.0034 96.9442 22.9947C96.9607 22.986 96.9747 22.9734 96.9853 22.958C96.9959 22.9427 97.0026 22.925 97.0049 22.9064C97.0072 22.8879 97.0051 22.8691 96.9986 22.8516L96.8909 22.8921ZM94.8656 17.5488L94.9734 17.5083C94.9649 17.4866 94.95 17.4681 94.9308 17.4549C94.9116 17.4418 94.8889 17.4348 94.8656 17.4348C94.8424 17.4348 94.8198 17.4418 94.8006 17.4549C94.7814 17.4681 94.7666 17.4866 94.758 17.5083L94.8656 17.5488ZM92.8404 22.8921L92.7328 22.8516C92.7263 22.8691 92.7241 22.8879 92.7264 22.9064C92.7287 22.925 92.7354 22.9427 92.746 22.958C92.7565 22.9734 92.7706 22.986 92.787 22.9947C92.8035 23.0034 92.8218 23.0081 92.8404 23.0082V22.8921ZM90.4398 26.4642C90.4146 26.4652 90.3895 26.4607 90.3662 26.4509C90.343 26.4411 90.3222 26.4263 90.3053 26.4075L90.141 26.5708C90.1788 26.6102 90.2242 26.6416 90.2744 26.6629C90.3246 26.6843 90.3786 26.6951 90.4331 26.695L90.4398 26.4642ZM90.3053 26.4075C90.2867 26.3905 90.2719 26.3695 90.2621 26.3462C90.2523 26.3229 90.2477 26.2977 90.2486 26.2725H90.0187C90.0185 26.3271 90.0294 26.3813 90.0507 26.4317C90.072 26.482 90.1031 26.5276 90.1423 26.5655L90.3053 26.4075ZM90.2486 26.2725C90.2458 26.2272 90.2491 26.1819 90.2582 26.1375L90.0389 26.0646C90.0218 26.1306 90.0144 26.1989 90.0172 26.2671L90.2486 26.2725ZM90.2554 26.1483L93.9761 16.4094L93.7609 16.327L90.0402 26.066L90.2554 26.1483ZM93.9776 16.4067C94.0011 16.3297 94.0481 16.2622 94.1121 16.2136C94.182 16.1694 94.2637 16.1477 94.3462 16.1515V15.9193C94.2171 15.9153 94.0898 15.9512 93.9816 16.022C93.8768 16.0974 93.7986 16.2042 93.7582 16.327L93.9776 16.4067ZM94.3489 16.1515H95.3689V15.9193H94.3489V16.1515ZM95.3689 16.1515C95.4519 16.1474 95.5342 16.1691 95.6045 16.2136C95.6685 16.2622 95.7156 16.3297 95.739 16.4067L95.9557 16.327C95.9154 16.2041 95.8372 16.0973 95.7323 16.022C95.6237 15.9509 95.4959 15.9151 95.3663 15.9193L95.3689 16.1515ZM95.7417 16.408L99.4476 26.147L99.663 26.0646L95.957 16.3257L95.7417 16.408ZM99.4422 26.128L99.4718 26.2941L99.6993 26.2523L99.6697 26.0862L99.4422 26.128ZM99.4705 26.2725C99.4713 26.2977 99.4668 26.3229 99.457 26.3462C99.4473 26.3695 99.4325 26.3904 99.414 26.4075L99.5768 26.5708C99.616 26.5329 99.6473 26.4874 99.6686 26.4371C99.6899 26.3867 99.7008 26.3326 99.7006 26.2779L99.4705 26.2725ZM99.414 26.4075C99.3969 26.4261 99.3761 26.4408 99.3529 26.4506C99.3296 26.4604 99.3046 26.465 99.2794 26.4642V26.695C99.3339 26.6951 99.3879 26.6843 99.4381 26.6629C99.4883 26.6416 99.5337 26.6102 99.5715 26.5708L99.414 26.4075ZM99.2794 26.4642H98.5151V26.695H99.2794V26.4642ZM98.5151 26.4642C98.4508 26.4697 98.3865 26.4525 98.3334 26.4156L98.1854 26.5938C98.2798 26.666 98.3966 26.7024 98.5151 26.6964V26.4642ZM98.3415 26.4223C98.3004 26.3853 98.2687 26.3391 98.2487 26.2874L98.0307 26.3602C98.0617 26.446 98.1124 26.5232 98.1787 26.5857L98.3415 26.4223ZM98.2474 26.2874L97.4224 24.1489L97.2071 24.2326L98.032 26.3697L98.2474 26.2874ZM97.3148 24.0761H92.3938V24.3069H97.3148V24.0761ZM92.286 24.1503L91.4598 26.2887L91.6751 26.3724L92.5 24.2353L92.286 24.1503ZM91.4584 26.2927C91.4376 26.346 91.4028 26.3927 91.3576 26.4277L91.5069 26.6032C91.5833 26.5426 91.6419 26.4624 91.6764 26.371L91.4584 26.2927ZM91.3589 26.4277C91.3109 26.4635 91.2516 26.4807 91.192 26.4763V26.7072C91.3054 26.7115 91.4166 26.6752 91.5056 26.6046L91.3589 26.4277ZM91.192 26.4763H90.4264V26.7072H91.192V26.4763ZM96.9865 22.8624L94.9612 17.5191L94.7459 17.6014L96.7711 22.9448L96.9865 22.8624ZM94.7446 17.5191L92.7193 22.8624L92.9347 22.9448L94.9599 17.6014L94.7446 17.5191ZM92.8269 23.0203H96.8774V22.7895H92.8269V23.0203ZM101.093 29.3478L101.013 29.4301L101.093 29.3478ZM101.093 18.8705L101.176 18.9528L101.093 18.8705ZM102.279 18.8705L102.191 18.946L102.205 18.9582L102.279 18.8705ZM102.384 19.7736H102.268C102.268 19.798 102.276 19.8217 102.29 19.8414C102.305 19.8611 102.325 19.8758 102.348 19.8834C102.371 19.8911 102.396 19.8912 102.419 19.8839C102.442 19.8765 102.462 19.862 102.477 19.8424L102.384 19.7736ZM107.2 19.6075L107.11 19.6791L107.2 19.6075ZM108.056 22.1725H107.94H108.056ZM108.056 23.1958L107.941 23.1863L108.056 23.1958ZM107.2 25.7609L107.29 25.8337L107.2 25.7609ZM102.413 25.6258L102.505 25.5556C102.49 25.5365 102.47 25.5225 102.447 25.5156C102.424 25.5086 102.399 25.509 102.376 25.5167C102.354 25.5244 102.334 25.5391 102.32 25.5587C102.306 25.5782 102.298 25.6017 102.298 25.6258H102.413ZM102.323 29.3586L102.241 29.2776L102.323 29.3586ZM106.074 24.8725L105.981 24.8036L106.074 24.8725ZM106.612 23.127L106.498 23.1161V23.1229L106.612 23.127ZM102.967 20.5377L102.875 20.4675L102.967 20.5377ZM102.411 22.1577H102.295H102.411ZM102.396 22.7287H102.282H102.396ZM102.411 23.316H102.295H102.411ZM102.981 24.8672L103.07 24.7943L102.981 24.8672ZM101.345 29.3423C101.313 29.3432 101.281 29.3373 101.251 29.325C101.221 29.3126 101.194 29.2942 101.171 29.2708L101.009 29.4342C101.053 29.4784 101.105 29.5131 101.163 29.5363C101.221 29.5595 101.283 29.5707 101.345 29.5692V29.3423ZM101.171 29.2708C101.152 29.2496 101.136 29.2245 101.127 29.1971C101.117 29.1697 101.113 29.1406 101.115 29.1116H100.883C100.881 29.1709 100.891 29.2301 100.912 29.2856C100.934 29.341 100.966 29.3917 101.007 29.4342L101.171 29.2708ZM101.115 29.1116V19.1215H100.883V29.1116H101.115ZM101.115 19.1215C101.113 19.0925 101.117 19.0634 101.127 19.036C101.136 19.0086 101.152 18.9835 101.171 18.9622L101.009 18.7988C100.967 18.8414 100.935 18.8919 100.914 18.9474C100.892 19.0029 100.883 19.0621 100.885 19.1215H101.115ZM101.171 18.9622C101.194 18.9389 101.221 18.9204 101.251 18.9081C101.281 18.8958 101.313 18.8899 101.345 18.8907V18.6585C101.283 18.657 101.221 18.6682 101.163 18.6914C101.105 18.7146 101.053 18.7493 101.009 18.7935L101.171 18.9622ZM101.345 18.8907H102.035V18.6585H101.345V18.8907ZM102.035 18.8907C102.064 18.8889 102.093 18.8938 102.119 18.9051C102.145 18.9163 102.169 18.9336 102.187 18.9555L102.362 18.8056C102.322 18.7582 102.272 18.7206 102.215 18.6954C102.158 18.6701 102.096 18.658 102.034 18.6598L102.035 18.8907ZM102.201 18.969C102.223 18.9876 102.24 19.0112 102.251 19.0376C102.262 19.0641 102.267 19.0928 102.265 19.1215H102.496C102.497 19.0594 102.485 18.9977 102.46 18.941C102.435 18.8842 102.397 18.8339 102.35 18.7935L102.201 18.969ZM102.265 19.1215V19.783H102.496V19.1215H102.265ZM102.474 19.8519C102.745 19.4833 103.103 19.1885 103.517 18.9945C103.93 18.8004 104.386 18.7132 104.841 18.7408V18.51C104.348 18.4814 103.856 18.5769 103.41 18.7876C102.963 18.9984 102.576 19.3179 102.284 19.7169L102.474 19.8519ZM104.841 18.7408C105.266 18.7079 105.693 18.7762 106.087 18.9405C106.48 19.1047 106.829 19.3602 107.106 19.6859L107.288 19.5427C106.99 19.1888 106.613 18.9104 106.188 18.7302C105.763 18.55 105.301 18.4732 104.841 18.5059V18.7408ZM107.106 19.6859C107.647 20.4027 107.938 21.2776 107.936 22.1766L108.166 22.1672C108.167 21.2186 107.857 20.2958 107.286 19.54L107.106 19.6859ZM107.936 22.1833C107.945 22.2886 107.951 22.4533 107.951 22.6855H108.181C108.181 22.4547 108.181 22.2805 108.165 22.1631L107.936 22.1833ZM107.951 22.6855C107.951 22.9164 107.951 23.0824 107.936 23.1877L108.165 23.208C108.176 23.0919 108.181 22.9164 108.181 22.6855H107.951ZM107.936 23.1931C107.935 24.092 107.644 24.9664 107.106 25.6852L107.286 25.8283C107.854 25.0714 108.163 24.1502 108.166 23.2026L107.936 23.1931ZM107.106 25.6839C106.828 26.008 106.479 26.2623 106.085 26.4265C105.692 26.5906 105.266 26.6599 104.841 26.6289V26.8597C105.301 26.8897 105.761 26.8116 106.186 26.6316C106.61 26.4516 106.987 26.1747 107.286 25.8229L107.106 25.6839ZM104.841 26.6289C104.393 26.6514 103.946 26.5649 103.539 26.3769C103.132 26.1888 102.775 25.9047 102.501 25.5488L102.318 25.6839C102.613 26.0685 102.997 26.3759 103.436 26.5804C103.875 26.7848 104.356 26.8802 104.84 26.8584L104.841 26.6289ZM102.295 25.6164V29.1088H102.526V25.6164H102.295ZM102.295 29.1088C102.297 29.1379 102.293 29.167 102.283 29.1944C102.274 29.2219 102.258 29.2469 102.239 29.2681L102.401 29.4315C102.443 29.3889 102.475 29.3384 102.496 29.2829C102.518 29.2275 102.527 29.1682 102.525 29.1088H102.295ZM102.233 29.2749C102.214 29.2969 102.191 29.3142 102.164 29.3255C102.137 29.3367 102.109 29.3416 102.08 29.3397V29.5719C102.142 29.5739 102.204 29.5617 102.261 29.5365C102.317 29.5112 102.368 29.4735 102.408 29.4261L102.233 29.2749ZM102.08 29.3397H101.345V29.5719H102.08V29.3397ZM104.525 25.642C104.835 25.6679 105.147 25.6167 105.433 25.4928C105.719 25.369 105.97 25.1763 106.164 24.9319L105.978 24.797C105.805 25.0114 105.582 25.1797 105.329 25.2868C105.076 25.394 104.8 25.4367 104.526 25.4112L104.525 25.642ZM106.162 24.9333C106.53 24.4014 106.726 23.7698 106.726 23.1229L106.496 23.1135C106.499 23.7141 106.318 24.301 105.978 24.7956L106.162 24.9333ZM106.725 23.1297C106.736 23.023 106.741 22.8732 106.741 22.6815H106.51C106.51 22.8705 106.51 23.0123 106.495 23.1068L106.725 23.1297ZM106.741 22.6815C106.795 21.9075 106.603 21.1364 106.193 20.4783C105.999 20.2243 105.744 20.0223 105.454 19.89C105.163 19.7577 104.844 19.6991 104.525 19.7196V19.9504C104.807 19.9305 105.09 19.9807 105.348 20.0965C105.606 20.2124 105.832 20.3903 106.005 20.6146C106.385 21.2332 106.561 21.9557 106.508 22.6801L106.741 22.6815ZM104.525 19.721C104.21 19.7013 103.896 19.7582 103.608 19.8867C103.321 20.0153 103.068 20.2118 102.872 20.4594L103.055 20.5944C103.23 20.3754 103.454 20.2022 103.71 20.0895C103.966 19.9769 104.245 19.9282 104.523 19.9477L104.525 19.721ZM102.872 20.4594C102.511 20.9498 102.309 21.54 102.294 22.1496L102.525 22.1604C102.54 21.5966 102.728 21.051 103.063 20.5984L102.872 20.4594ZM102.294 22.1523L102.279 22.7247H102.509L102.524 22.1523H102.294ZM102.279 22.7301L102.294 23.3174H102.525L102.51 22.7301H102.279ZM102.294 23.3187C102.305 23.9106 102.515 24.4813 102.89 24.9387L103.069 24.7915C102.727 24.3718 102.538 23.8484 102.531 23.3066L102.294 23.3187ZM102.89 24.9387C103.089 25.1748 103.341 25.3612 103.624 25.4835C103.908 25.6058 104.215 25.6605 104.523 25.6434V25.4126C104.249 25.4298 103.975 25.3827 103.722 25.2751C103.47 25.1676 103.245 25.0024 103.067 24.7929L102.89 24.9387ZM110.732 26.4467L110.782 26.3427L110.732 26.4467ZM109.727 25.6366L109.633 25.7028L109.727 25.6366ZM110.178 22.8516L110.248 22.9434L110.178 22.8516ZM112.398 22.0092L112.414 22.1239L112.398 22.0092ZM114.633 21.6933L114.65 21.808C114.677 21.8041 114.702 21.7904 114.721 21.7693C114.739 21.7482 114.749 21.7213 114.749 21.6933H114.633ZM111.798 20.0071L111.86 20.1044L111.798 20.0071ZM111.168 20.6551L111.067 20.5984C111.064 20.6049 111.061 20.6117 111.059 20.6187L111.168 20.6551ZM111.049 20.8509L110.976 20.7604L110.967 20.7686L111.049 20.8509ZM109.983 20.8212L109.895 20.8968L109.907 20.909L109.983 20.8212ZM109.893 20.5809H109.777H109.893ZM110.222 19.7709L110.128 19.7047L110.222 19.7709ZM111.228 18.973L111.279 19.077L111.228 18.973ZM115.309 19.4239L115.224 19.5023L115.309 19.4239ZM115.939 26.5141L116.019 26.5964L115.939 26.5141ZM114.753 26.5141L114.666 26.5898C114.669 26.5944 114.673 26.5985 114.678 26.6019L114.753 26.5141ZM114.663 25.611H114.779C114.778 25.5866 114.77 25.563 114.755 25.5436C114.741 25.5241 114.72 25.5098 114.697 25.5026C114.674 25.4955 114.649 25.4958 114.626 25.5036C114.603 25.5114 114.583 25.5264 114.569 25.5462L114.663 25.611ZM113.702 26.421L113.648 26.3184L113.702 26.421ZM114.002 24.9913L113.919 24.9103L114.002 24.9913ZM114.632 22.7179H114.748C114.748 22.7011 114.744 22.6844 114.737 22.6691C114.73 22.6537 114.72 22.6402 114.707 22.6293C114.694 22.6183 114.679 22.6104 114.663 22.6059C114.647 22.6014 114.63 22.6005 114.613 22.6032L114.632 22.7179ZM112.892 22.9731L112.908 23.0878L112.892 22.9731ZM111.287 23.4847L111.349 23.5819L111.287 23.4847ZM111.242 25.3059L111.179 25.4018L111.242 25.3059ZM112.097 26.6357C111.642 26.6397 111.192 26.5405 110.781 26.3454L110.681 26.5547C111.123 26.7641 111.607 26.8707 112.096 26.8665L112.097 26.6357ZM110.781 26.3454C110.4 26.171 110.07 25.9036 109.819 25.5678L109.633 25.7028C109.906 26.0694 110.266 26.3614 110.681 26.552L110.781 26.3454ZM109.821 25.5718C109.598 25.2514 109.479 24.8694 109.481 24.4783H109.25C109.247 24.9161 109.38 25.3438 109.63 25.7028L109.821 25.5718ZM109.481 24.4783C109.476 24.1798 109.543 23.8845 109.676 23.6175C109.81 23.3505 110.005 23.1197 110.247 22.9448L110.105 22.7625C109.836 22.9591 109.618 23.2177 109.469 23.5165C109.321 23.8154 109.246 24.1457 109.251 24.4797L109.481 24.4783ZM110.247 22.9434C110.884 22.4839 111.631 22.2013 112.412 22.1239L112.379 21.8944C111.558 21.9771 110.773 22.2761 110.104 22.7611L110.247 22.9434ZM112.412 22.1239L114.647 21.808L114.615 21.5785L112.378 21.8944L112.412 22.1239ZM114.746 21.6933V21.2573H114.516V21.6933H114.746ZM114.746 21.2573C114.762 21.0284 114.728 20.7987 114.645 20.5847C114.563 20.3708 114.434 20.1777 114.269 20.0193C113.87 19.7171 113.375 19.5703 112.876 19.6062V19.8384C113.319 19.8029 113.759 19.929 114.117 20.1934C114.258 20.3298 114.368 20.4959 114.438 20.6799C114.507 20.8639 114.536 21.061 114.52 21.2573H114.746ZM112.876 19.6062C112.472 19.5899 112.073 19.6967 111.731 19.9126L111.865 20.1044C112.169 19.9133 112.523 19.8191 112.881 19.8343L112.876 19.6062ZM111.734 19.9113C111.456 20.081 111.224 20.3177 111.061 20.5998L111.263 20.7132C111.407 20.4651 111.61 20.2569 111.855 20.1071L111.734 19.9113ZM111.061 20.6187C111.046 20.6727 111.017 20.7217 110.977 20.7604L111.121 20.9413C111.196 20.8748 111.251 20.7882 111.279 20.6916L111.061 20.6187ZM110.969 20.7699C110.941 20.791 110.906 20.8001 110.871 20.7955V21.0264C110.919 21.0289 110.966 21.0218 111.011 21.0055C111.056 20.9893 111.097 20.9643 111.132 20.9319L110.969 20.7699ZM110.871 20.7955H110.225V21.0264H110.871V20.7955ZM110.225 20.7955C110.165 20.7961 110.106 20.774 110.061 20.7335L109.91 20.909C109.997 20.9854 110.109 21.0271 110.225 21.0264V20.7955ZM110.073 20.7456C110.032 20.7002 110.009 20.6409 110.01 20.5795H109.78C109.779 20.6957 109.821 20.808 109.897 20.8955L110.073 20.7456ZM110.01 20.5849C110.041 20.3102 110.148 20.0499 110.319 19.833L110.131 19.698C109.933 19.9503 109.812 20.2537 109.78 20.5728L110.01 20.5849ZM110.319 19.8343C110.571 19.5038 110.902 19.242 111.281 19.0729L111.18 18.865C110.767 19.0509 110.406 19.3377 110.131 19.6994L110.319 19.8343ZM111.283 19.0729C111.787 18.8348 112.341 18.7206 112.898 18.7395V18.5086C112.304 18.49 111.715 18.6131 111.179 18.8677L111.283 19.0729ZM112.898 18.7395C113.317 18.6978 113.741 18.7437 114.142 18.8745C114.543 19.0053 114.913 19.2182 115.228 19.4996L115.398 19.3429C115.061 19.0378 114.665 18.8062 114.235 18.6626C113.805 18.519 113.349 18.4665 112.898 18.5086V18.7395ZM115.23 19.5009C115.703 20.0087 115.956 20.684 115.933 21.3787H116.163C116.185 20.6252 115.91 19.8935 115.396 19.3429L115.23 19.5009ZM115.933 21.3787V26.2563H116.163V21.3787H115.933ZM115.933 26.2563C115.934 26.2887 115.928 26.3209 115.916 26.3509C115.904 26.3809 115.885 26.408 115.862 26.4304L116.025 26.5938C116.069 26.5495 116.103 26.4968 116.126 26.4388C116.15 26.3808 116.161 26.3188 116.159 26.2563H115.933ZM115.862 26.4304C115.841 26.4503 115.816 26.4656 115.788 26.4753C115.761 26.4851 115.732 26.4891 115.703 26.4871V26.718C115.762 26.7201 115.821 26.7102 115.877 26.6889C115.932 26.6676 115.982 26.6352 116.025 26.5938L115.862 26.4304ZM115.703 26.4871H115.013V26.718H115.703V26.4871ZM115.013 26.4871C114.947 26.4892 114.883 26.4671 114.833 26.4251L114.683 26.6006C114.775 26.6793 114.892 26.7215 115.013 26.7193V26.4871ZM114.846 26.4372C114.803 26.3871 114.78 26.3225 114.783 26.2563H114.553C114.55 26.3772 114.592 26.4949 114.67 26.5871L114.846 26.4372ZM114.783 26.2563V25.6097H114.553V26.2563H114.783ZM114.573 25.5435C114.334 25.8738 114.019 26.1404 113.654 26.3198L113.76 26.5249C114.159 26.3286 114.503 26.0371 114.763 25.6758L114.573 25.5435ZM113.654 26.3198C113.17 26.5495 112.638 26.6588 112.102 26.6383V26.8692C112.675 26.8901 113.244 26.772 113.761 26.5249L113.654 26.3198ZM112.417 25.7406C112.727 25.7516 113.036 25.698 113.324 25.5832C113.612 25.4684 113.873 25.2949 114.091 25.0737L113.926 24.9117C113.729 25.1108 113.494 25.2667 113.234 25.3695C112.974 25.4722 112.696 25.5195 112.417 25.5084V25.7406ZM114.091 25.0737C114.323 24.8114 114.501 24.5057 114.615 24.1741C114.728 23.8426 114.775 23.4918 114.753 23.1419H114.523C114.545 23.462 114.504 23.7834 114.401 24.0874C114.298 24.3914 114.137 24.672 113.926 24.9131L114.091 25.0737ZM114.753 23.1419V22.7206H114.523V23.1419H114.753ZM114.619 22.6018L112.879 22.857L112.912 23.0865L114.652 22.8313L114.619 22.6018ZM112.879 22.857C112.296 22.9116 111.732 23.0926 111.226 23.3876L111.354 23.5806C111.832 23.3055 112.364 23.1373 112.912 23.0878L112.879 22.857ZM111.228 23.3862C111.05 23.4829 110.902 23.6251 110.798 23.7983C110.694 23.9715 110.637 24.1694 110.634 24.3717H110.866C110.869 24.2082 110.916 24.0484 111.001 23.9092C111.087 23.77 111.208 23.6566 111.353 23.5806L111.228 23.3862ZM110.634 24.3717C110.628 24.5761 110.675 24.7784 110.771 24.9589C110.867 25.1393 111.008 25.2915 111.18 25.4004L111.308 25.2087C111.167 25.1208 111.052 24.9971 110.974 24.8501C110.896 24.7031 110.858 24.5381 110.864 24.3717H110.634ZM111.183 25.4031C111.553 25.6312 111.981 25.7471 112.416 25.7365V25.5057C112.026 25.5157 111.641 25.4121 111.308 25.2073L111.183 25.4031ZM118.835 25.8472L118.752 25.9282L118.835 25.8472ZM117.874 23.2823H117.759H117.874ZM117.859 22.6801H117.745H117.859ZM117.874 22.078H117.759H117.874ZM118.835 19.5333L118.917 19.6157L118.835 19.5333ZM123.186 19.0068L123.133 19.1094L123.186 19.0068ZM124.297 19.9693L124.198 20.0314L124.297 19.9693ZM124.7 21.1141H124.585H124.7ZM124.61 21.3544L124.686 21.4422L124.61 21.3544ZM123.41 21.3842L123.482 21.2937L123.41 21.3842ZM123.259 21.1438L123.15 21.183L123.259 21.1438ZM122.539 20.1205L122.475 20.2164L122.539 20.1205ZM119.883 20.3905L119.799 20.3109L119.883 20.3905ZM119.297 22.1455H119.182H119.297ZM119.283 22.6855H119.167H119.283ZM119.297 23.1972H119.182H119.297ZM119.883 24.9738L119.799 25.0535L119.883 24.9738ZM122.539 25.2438L122.601 25.341L122.539 25.2438ZM123.259 24.2056L123.153 24.1611L123.259 24.2056ZM123.41 23.9653L123.482 24.0558L123.492 24.0476L123.41 23.9653ZM124.61 23.995L124.528 24.0761L124.61 23.995ZM124.7 24.2353L124.586 24.2232L124.7 24.2353ZM124.297 25.3788L124.2 25.3167L124.297 25.3788ZM123.186 26.3427L123.133 26.2401L123.186 26.3427ZM121.356 26.6127C120.912 26.639 120.467 26.5756 120.048 26.4262C119.629 26.2769 119.244 26.0447 118.915 25.7433L118.754 25.908C119.103 26.2306 119.513 26.4797 119.96 26.6406C120.407 26.8015 120.881 26.871 121.355 26.8449L121.356 26.6127ZM118.917 25.7446C118.302 25.0665 117.971 24.1781 117.99 23.262L117.759 23.2701C117.743 24.2435 118.098 25.1865 118.752 25.9053L118.917 25.7446ZM117.99 23.2633L117.975 22.6612H117.745L117.759 23.2633H117.99ZM117.975 22.6667L117.99 22.0645H117.759L117.745 22.6667H117.975ZM117.99 22.0659C117.969 21.1544 118.301 20.2703 118.917 19.5994L118.752 19.4361C118.096 20.1484 117.74 21.0879 117.759 22.0577L117.99 22.0659ZM118.917 19.5994C119.242 19.294 119.627 19.0581 120.046 18.9061C120.465 18.7541 120.911 18.6892 121.356 18.7152V18.4843C120.881 18.4582 120.405 18.5291 119.958 18.6927C119.511 18.8563 119.101 19.1092 118.754 19.4361L118.917 19.5994ZM121.356 18.7152C121.97 18.696 122.579 18.8256 123.133 19.0932L123.239 18.888C122.653 18.6024 122.006 18.4635 121.355 18.483L121.356 18.7152ZM123.133 19.0932C123.563 19.2997 123.931 19.618 124.198 20.0152L124.393 19.8923C124.105 19.4601 123.706 19.1134 123.239 18.888L123.133 19.0932ZM124.2 20.0179C124.422 20.3369 124.556 20.7098 124.586 21.0979L124.816 21.0858C124.785 20.6544 124.638 20.2395 124.392 19.8843L124.2 20.0179ZM124.586 21.1101C124.59 21.135 124.587 21.1604 124.578 21.184C124.57 21.2076 124.555 21.2286 124.536 21.2451L124.687 21.4206C124.736 21.3799 124.774 21.3273 124.798 21.2678C124.821 21.2083 124.829 21.1438 124.821 21.0804L124.586 21.1101ZM124.536 21.2451C124.486 21.2871 124.421 21.3093 124.356 21.3072V21.5381C124.477 21.5403 124.595 21.498 124.687 21.4193L124.536 21.2451ZM124.356 21.3072H123.636V21.5381H124.356V21.3072ZM123.636 21.3072C123.582 21.3125 123.528 21.3002 123.482 21.2721L123.339 21.453C123.425 21.515 123.53 21.5456 123.636 21.5394V21.3072ZM123.482 21.2721C123.43 21.2165 123.391 21.1502 123.367 21.0777L123.154 21.1668C123.192 21.2756 123.255 21.3737 123.339 21.453L123.482 21.2721ZM123.369 21.0831C123.241 20.6476 122.971 20.2676 122.602 20.0031L122.477 20.1975C122.802 20.4351 123.039 20.7748 123.15 21.1627L123.369 21.0831ZM122.605 20.0031C122.237 19.768 121.806 19.6507 121.37 19.6669V19.8978C121.76 19.8819 122.146 19.985 122.476 20.1934L122.605 20.0031ZM121.37 19.6669C121.079 19.6542 120.789 19.7032 120.519 19.8107C120.249 19.9182 120.004 20.0817 119.801 20.2907L119.968 20.4499C120.149 20.2639 120.368 20.1185 120.61 20.0236C120.851 19.9287 121.111 19.8862 121.37 19.8991V19.6669ZM119.801 20.2907C119.38 20.8073 119.161 21.4599 119.184 22.1266L119.415 22.1347C119.39 21.5241 119.586 20.9251 119.968 20.4486L119.801 20.2907ZM119.184 22.128L119.17 22.668H119.4L119.415 22.128H119.184ZM119.17 22.6761L119.184 23.1877L119.415 23.181L119.4 22.6693L119.17 22.6761ZM119.184 23.1891C119.159 23.8606 119.378 24.5184 119.801 25.04L119.968 24.8806C119.585 24.3992 119.388 23.7951 119.415 23.1797L119.184 23.1891ZM119.801 25.04C120.005 25.2463 120.25 25.4072 120.521 25.5121C120.791 25.617 121.08 25.6636 121.37 25.6488V25.4166C121.111 25.431 120.853 25.3903 120.611 25.2972C120.369 25.2041 120.15 25.0607 119.968 24.8766L119.801 25.04ZM121.37 25.6488C121.803 25.6643 122.231 25.5531 122.602 25.3288L122.477 25.1345C122.143 25.3342 121.758 25.4322 121.37 25.4166V25.6488ZM122.605 25.3274C122.971 25.054 123.239 24.6697 123.369 24.2313L123.151 24.1544C123.038 24.5453 122.802 24.8893 122.479 25.1358L122.605 25.3274ZM123.367 24.2381C123.391 24.1656 123.43 24.0992 123.482 24.0436L123.339 23.8627C123.255 23.9423 123.192 24.041 123.154 24.1503L123.367 24.2381ZM123.492 24.0342C123.512 24.018 123.535 24.0059 123.56 23.9987C123.584 23.9915 123.61 23.9894 123.636 23.9924V23.7615C123.58 23.7581 123.524 23.7661 123.471 23.7849C123.419 23.8037 123.37 23.8329 123.329 23.8708L123.492 24.0342ZM123.636 23.9924H124.356V23.7615H123.636V23.9924ZM124.356 23.9924C124.388 23.9915 124.42 23.9974 124.45 24.0097C124.48 24.0221 124.507 24.0405 124.529 24.0639L124.692 23.9006C124.648 23.8565 124.595 23.8218 124.538 23.7986C124.48 23.7754 124.418 23.7642 124.356 23.7655V23.9924ZM124.536 24.0693C124.555 24.0857 124.57 24.1067 124.578 24.1303C124.587 24.1539 124.59 24.1794 124.586 24.2043L124.815 24.2273C124.823 24.1638 124.815 24.0992 124.791 24.0397C124.767 23.9803 124.729 23.9278 124.68 23.8871L124.536 24.0693ZM124.586 24.2164C124.554 24.6068 124.42 24.9819 124.198 25.3045L124.392 25.4287C124.635 25.0724 124.781 24.6588 124.816 24.2286L124.586 24.2164ZM124.198 25.3045C123.931 25.7018 123.563 26.0201 123.133 26.2266L123.239 26.4318C123.706 26.2062 124.105 25.8594 124.393 25.4274L124.198 25.3045ZM123.131 26.228C122.579 26.4974 121.969 26.6271 121.355 26.6059V26.8368C122.007 26.8585 122.654 26.7194 123.239 26.4318L123.131 26.228ZM126.587 26.4804L126.5 26.556L126.513 26.5681L126.587 26.4804ZM126.587 15.9882L126.669 16.0692L126.587 15.9882ZM127.833 15.9882L127.746 16.0637L127.758 16.0759L127.833 15.9882ZM127.938 19.7358H127.824C127.824 19.7597 127.831 19.7829 127.845 19.8024C127.859 19.8218 127.879 19.8364 127.902 19.8442C127.924 19.8521 127.948 19.8527 127.971 19.8461C127.994 19.8395 128.015 19.826 128.029 19.8073L127.938 19.7358ZM128.958 18.8934L129.009 18.9973L128.958 18.8934ZM132.649 19.5252L132.562 19.6008L132.649 19.5252ZM133.354 26.479L133.272 26.398L133.354 26.479ZM132.109 26.479L132.022 26.5547L132.034 26.5668L132.109 26.479ZM131.494 20.404L131.407 20.4797L131.494 20.404ZM128.494 20.4189L128.41 20.3393L128.494 20.4189ZM127.834 26.4845L127.752 26.4035L127.834 26.4845ZM126.844 26.4588C126.778 26.4608 126.714 26.4388 126.664 26.3967L126.513 26.5722C126.605 26.6509 126.722 26.6931 126.843 26.691L126.844 26.4588ZM126.677 26.4088C126.635 26.3581 126.613 26.2938 126.615 26.228H126.384C126.381 26.3489 126.423 26.4665 126.501 26.5587L126.677 26.4088ZM126.615 26.228V16.2379H126.384V26.228H126.615ZM126.615 16.2379C126.613 16.2089 126.617 16.1797 126.627 16.1523C126.637 16.1249 126.652 16.0999 126.672 16.0787L126.509 15.9153C126.468 15.9579 126.435 16.0085 126.414 16.0639C126.393 16.1194 126.383 16.1786 126.385 16.2379H126.615ZM126.672 16.0787C126.694 16.0552 126.721 16.0368 126.751 16.0244C126.781 16.0121 126.813 16.0062 126.845 16.0071V15.7763C126.783 15.7748 126.721 15.786 126.663 15.8092C126.605 15.8324 126.553 15.8671 126.509 15.9112L126.672 16.0787ZM126.845 16.0071H127.595V15.7763H126.845V16.0071ZM127.595 16.0071C127.623 16.0052 127.652 16.0102 127.678 16.0215C127.705 16.0327 127.728 16.05 127.747 16.0719L127.922 15.9207C127.882 15.8733 127.831 15.8355 127.774 15.8103C127.717 15.7851 127.656 15.7729 127.594 15.7749L127.595 16.0071ZM127.759 16.084C127.781 16.1027 127.798 16.1262 127.809 16.1527C127.821 16.1791 127.825 16.2079 127.824 16.2366H128.055C128.057 16.1745 128.044 16.1128 128.019 16.0561C127.994 15.9993 127.957 15.9489 127.91 15.9085L127.759 16.084ZM127.824 16.2366V19.7466H128.055V16.2366H127.824ZM128.029 19.8155C128.29 19.4736 128.625 19.1964 129.009 19.0054L128.908 18.7975C128.492 19.0041 128.13 19.3039 127.848 19.6737L128.029 19.8155ZM129.012 19.0054C129.45 18.7989 129.931 18.6999 130.415 18.7165V18.4857C129.895 18.4685 129.378 18.5758 128.907 18.7988L129.012 19.0054ZM130.415 18.7165C130.818 18.6922 131.221 18.7599 131.594 18.9145C131.967 19.069 132.3 19.3064 132.568 19.6089L132.743 19.4577C132.454 19.1304 132.095 18.8729 131.692 18.7043C131.29 18.5358 130.855 18.4606 130.419 18.4843L130.415 18.7165ZM132.568 19.6116C133.116 20.278 133.395 21.1263 133.35 21.9889H133.58C133.625 21.07 133.326 20.1674 132.741 19.459L132.568 19.6116ZM133.35 21.9889V26.2333H133.58V21.9889H133.35ZM133.35 26.2333C133.351 26.2657 133.345 26.2979 133.333 26.3279C133.321 26.3579 133.302 26.385 133.279 26.4075L133.442 26.5708C133.486 26.5265 133.52 26.4738 133.543 26.4158C133.566 26.3579 133.577 26.2958 133.576 26.2333H133.35ZM133.279 26.4075C133.258 26.4275 133.233 26.4427 133.205 26.4525C133.178 26.4623 133.149 26.4663 133.12 26.4642V26.695C133.179 26.6971 133.238 26.6872 133.294 26.6658C133.349 26.6445 133.399 26.6122 133.442 26.5708L133.279 26.4075ZM133.12 26.4642H132.371V26.695H133.12V26.4642ZM132.371 26.4642C132.305 26.4663 132.241 26.4442 132.19 26.4021L132.04 26.5776C132.131 26.6563 132.249 26.6985 132.369 26.6964L132.371 26.4642ZM132.204 26.4143C132.162 26.3636 132.14 26.2992 132.142 26.2333H131.91C131.908 26.3542 131.95 26.4718 132.027 26.5641L132.204 26.4143ZM132.142 26.2333V22.0605H131.91V26.2293L132.142 26.2333ZM132.142 22.0645C132.18 21.4375 131.982 20.8189 131.587 20.3311L131.415 20.485C131.771 20.9304 131.948 21.4935 131.91 22.0632L132.142 22.0645ZM131.589 20.3325C131.389 20.1179 131.144 19.9504 130.872 19.8421C130.6 19.7338 130.308 19.6874 130.016 19.7061V19.9369C130.275 19.9185 130.534 19.9581 130.776 20.0529C131.018 20.1477 131.236 20.2953 131.414 20.485L131.589 20.3325ZM130.016 19.7061C129.719 19.6937 129.424 19.7442 129.148 19.8542C128.873 19.9642 128.624 20.1313 128.417 20.3446L128.584 20.5039C128.769 20.3138 128.993 20.1652 129.24 20.0678C129.486 19.9703 129.751 19.9262 130.016 19.9383V19.7061ZM128.417 20.3446C128.004 20.819 127.793 21.4372 127.83 22.0659H128.062C128.025 21.4969 128.213 20.9364 128.585 20.5053L128.417 20.3446ZM127.83 22.0659V26.2347H128.062V22.0605L127.83 22.0659ZM127.83 26.2347C127.831 26.2671 127.825 26.2993 127.813 26.3293C127.801 26.3593 127.782 26.3864 127.759 26.4088L127.922 26.5722C127.966 26.5279 128 26.4751 128.023 26.4172C128.047 26.3592 128.058 26.2972 128.056 26.2347H127.83ZM127.759 26.4088C127.738 26.4288 127.713 26.4441 127.686 26.4539C127.658 26.4637 127.629 26.4676 127.6 26.4655V26.6964C127.659 26.6985 127.718 26.6885 127.774 26.6671C127.829 26.6458 127.879 26.6136 127.922 26.5722L127.759 26.4088ZM127.6 26.4655H126.851V26.6964H127.6V26.4655ZM136.278 25.7838L136.195 25.8634L136.278 25.7838ZM135.273 23.1648H135.157H135.273ZM135.257 22.6532H135.143V22.6599L135.257 22.6532ZM135.273 22.1563L135.157 22.1482L135.273 22.1563ZM136.293 19.567L136.211 19.486L136.293 19.567ZM141.319 19.6723L141.232 19.7479L141.319 19.6723ZM142.127 23.0473L142.209 23.1297L142.127 23.0473ZM136.696 23.1378V23.0217C136.665 23.0217 136.635 23.0339 136.614 23.0557C136.592 23.0774 136.58 23.107 136.58 23.1378H136.696ZM136.696 23.2728H136.58H136.696ZM137.281 24.9441L137.189 25.0157L137.281 24.9441ZM139.862 25.3491L139.922 25.4477L139.862 25.3491ZM140.523 24.7619L140.43 24.693L140.523 24.7619ZM140.718 24.5513L140.77 24.6552H140.778L140.718 24.5513ZM141.929 24.5809L141.855 24.67L141.929 24.5809ZM141.599 25.5894L141.513 25.5124L141.599 25.5894ZM140.444 26.3994L140.492 26.5047L140.444 26.3994ZM140.804 22.0943V22.2104C140.835 22.2104 140.864 22.1981 140.886 22.1763C140.907 22.1545 140.92 22.125 140.92 22.0943H140.804ZM140.233 20.3636L140.145 20.4378L140.233 20.3636ZM137.232 20.3636L137.145 20.2893L137.232 20.3636ZM136.694 22.0943H136.579C136.579 22.125 136.591 22.1545 136.612 22.1763C136.634 22.1981 136.663 22.2104 136.694 22.2104V22.0943ZM138.75 26.6154C138.31 26.6365 137.87 26.5663 137.458 26.409C137.046 26.2517 136.671 26.0108 136.356 25.7014L136.192 25.8634C136.528 26.1945 136.929 26.4527 137.369 26.6217C137.809 26.7908 138.279 26.8672 138.749 26.8462L138.75 26.6154ZM136.358 25.7028C135.735 25.0012 135.389 24.096 135.383 23.1567L135.153 23.1688C135.161 24.1633 135.53 25.1209 136.191 25.8621L136.358 25.7028ZM135.385 23.1594L135.37 22.6477H135.14L135.155 23.1594H135.385ZM135.37 22.6545L135.385 22.1577L135.153 22.1509L135.139 22.6477L135.37 22.6545ZM135.385 22.1617C135.403 21.231 135.754 20.3377 136.374 19.6453L136.207 19.486C135.55 20.2177 135.176 21.162 135.155 22.1469L135.385 22.1617ZM136.373 19.6453C136.68 19.3341 137.05 19.0909 137.457 18.9312C137.863 18.7715 138.299 18.6988 138.736 18.7179V18.4871C138.268 18.468 137.802 18.547 137.366 18.719C136.931 18.891 136.536 19.1523 136.207 19.486L136.373 19.6453ZM138.736 18.7179C139.202 18.6902 139.668 18.7684 140.1 18.9465C140.531 19.1246 140.917 19.3981 141.229 19.7466L141.404 19.5954C141.07 19.2217 140.658 18.9281 140.196 18.7362C139.734 18.5444 139.235 18.4592 138.736 18.4871V18.7179ZM141.23 19.7466C141.858 20.5333 142.173 21.5245 142.117 22.5303H142.349C142.406 21.4686 142.07 20.4232 141.407 19.5941L141.23 19.7466ZM142.117 22.5303V22.7868H142.349V22.5303H142.117ZM142.117 22.7868C142.118 22.8192 142.112 22.8515 142.1 22.8815C142.088 22.9115 142.069 22.9385 142.046 22.9609L142.209 23.1243C142.253 23.08 142.287 23.0272 142.31 22.9692C142.333 22.9113 142.344 22.8492 142.343 22.7868H142.117ZM142.046 22.9609C142.025 22.9809 142 22.9962 141.972 23.006C141.945 23.0157 141.916 23.0197 141.887 23.0176V23.2485C141.946 23.2505 142.005 23.2406 142.061 23.2193C142.116 23.198 142.166 23.1656 142.209 23.1243L142.046 22.9609ZM141.887 23.0176H136.696V23.2485H141.887V23.0176ZM136.58 23.1337V23.2687H136.811V23.1337H136.58ZM136.58 23.2687C136.594 23.8981 136.808 24.5065 137.189 25.0062L137.371 24.8631C137.019 24.4014 136.822 23.8392 136.81 23.258L136.58 23.2687ZM137.191 25.0075C137.375 25.2393 137.611 25.425 137.879 25.5498C138.147 25.6747 138.44 25.7354 138.736 25.7271V25.4962C138.474 25.5044 138.215 25.4514 137.978 25.3412C137.741 25.231 137.532 25.0669 137.37 24.8617L137.191 25.0075ZM138.736 25.7271C139.15 25.7442 139.562 25.6441 139.922 25.4382L139.801 25.2411C139.477 25.4237 139.108 25.5116 138.737 25.4949L138.736 25.7271ZM139.922 25.4382C140.191 25.2794 140.427 25.0694 140.615 24.8199L140.427 24.6849C140.256 24.9094 140.043 25.0983 139.8 25.2411L139.922 25.4382ZM140.613 24.8226C140.647 24.7758 140.683 24.7306 140.722 24.6875C140.733 24.6756 140.744 24.6643 140.757 24.6538L140.768 24.6458L140.664 24.4392C140.622 24.4634 140.584 24.4944 140.552 24.531C140.509 24.5799 140.467 24.6307 140.428 24.6835L140.613 24.8226ZM140.774 24.6417C140.837 24.6174 140.904 24.6077 140.971 24.6133V24.3825C140.862 24.3756 140.754 24.3969 140.656 24.4446L140.774 24.6417ZM140.971 24.6133H141.707V24.3825H140.971V24.6133ZM141.707 24.6133C141.761 24.6105 141.815 24.6278 141.857 24.6619L142.006 24.4837C141.921 24.4147 141.815 24.3783 141.707 24.3811V24.6133ZM141.857 24.6619C141.875 24.6769 141.888 24.6958 141.896 24.7169C141.905 24.738 141.908 24.7608 141.906 24.7835H142.136C142.138 24.7265 142.127 24.6699 142.103 24.6179C142.08 24.566 142.045 24.5201 142.002 24.4837L141.857 24.6619ZM141.906 24.7835C141.863 25.0621 141.724 25.3169 141.514 25.5044L141.687 25.6596C141.936 25.4305 142.095 25.1199 142.136 24.7835H141.906ZM141.514 25.5057C141.201 25.8433 140.821 26.1106 140.398 26.29L140.494 26.5006C140.947 26.3073 141.354 26.0203 141.689 25.6583L141.514 25.5057ZM140.399 26.2887C139.879 26.5118 139.317 26.6212 138.752 26.61V26.8408C139.35 26.8524 139.944 26.736 140.494 26.4993L140.399 26.2887ZM140.922 22.0888V22.0443H140.692V22.0888H140.922ZM140.922 22.0443C140.95 21.4021 140.736 20.7728 140.323 20.2812L140.15 20.4351C140.524 20.8849 140.716 21.4592 140.688 22.0443H140.922ZM140.325 20.2893C140.131 20.0581 139.887 19.8746 139.611 19.7527C139.336 19.6308 139.036 19.5737 138.736 19.5859V19.8181C139.003 19.8066 139.269 19.8566 139.513 19.9643C139.758 20.0719 139.975 20.2344 140.147 20.4391L140.325 20.2893ZM138.736 19.5859C138.435 19.5739 138.136 19.6311 137.86 19.753C137.585 19.8749 137.341 20.0583 137.148 20.2893L137.324 20.4378C137.496 20.233 137.713 20.0705 137.958 19.9629C138.203 19.8552 138.469 19.8053 138.736 19.8168V19.5859ZM137.146 20.2893C136.754 20.7872 136.552 21.41 136.579 22.0443H136.81C136.783 21.4625 136.965 20.8902 137.324 20.4324L137.146 20.2893ZM136.579 22.0443V22.0888H136.81V22.0443H136.579ZM136.694 22.2049H140.805V21.9741H136.694V22.2049Z" fill="white"/>
<path d="M87.3233 61.9339C87.1225 61.9291 86.931 61.847 86.789 61.7045C86.6469 61.5619 86.5651 61.37 86.5603 61.1685C86.5537 61.027 86.5663 60.8854 86.5979 60.7473L96.0525 36.0045C96.1306 35.7464 96.2937 35.5226 96.5153 35.3697C96.7368 35.2169 97.0036 35.1442 97.2717 35.1635H99.8635C100.132 35.1442 100.399 35.2168 100.62 35.3697C100.842 35.5225 101.006 35.7463 101.084 36.0045L110.504 60.7473L110.58 61.1685C110.575 61.3698 110.493 61.5613 110.351 61.7037C110.209 61.8461 110.018 61.9285 109.817 61.9339H107.873C107.641 61.9485 107.411 61.8806 107.224 61.7423C107.089 61.6147 106.985 61.4576 106.92 61.2833L104.824 55.8522H92.3198L90.2231 61.2833C90.1521 61.4645 90.0335 61.6231 89.8799 61.7423C89.7059 61.8767 89.4898 61.9446 89.2704 61.9339H87.3233ZM103.715 52.5649L98.5689 38.9894L93.4245 52.5636L103.715 52.5649ZM114.728 38.3387C114.609 38.3514 114.49 38.3375 114.378 38.2978C114.266 38.2582 114.164 38.1939 114.08 38.1096C113.996 38.0253 113.931 37.9232 113.892 37.8108C113.852 37.6983 113.838 37.5784 113.85 37.4598V35.3943C113.844 35.1565 113.925 34.9248 114.079 34.7436C114.163 34.6565 114.264 34.5876 114.376 34.5412C114.487 34.4947 114.607 34.4717 114.728 34.4736H117.13C117.25 34.4731 117.369 34.4964 117.48 34.5424C117.592 34.5883 117.693 34.6559 117.778 34.7413C117.863 34.8266 117.93 34.928 117.976 35.0397C118.022 35.1513 118.045 35.2709 118.045 35.3916V37.4571C118.046 37.5781 118.023 37.6981 117.977 37.8098C117.931 37.9215 117.862 38.0225 117.776 38.1065C117.595 38.2605 117.365 38.3422 117.128 38.336L114.728 38.3387ZM115.033 61.9353C114.915 61.9479 114.795 61.9337 114.683 61.8939C114.571 61.8541 114.469 61.7897 114.385 61.7053C114.301 61.6209 114.237 61.5188 114.197 61.4063C114.157 61.2938 114.143 61.1738 114.156 61.0551V42.9273C114.15 42.8151 114.168 42.703 114.207 42.5978C114.246 42.4927 114.307 42.3967 114.385 42.3158C114.468 42.2286 114.569 42.1597 114.681 42.1132C114.792 42.0668 114.912 42.0438 115.033 42.0457H116.862C117.091 42.0547 117.309 42.1502 117.472 42.313C117.635 42.4759 117.73 42.6943 117.739 42.9246V61.0511C117.741 61.1722 117.718 61.2925 117.672 61.4045C117.626 61.5164 117.557 61.6176 117.47 61.7017C117.389 61.7795 117.294 61.8399 117.189 61.8794C117.084 61.9189 116.972 61.9365 116.861 61.9312L115.033 61.9353ZM124.266 61.9353C124.148 61.9479 124.028 61.9337 123.916 61.8939C123.804 61.8541 123.702 61.7896 123.618 61.7052C123.534 61.6208 123.47 61.5186 123.43 61.4061C123.391 61.2936 123.377 61.1737 123.39 61.0551V42.9651C123.384 42.7278 123.465 42.4966 123.618 42.3158C123.702 42.2286 123.803 42.1597 123.915 42.1132C124.026 42.0668 124.146 42.0438 124.267 42.0457H126.016C126.137 42.0452 126.256 42.0686 126.367 42.1146C126.478 42.1605 126.58 42.2281 126.665 42.3135C126.75 42.3988 126.817 42.5002 126.863 42.6118C126.909 42.7234 126.932 42.843 126.931 42.9637V44.6459C127.499 43.7648 128.297 43.0566 129.238 42.5982C130.179 42.1399 131.227 41.9488 132.268 42.0457H133.749C133.978 42.0551 134.195 42.1506 134.358 42.3135C134.52 42.4763 134.615 42.6945 134.625 42.9246V44.492C134.629 44.6077 134.607 44.7229 134.56 44.8288C134.514 44.9348 134.444 45.0287 134.355 45.1035C134.275 45.1813 134.179 45.2418 134.074 45.2813C133.969 45.3207 133.858 45.3383 133.746 45.333H131.458C130.863 45.301 130.268 45.3933 129.71 45.6041C129.152 45.8149 128.644 46.1395 128.218 46.5574C127.812 46.9907 127.497 47.5022 127.294 48.061C127.09 48.6198 127.003 49.2143 127.035 49.8083V61.0511C127.037 61.1722 127.014 61.2925 126.968 61.4044C126.921 61.5163 126.853 61.6175 126.766 61.7017C126.585 61.8557 126.354 61.9374 126.117 61.9312L124.266 61.9353ZM140.729 61.9353C140.61 61.9477 140.491 61.9333 140.379 61.8934C140.267 61.8535 140.165 61.7891 140.081 61.7047C139.997 61.6204 139.933 61.5182 139.894 61.4059C139.854 61.2935 139.84 61.1736 139.853 61.0551V45.1062H136.612C136.494 45.1188 136.375 45.1046 136.263 45.0649C136.151 45.0251 136.049 44.9608 135.965 44.8766C135.881 44.7923 135.817 44.6903 135.777 44.578C135.738 44.4657 135.724 44.3459 135.736 44.2274V42.9273C135.731 42.8151 135.748 42.703 135.788 42.5978C135.827 42.4927 135.887 42.3967 135.965 42.3158C136.049 42.2287 136.149 42.1598 136.261 42.1133C136.372 42.0669 136.492 42.0439 136.612 42.0457H139.853V40.1328C139.853 35.7984 142.038 33.6317 146.409 33.6326H148.543C148.772 33.6415 148.99 33.737 149.153 33.8999C149.315 34.0627 149.411 34.2811 149.42 34.5114V35.8115C149.422 35.9324 149.399 36.0524 149.353 36.1641C149.306 36.2757 149.238 36.3768 149.151 36.4608C149.07 36.5386 148.975 36.599 148.87 36.6384C148.765 36.6779 148.653 36.6956 148.541 36.6903H146.484C146.04 36.6419 145.59 36.6999 145.173 36.8595C144.755 37.0191 144.381 37.2757 144.082 37.6083C143.563 38.4137 143.322 39.3673 143.396 40.3231V42.0444H151.553V34.5141C151.548 34.402 151.565 34.2898 151.605 34.1847C151.644 34.0796 151.704 33.9836 151.782 33.9026C151.866 33.8154 151.967 33.7465 152.078 33.7C152.19 33.6536 152.31 33.6306 152.43 33.6326H154.18C154.409 33.6415 154.627 33.737 154.79 33.8999C154.952 34.0627 155.048 34.2811 155.057 34.5114V61.0511C155.059 61.1722 155.036 61.2925 154.99 61.4045C154.944 61.5164 154.875 61.6176 154.788 61.7017C154.707 61.7797 154.611 61.8402 154.506 61.8796C154.401 61.9191 154.289 61.9367 154.177 61.9312H152.428C152.309 61.944 152.19 61.9301 152.077 61.8904C151.965 61.8506 151.863 61.7862 151.779 61.7017C151.695 61.6173 151.631 61.5151 151.591 61.4025C151.552 61.2899 151.538 61.1698 151.55 61.0511V45.1062H143.393V61.0538C143.395 61.1749 143.372 61.2952 143.325 61.4071C143.279 61.519 143.211 61.6202 143.124 61.7045C143.043 61.7823 142.947 61.8428 142.842 61.8823C142.737 61.9217 142.625 61.9393 142.513 61.9339L140.729 61.9353ZM168.853 62.3173C167.662 62.3896 166.47 62.2165 165.349 61.8085C164.228 61.4006 163.202 60.7665 162.334 59.9454C160.754 58.2279 159.882 55.9729 159.895 53.6355L159.856 51.9912L159.895 50.3469C159.888 48.0147 160.775 45.7692 162.372 44.0748C164.176 42.5202 166.474 41.6655 168.852 41.6655C171.23 41.6655 173.529 42.5202 175.332 44.0748C176.929 45.7695 177.816 48.0148 177.81 50.3469C177.835 50.6268 177.847 51.1749 177.847 51.9912C177.847 52.8075 177.835 53.3556 177.81 53.6355C177.821 55.9797 176.934 58.2386 175.332 59.9454C174.473 60.7686 173.453 61.4042 172.337 61.8122C171.22 62.2203 170.032 62.3918 168.846 62.316L168.853 62.3173ZM168.853 59.373C169.554 59.4088 170.254 59.2903 170.905 59.0261C171.556 58.7619 172.142 58.3583 172.621 57.8435C173.64 56.6093 174.182 55.0476 174.145 53.4452C174.171 53.1905 174.183 52.7062 174.183 51.9925C174.183 51.2788 174.171 50.7946 174.145 50.5399C174.182 48.9375 173.64 47.3758 172.621 46.1416C172.142 45.6268 171.556 45.2232 170.905 44.959C170.254 44.6948 169.554 44.5764 168.853 44.6121C168.145 44.5779 167.438 44.6968 166.781 44.9607C166.123 45.2246 165.529 45.6274 165.041 46.1416C164.026 47.3759 163.499 48.9413 163.56 50.5399L163.523 51.9925L163.56 53.4452C163.499 55.0438 164.026 56.6092 165.041 57.8435C165.529 58.3566 166.121 58.7586 166.778 59.0223C167.434 59.2859 168.14 59.405 168.846 59.3716L168.853 59.373ZM187.362 61.938C187.089 61.9558 186.819 61.8744 186.601 61.7085C186.392 61.5074 186.234 61.2581 186.143 60.9823L180.73 43.2378L180.654 42.8558C180.651 42.7495 180.67 42.6438 180.709 42.5451C180.749 42.4464 180.808 42.3568 180.883 42.282C181.039 42.1375 181.243 42.0558 181.455 42.0525H183.132C183.244 42.0472 183.355 42.0648 183.46 42.1043C183.565 42.1437 183.661 42.2042 183.741 42.282C183.897 42.3821 184.018 42.5297 184.084 42.7032L188.316 57.1199L192.853 42.8558C192.907 42.6437 193.027 42.4545 193.196 42.3158C193.292 42.2238 193.406 42.1523 193.53 42.1059C193.655 42.0595 193.787 42.039 193.92 42.0457H195.216C195.349 42.039 195.481 42.0595 195.606 42.1059C195.731 42.1523 195.845 42.2237 195.941 42.3158C196.11 42.4544 196.23 42.6437 196.284 42.8558L200.82 57.1199L205.051 42.7032C205.099 42.5397 205.192 42.3935 205.32 42.282C205.501 42.1278 205.732 42.0461 205.969 42.0525H207.685C207.785 42.0514 207.885 42.0713 207.978 42.1108C208.07 42.1503 208.154 42.2085 208.223 42.282C208.298 42.3569 208.357 42.4464 208.397 42.5451C208.436 42.6438 208.455 42.7496 208.452 42.8558L208.375 43.2378L203 60.9823C202.909 61.2581 202.752 61.5074 202.543 61.7085C202.309 61.8791 202.023 61.9605 201.735 61.938H200.255C199.964 61.968 199.672 61.886 199.438 61.7087C199.205 61.5313 199.047 61.2717 198.997 60.9823L194.575 47.2918L190.153 60.9823C190.084 61.2692 189.916 61.5224 189.679 61.6973C189.442 61.8722 189.151 61.9574 188.857 61.938H187.362Z" fill="white"/>
</svg>
