<svg width="104" height="64" viewBox="0 0 104 64" fill="none" xmlns="http://www.w3.org/2000/svg">
<path d="M29.3022 23.485C29.3022 24.772 29.4549 25.8055 29.6922 26.566C29.9619 27.3265 30.3194 28.1585 30.7939 29.0555C30.9792 29.3447 31.0474 29.6145 31.0474 29.8517C31.0474 30.206 30.8264 30.5472 30.3877 30.9015L28.2037 32.3412C27.9339 32.546 27.6284 32.6467 27.3067 32.663C26.9524 32.663 26.6112 32.494 26.2732 32.1722C25.7987 31.6815 25.3924 31.1387 25.0219 30.5472C24.6319 29.8875 24.2777 29.2115 23.9559 28.516C21.2487 31.6977 17.8622 33.2902 13.7834 33.2902C10.8714 33.2902 8.55417 32.4615 6.86092 30.8007C5.16767 29.1237 4.30642 26.9235 4.30642 24.148C4.30642 21.2197 5.33992 18.8147 7.45567 17.0207C9.57142 15.2267 12.3632 14.3297 15.9349 14.3297C17.1017 14.3297 18.3204 14.4305 19.5912 14.5995C20.8782 14.7685 22.1977 15.0577 23.5692 15.36V12.838C23.5692 10.2152 23.0264 8.36923 21.9442 7.30323C20.8424 6.23723 18.9834 5.71073 16.3087 5.71073C15.1062 5.71073 13.8549 5.84723 12.5679 6.14948C11.2972 6.47123 10.0459 6.84498 8.84342 7.33573C8.43717 7.52098 8.03092 7.65748 7.62467 7.79398C7.45567 7.84598 7.27042 7.87848 7.08192 7.89473C6.59117 7.89473 6.35392 7.54048 6.35392 6.81248V5.11923C6.35392 4.57648 6.42217 4.15398 6.59117 3.91673C6.84467 3.59498 7.18267 3.34148 7.55642 3.18873C8.77517 2.56148 10.2149 2.03823 11.9082 1.63198C13.6859 1.17373 15.4962 0.955977 17.3064 0.972227C21.4372 0.972227 24.4337 1.90173 26.3804 3.78348C28.2752 5.64573 29.2404 8.47323 29.2404 12.2822V23.4882L29.3022 23.485ZM15.2687 28.75C16.4029 28.75 17.5892 28.5452 18.8242 28.1227C20.0754 27.7165 21.1772 26.956 22.1067 25.9225C22.6657 25.2627 23.0882 24.5347 23.2929 23.706C23.4977 22.8772 23.6309 21.86 23.6309 20.6932V19.2372C22.5812 18.9837 21.5314 18.779 20.4492 18.6457C19.3832 18.5092 18.3009 18.441 17.1992 18.441C14.8787 18.441 13.1887 18.8992 12.0544 19.8287C10.9039 20.7582 10.3612 22.081 10.3612 23.8067C10.3612 25.4317 10.7674 26.6342 11.6319 27.463C12.4607 28.3275 13.6794 28.75 15.2719 28.75H15.2687ZM43.0464 32.4907C42.4192 32.4907 41.9967 32.39 41.7269 32.1365C41.4572 31.9317 41.2037 31.441 40.9989 30.8007L32.8739 4.05648C32.7212 3.59823 32.6042 3.14323 32.5684 2.66873C32.5684 2.10973 32.8382 1.80423 33.3809 1.80423H36.7837C37.4434 1.80423 37.8854 1.90498 38.1194 2.14223C38.4087 2.34698 38.6102 2.83773 38.8149 3.49748L44.6389 26.4002L50.0372 3.49748C50.2062 2.80198 50.4109 2.34698 50.6807 2.14223C51.1032 1.88873 51.5777 1.76848 52.0684 1.80423H54.8277C55.4874 1.80423 55.9457 1.90498 56.2154 2.14223C56.4852 2.34698 56.7387 2.83773 56.8752 3.49748L62.3417 26.67L68.3184 3.49748C68.5394 2.80198 68.7767 2.34698 69.0139 2.14223C69.4202 1.88873 69.8947 1.76848 70.3692 1.80423H73.5867C74.1457 1.80423 74.4512 2.07398 74.4512 2.66873C74.4512 2.83773 74.4187 3.00673 74.3829 3.22773C74.3309 3.51698 74.2464 3.80298 74.1457 4.09223L65.7997 30.8202C65.5949 31.5157 65.3609 31.9707 65.0717 32.1755C64.6817 32.429 64.2267 32.5492 63.7684 32.5135H60.7882C60.1284 32.5135 59.6864 32.4127 59.4004 32.1755C59.1307 31.9382 58.8934 31.48 58.7569 30.7877L53.3912 8.47648L48.0579 30.752C47.8889 31.4475 47.6842 31.9025 47.3982 32.1397C47.1284 32.377 46.6377 32.4777 46.0104 32.4777L43.0464 32.4907ZM87.4804 33.4235C85.6864 33.4235 83.8924 33.2025 82.1667 32.7962C80.4409 32.39 79.0857 31.9317 78.1887 31.4085C77.6297 31.103 77.2592 30.765 77.1227 30.4432C76.9862 30.1377 76.9017 29.816 76.9017 29.478V27.7165C76.9017 26.9885 77.1909 26.6342 77.6979 26.6342C77.9027 26.6342 78.1204 26.6667 78.3252 26.735C78.5299 26.8195 78.8484 26.956 79.1897 27.0892C80.3759 27.6125 81.6434 28.0187 82.9987 28.2917C84.3864 28.581 85.7254 28.7142 87.1132 28.7142C89.2972 28.7142 90.9904 28.3242 92.1572 27.5637C93.3077 26.8682 94.0032 25.617 93.9674 24.2812C93.9837 23.3842 93.6457 22.5197 93.0379 21.86C92.4107 21.2165 91.2277 20.625 89.5344 20.066L84.5229 18.5092C82.0009 17.713 80.1224 16.5462 78.9882 14.9895C77.8702 13.5497 77.2624 11.7915 77.2462 9.96173C77.2462 8.50573 77.5679 7.23498 78.1952 6.12023C78.8224 5.01848 79.6512 4.05648 80.6847 3.29273C81.7182 2.49648 82.9012 1.90498 84.2727 1.49873C85.6604 1.07623 87.1164 0.907227 88.6407 0.907227C89.4012 0.907227 90.1974 0.939726 90.9612 1.04373C91.7574 1.14448 92.4854 1.28098 93.2134 1.43373C93.8894 1.60273 94.5492 1.77173 95.1764 1.97648C95.8037 2.18123 96.2944 2.39898 96.6324 2.60373C97.0387 2.80848 97.3929 3.11073 97.6659 3.46823C97.9032 3.80623 98.0039 4.21248 97.9877 4.61873V6.24373C97.9877 6.97173 97.6984 7.34548 97.1914 7.34548C96.7169 7.29348 96.2782 7.16023 95.8719 6.93923C93.7887 6.00973 91.5202 5.55148 89.2354 5.58398C87.2562 5.58398 85.6962 5.88948 84.6302 6.54923C83.5479 7.20898 83.0052 8.20673 83.0052 9.63023C83.0052 10.5955 83.3432 11.4242 84.0387 12.084C84.7342 12.7437 86.0179 13.4035 87.8477 13.9982L92.7552 15.5387C95.2447 16.335 97.0549 17.453 98.1209 18.8732C99.1869 20.2772 99.7134 21.9022 99.7134 23.7157C99.7134 25.188 99.3917 26.5432 98.8164 27.7262C98.1892 28.893 97.3604 29.9265 96.2944 30.7747C95.2122 31.6392 93.9414 32.247 92.4529 32.7052C90.8962 33.1797 89.2712 33.4332 87.4934 33.4332L87.4804 33.4235ZM94.0292 50.2292C82.6379 58.6435 66.1149 63.0927 51.8962 63.0927C31.9737 63.0927 14.0142 55.7282 0.455167 43.4757C-0.610834 42.5105 0.354416 41.191 1.64142 41.9677C16.2989 50.4665 34.3949 55.6275 53.0987 55.6275C65.7249 55.6275 79.5894 52.9852 92.3684 47.6032C94.2632 46.7225 95.8882 48.8382 94.0259 50.226L94.0292 50.2292ZM98.7709 44.831C97.3149 42.9687 89.1379 43.934 85.4492 44.3922C84.3474 44.5287 84.1622 43.5472 85.1794 42.8192C91.6794 38.266 102.359 39.5692 103.613 41.0935C104.848 42.6665 103.259 53.3492 97.1817 58.4615C96.2522 59.2577 95.3357 58.8515 95.7582 57.8017C97.1459 54.3827 100.227 46.6802 98.7709 44.8342V44.831Z" fill="white"/>
</svg>
