<svg width="91" height="104" viewBox="0 0 91 104" fill="none" xmlns="http://www.w3.org/2000/svg">
<path d="M0 92.6435H3.47584C5.05964 92.6435 6.2099 92.8697 6.92495 93.322C7.64083 93.7744 7.99836 94.4932 7.99836 95.4792C7.99836 96.1486 7.84131 96.6973 7.52806 97.1263C7.21481 97.5552 6.79798 97.8132 6.2784 97.9003V97.9766C6.98676 98.1349 7.49715 98.4315 7.81041 98.8654C8.12366 99.2994 8.2807 99.8766 8.2807 100.597C8.2807 101.619 7.91315 102.416 7.17638 102.988C6.44045 103.56 5.44055 103.846 4.17752 103.846H0V92.6435ZM2.36818 97.0802H3.74315C4.38469 97.0802 4.84997 96.9805 5.13733 96.7819C5.42552 96.5826 5.5692 96.2533 5.5692 95.7934C5.5692 95.3645 5.41299 95.057 5.09974 94.8702C4.78648 94.6834 4.29113 94.5904 3.61367 94.5904H2.36818V97.0802ZM2.36818 98.9651V101.885H3.91189C4.56345 101.885 5.0446 101.76 5.35618 101.509C5.66776 101.259 5.8223 100.876 5.8223 100.36C5.8223 99.4309 5.15988 98.9651 3.83587 98.9651H2.36818ZM20.6504 98.2296C20.6504 100.084 20.1918 101.509 19.2754 102.505C18.359 103.502 17.0451 104 15.3335 104C13.6218 104 12.3079 103.502 11.3915 102.505C10.4743 101.509 10.0165 100.079 10.0165 98.2145C10.0165 96.3497 10.476 94.9263 11.3957 93.9428C12.3154 92.9593 13.6327 92.4675 15.3493 92.4675C17.0659 92.4675 18.3783 92.9635 19.2879 93.9537C20.196 94.9448 20.6504 96.3706 20.6504 98.2296ZM12.4992 98.2296C12.4992 99.4812 12.7356 100.424 13.21 101.057C13.6837 101.69 14.3912 102.007 15.3335 102.007C17.223 102.007 18.1678 100.748 18.1678 98.2296C18.1678 95.7063 17.228 94.4446 15.3485 94.4446C14.4062 94.4446 13.6954 94.7621 13.2167 95.3988C12.7381 96.0355 12.4992 96.978 12.4992 98.2296ZM33.1044 98.2296C33.1044 100.084 32.6458 101.509 31.7295 102.505C30.8131 103.502 29.4991 104 27.7875 104C26.0759 104 24.7619 103.502 23.8455 102.505C22.9283 101.509 22.4706 100.079 22.4706 98.2145C22.4706 96.3497 22.93 94.9263 23.8497 93.9428C24.7694 92.9593 26.0868 92.4675 27.8034 92.4675C29.52 92.4675 30.8323 92.9635 31.742 93.9537C32.6492 94.9448 33.1044 96.3706 33.1044 98.2296ZM24.9524 98.2296C24.9524 99.4812 25.1888 100.424 25.6632 101.057C26.1369 101.69 26.8444 102.007 27.7867 102.007C29.6762 102.007 30.621 100.748 30.621 98.2296C30.621 95.7063 29.6812 94.4446 27.8017 94.4446C26.8594 94.4446 26.1486 94.7621 25.6699 95.3988C25.1913 96.0355 24.9524 96.978 24.9524 98.2296ZM39.7278 103.846H37.3596V94.6205H34.3265V92.6435H42.7609V94.6205H39.7278V103.846ZM51.0725 100.735C51.0725 101.747 50.71 102.544 49.9841 103.126C49.2582 103.708 48.2483 104 46.9552 104C45.7631 104 44.7089 103.775 43.7926 103.326V101.119C44.546 101.456 45.1842 101.694 45.7063 101.832C46.2284 101.97 46.7054 102.039 47.1389 102.039C47.6585 102.039 48.057 101.939 48.3343 101.741C48.6125 101.541 48.7511 101.245 48.7511 100.852C48.7511 100.632 48.6902 100.437 48.5682 100.265C48.4462 100.094 48.2666 99.9294 48.0294 99.771C47.7922 99.6127 47.3102 99.3597 46.5818 99.0129C45.8993 98.6912 45.3872 98.382 45.0464 98.0855C44.7048 97.7889 44.4324 97.4446 44.2286 97.0517C44.0248 96.658 43.9229 96.198 43.9229 95.6728C43.9229 94.6817 44.2579 93.9026 44.9278 93.3354C45.5977 92.7683 46.5233 92.4851 47.7053 92.4851C48.2859 92.4851 48.8397 92.5538 49.3668 92.692C49.8939 92.8303 50.4452 93.0238 51.0207 93.2743L50.2564 95.1207C49.6608 94.8761 49.168 94.7043 48.7779 94.6071C48.3878 94.51 48.0052 94.4614 47.6284 94.4614C47.1799 94.4614 46.8365 94.5661 46.5968 94.7755C46.3571 94.985 46.2376 95.2581 46.2376 95.5957C46.2376 95.8051 46.2861 95.9878 46.383 96.1436C46.4799 96.2994 46.6336 96.4502 46.8449 96.596C47.0562 96.7417 47.5566 97.0031 48.346 97.3818C49.3902 97.8827 50.106 98.3846 50.4928 98.8872C50.8796 99.3899 51.0725 100.005 51.0725 100.735ZM57.4069 103.846H55.0387V94.6205H52.0056V92.6435H60.44V94.6205H57.4069V103.846ZM64.5273 99.5474V103.846H62.1591V92.6435H65.4136C66.9314 92.6435 68.0541 92.9208 68.7825 93.4745C69.5109 94.0291 69.8752 94.871 69.8752 95.9995C69.8752 96.6588 69.6947 97.2444 69.333 97.7579C68.9713 98.2715 68.4593 98.6736 67.7977 98.9643C69.4784 101.483 70.5735 103.109 71.083 103.845H68.4551L65.7887 99.5465H64.5273V99.5474ZM64.5273 97.6163H65.2917C66.0401 97.6163 66.5931 97.4915 66.9498 97.241C67.3065 96.9905 67.4844 96.5968 67.4844 96.0606C67.4844 95.5295 67.3023 95.1517 66.9381 94.9263C66.5739 94.7018 66.01 94.5895 65.2457 94.5895H64.5273V97.6163ZM79.3262 103.846L78.5159 101.179H74.4436L73.6333 103.846H71.0814L75.0233 92.5982H77.9186L81.8764 103.846H79.3262ZM77.9504 99.1871C77.2019 96.7711 76.7801 95.4047 76.6857 95.088C76.5913 94.7713 76.5244 94.5209 76.4835 94.3374C76.3156 94.9908 75.8344 96.6077 75.0392 99.1871H77.9504ZM91 96.1377C91 97.3432 90.6241 98.2656 89.8731 98.9031C89.1222 99.5423 88.0538 99.8615 86.6679 99.8615H85.6522V103.846H83.284V92.6435H86.8517C88.2066 92.6435 89.2366 92.9358 89.9425 93.5206C90.6475 94.1062 91 94.9783 91 96.1377ZM85.6522 97.9154H86.4315C87.16 97.9154 87.7046 97.7713 88.0663 97.4823C88.428 97.1933 88.6084 96.7736 88.6084 96.2223C88.6084 95.6652 88.4564 95.2539 88.154 94.9883C87.8508 94.7228 87.3755 94.5895 86.7289 94.5895H85.6513V97.9154H85.6522ZM53.8124 45.8744C52.156 45.3273 49.7711 45.2385 46.6578 45.2385H35.476V61.9935H47.5249C49.6149 61.9935 51.0826 61.7849 51.9279 61.6274C53.4173 61.361 54.6628 60.8483 55.6636 60.2234C56.6643 59.6001 57.4871 58.6576 58.132 57.4646C58.776 56.2717 59.0993 54.8785 59.0993 53.3169C59.0993 51.4873 58.6323 49.9827 57.6984 48.6339C56.7654 47.2843 55.4697 46.4206 53.8124 45.8744ZM52.095 38.6597C53.7406 38.1687 54.9811 37.2807 55.8139 36.1439C56.6484 35.0071 57.0653 33.5444 57.0653 31.8261C57.0653 30.1984 56.676 28.7474 55.8974 27.5084C55.1189 26.2702 54.0071 25.4299 52.5628 24.9725C51.116 24.5168 48.6367 24.2948 45.1233 24.2948H35.476V39.3743H45.9235C48.7929 39.3743 50.8495 39.04 52.095 38.6597ZM89.7729 11.8341C89.7729 5.29793 84.4894 0 77.9721 0H13.0279C6.51062 0 1.22711 5.29793 1.22711 11.8341V76.9675C1.22711 83.5036 6.51062 88.8015 13.0279 88.8015H77.9721C84.4894 88.8015 89.7729 83.5036 89.7729 76.9675V11.8341ZM64.3536 59.7065C63.3871 61.6802 62.1909 63.2024 60.7683 64.273C59.3449 65.3428 57.5598 66.3222 55.4138 66.8684C53.2678 67.4154 50.6382 67.8578 47.5249 67.8578H28.7933V18.4305H47.225C50.9614 18.4305 53.957 18.9499 56.214 19.9418C58.472 20.9345 60.2387 22.4727 61.5193 24.5352C62.7973 26.5986 63.4372 28.7625 63.4372 31.0152C63.4372 33.1112 62.8692 35.0875 61.7365 36.9389C60.6021 38.7904 58.8896 40.2857 56.5991 41.4226C59.5562 42.2921 61.8309 43.7775 63.4205 45.8735C65.0101 47.9704 65.8054 50.446 65.8054 53.301C65.8046 55.5981 65.3217 57.7336 64.3536 59.7065Z" fill="white"/>
</svg>
