<svg width="65" height="62" viewBox="0 0 65 62" fill="none" xmlns="http://www.w3.org/2000/svg">
<path d="M46.8467 62.0017C45.2571 61.468 44.5257 60.3312 44.5579 58.6929L42.4976 57.8221C41.7561 58.1863 41.1195 58.6319 40.4136 58.8115C39.4622 59.0537 38.5768 58.7234 37.864 58.0152C37.473 57.6272 37.1073 57.2121 36.6892 56.8546C35.174 55.5603 34.8269 53.6356 36.5334 51.9804L35.5837 49.6966H29.3757C27.9582 49.6966 26.5406 49.6966 25.1231 49.6966C24.1395 49.6966 23.5842 49.2324 23.5723 48.4157C23.5605 47.5686 24.109 47.101 25.14 47.0993C27.2562 47.0993 29.3723 47.0993 31.4868 47.0993H32.2435C32.2435 46.4216 32.2808 45.8083 32.2435 45.2035C32.1013 43.306 33.007 41.6084 35.5955 41.5406L36.5249 39.3245C35.8765 38.6909 35.3754 37.9692 35.3856 36.9696C35.3779 36.5988 35.4436 36.2302 35.579 35.8851C35.7144 35.5399 35.9168 35.225 36.1745 34.9585C36.7027 34.4107 37.2399 33.8709 37.7862 33.3389C39.0508 32.1055 40.6641 32.0885 41.9812 33.2847C42.0744 33.3694 42.1709 33.4541 42.269 33.5337L44.5173 32.5934C44.524 32.2833 44.5488 31.9739 44.5917 31.6667C44.8321 30.3808 45.7531 29.4456 47.0719 29.3117C48.0604 29.2089 49.0566 29.2027 50.0464 29.2931C51.4938 29.4303 52.4165 30.3909 52.6332 31.8344C52.6687 32.0631 52.6839 32.2969 52.7127 32.568L55.0083 33.5269C55.7058 32.7679 56.5743 32.302 57.717 32.3918V19.6004H2.57156V20.3323C2.57156 27.6807 2.57156 35.028 2.57156 42.3741C2.57156 43.4957 2.76794 44.5631 3.40279 45.5135C4.09858 46.5589 5.05339 47.1129 6.32817 47.1078C8.69827 47.0993 11.0684 47.0959 13.4385 47.1078C14.4542 47.1078 15.0789 47.9769 14.7285 48.863C14.6472 49.1077 14.4901 49.32 14.2801 49.4693C14.0701 49.6186 13.8179 49.697 13.5604 49.6932C10.894 49.7033 8.22594 49.7643 5.56297 49.6695C3.14546 49.5831 0.953121 47.4941 0.245477 44.8172C0.159137 44.4919 0.0761818 44.1649 0 43.838V5.84506C0.589139 2.93778 2.07892 0.811532 5.07879 0H55.2216C56.6115 0.338844 57.8034 1.00806 58.7226 2.13133C59.9601 3.64257 60.4155 5.40795 60.4155 7.32242C60.4155 16.0194 60.4116 24.713 60.4037 33.4033C60.4037 33.9725 60.5307 34.3961 60.9641 34.7891C61.3631 35.1286 61.6537 35.5778 61.8 36.0811C61.9463 36.5843 61.9417 37.1195 61.7868 37.6202C61.6175 38.2436 61.1672 38.7926 60.8202 39.4211C61.0843 40.0565 61.3822 40.7765 61.7039 41.5457C63.3189 41.522 64.4616 42.2488 64.9983 43.8329V47.5178C64.4007 49.0019 63.3477 49.8084 61.7056 49.7033L60.7744 51.9702C60.8642 52.0803 60.9437 52.1786 61.0233 52.2718C62.2473 53.661 62.2084 55.235 60.8913 56.5616C60.402 57.0563 59.9111 57.5527 59.4116 58.0389C59.1419 58.3072 58.8216 58.5193 58.4694 58.6629C58.1173 58.8066 57.7401 58.8789 57.3598 58.8759C56.3745 58.8894 55.6415 58.4032 55.0151 57.7492L52.7093 58.6997C52.8109 60.3346 52.0118 61.4002 50.5271 62.0051L46.8467 62.0017ZM57.6815 16.8524C57.7153 16.7779 57.7492 16.7423 57.7492 16.705C57.7492 13.2336 57.8271 9.75871 57.7204 6.29233C57.6493 3.9865 55.9784 2.57352 53.6709 2.57352H25.8696C19.3959 2.57352 12.9227 2.57352 6.45006 2.57352C5.39706 2.57352 4.49981 2.87679 3.79047 3.67307C2.91184 4.65572 2.58172 5.83659 2.57833 7.1225C2.56817 10.1721 2.57833 13.2217 2.57833 16.2713C2.57833 16.456 2.59864 16.6406 2.61219 16.8609L57.6815 16.8524ZM62.4217 44.2225C61.8325 44.2225 61.3907 44.2225 60.9488 44.2225C60.0228 44.209 59.6673 43.8837 59.3507 42.9942C58.9749 41.9472 58.5398 40.9154 58.0624 39.9091C57.6832 39.1094 57.695 38.6553 58.3045 38.0183C58.643 37.6591 59.0003 37.3084 59.2356 37.0695L57.221 34.7823C56.9203 35.203 56.5982 35.6078 56.256 35.9954C55.6686 36.5901 55.1675 36.5918 54.4209 36.2495C53.3713 35.7667 52.3013 35.3228 51.2145 34.9297C50.3968 34.6333 50.0531 34.2521 50.0294 33.3524C50.0294 32.8933 50.0294 32.4359 50.0294 31.9378H47.1515C47.1515 32.4833 47.1633 33.0017 47.1515 33.5202C47.1311 34.2826 46.7993 34.6553 46.1018 34.9247C44.9862 35.355 43.8807 35.8226 42.7888 36.3139C42.1522 36.5985 41.6156 36.5731 41.0958 36.0988C40.7996 35.8277 40.5389 35.5159 40.2308 35.2601C40.1072 35.1585 39.8143 35.0653 39.7449 35.1297C39.1151 35.704 38.5158 36.3156 37.7896 37.0323C38.2365 37.4084 38.5971 37.6727 38.912 37.9844C39.6179 38.6858 39.623 39.1179 39.193 40.0175C38.7342 40.9872 38.3278 41.9808 37.9758 42.9942C37.6778 43.8498 37.2986 44.2022 36.3658 44.2158C35.9087 44.2158 35.4499 44.2158 34.9658 44.2158V47.0959C35.5058 47.0959 35.9815 47.0959 36.4657 47.0959C37.3308 47.1078 37.6846 47.4348 37.9741 48.2582C38.336 49.2905 38.7525 50.3028 39.2218 51.2908C39.6416 52.165 39.623 52.6191 38.9272 53.3341C38.6089 53.6593 38.2974 53.988 38.0384 54.2591L40.1241 56.2922C40.3865 55.9974 40.6811 55.6382 41.0078 55.3112C41.6664 54.6505 42.1082 54.642 42.9394 55.0351C43.9467 55.5094 44.971 55.9381 46.0273 56.3159C46.8907 56.6276 47.2124 56.9936 47.2276 57.9373C47.2276 58.3947 47.2276 58.8521 47.2276 59.4248C47.7643 59.4248 48.1994 59.4248 48.6345 59.4248C50.2377 59.4129 50.0904 59.623 50.0988 57.9661C50.0988 56.9224 50.39 56.6107 51.3668 56.2837C52.3629 55.9451 53.3366 55.5439 54.2821 55.0825C55.2183 54.6234 55.6009 54.6301 56.3644 55.379C56.6877 55.6975 57.0145 56.0126 57.221 56.2142C57.9439 55.5044 58.5753 54.8775 59.3321 54.1439C58.9799 53.8305 58.5669 53.4984 58.1978 53.1274C57.7272 52.6547 57.6899 52.1227 57.9726 51.5026C58.4805 50.3709 58.9444 49.2171 59.3981 48.0616C59.6317 47.467 60.0059 47.1095 60.661 47.0993C61.0623 47.1138 61.4641 47.107 61.8647 47.079C62.056 47.0553 62.3726 46.8825 62.3861 46.7639C62.4301 45.9506 62.4081 45.1323 62.4081 44.2225H62.4217Z" fill="url(#paint0_linear_59_2267)"/>
<path d="M10.1152 33.3016C11.0904 34.3994 12.0316 35.4533 12.9661 36.5206C13.1416 36.7031 13.292 36.9082 13.4131 37.1305C13.5391 37.4014 13.5669 37.7078 13.4915 37.997C13.4161 38.2861 13.2423 38.5399 13 38.7146C12.5091 39.0755 11.7997 39.0874 11.3714 38.6231C10.0678 37.2085 8.78122 35.7752 7.54031 34.3046C7.0138 33.6794 7.09337 32.7916 7.65542 32.1411C8.8337 30.7857 10.0283 29.4422 11.2394 28.1105C11.3517 27.9771 11.4899 27.8678 11.6455 27.7892C11.8012 27.7106 11.9712 27.6644 12.1452 27.6533C12.3192 27.6422 12.4936 27.6665 12.658 27.7247C12.8223 27.7829 12.9732 27.8738 13.1016 27.9919C13.6416 28.4832 13.6839 29.2626 13.1574 29.8691C12.1806 30.9975 11.1733 32.1106 10.1152 33.3016Z" fill="url(#paint1_linear_59_2267)"/>
<path d="M28.5919 33.2999C27.5761 32.1461 26.5959 31.0568 25.6326 29.9589C25.0181 29.2575 25.0096 28.529 25.592 27.9919C26.1744 27.4548 26.9717 27.548 27.5947 28.2393C28.7121 29.4817 29.8232 30.7309 30.9281 31.9869C31.6933 32.8577 31.7018 33.7251 30.9383 34.6028C29.8097 35.8949 28.6714 37.1763 27.5236 38.4469C26.9582 39.0721 26.1693 39.1246 25.6055 38.6299C25.0418 38.1352 25.0164 37.3525 25.5717 36.7053C26.0677 36.1276 26.5874 35.5685 27.0953 34.9975C27.6032 34.4266 28.0688 33.8929 28.5919 33.2999Z" fill="url(#paint2_linear_59_2267)"/>
<path d="M18.0957 39.9158C17.2272 39.9158 16.6263 39.1704 16.8345 38.2775C17.5337 35.2804 18.2532 32.2868 18.9642 29.2981C19.0861 28.7899 19.191 28.2681 19.3332 27.7615C19.5499 26.9821 20.2136 26.545 20.8924 26.7094C21.6441 26.8907 22.0572 27.5362 21.8642 28.3612C21.0425 31.8717 20.2068 35.3787 19.3569 38.8823C19.191 39.56 18.7119 39.9124 18.0957 39.9158Z" fill="url(#paint3_linear_59_2267)"/>
<path d="M19.191 47.1027C19.3653 47.0968 19.5389 47.126 19.7016 47.1885C19.8643 47.251 20.0128 47.3456 20.1384 47.4666C20.2639 47.5877 20.3638 47.7327 20.4323 47.8931C20.5008 48.0535 20.5363 48.2261 20.5369 48.4005C20.5287 48.7422 20.3888 49.0675 20.1465 49.3084C19.9042 49.5493 19.5782 49.6872 19.2368 49.6932C18.8852 49.6955 18.5469 49.5592 18.2951 49.3138C18.0432 49.0684 17.898 48.7336 17.8909 48.3819C17.8949 48.04 18.0339 47.7137 18.2775 47.474C18.521 47.2344 18.8495 47.1009 19.191 47.1027Z" fill="url(#paint4_linear_59_2267)"/>
<path d="M43.7741 14.1213C41.9118 14.1213 40.0496 14.1298 38.1874 14.1213C35.7123 14.1095 33.7706 12.2306 33.7519 9.84681C33.7333 7.42238 35.6599 5.47742 38.1535 5.46217C41.878 5.44184 45.6024 5.44184 49.3269 5.46217C51.8493 5.47233 53.7488 7.36308 53.742 9.80784C53.7353 12.2526 51.8358 14.1095 49.2964 14.1196C47.4545 14.1281 45.6143 14.1213 43.7741 14.1213ZM43.7334 8.11701C41.9372 8.11701 40.1394 8.10176 38.3415 8.12718C37.9448 8.1241 37.5525 8.21038 37.1937 8.37962C36.5165 8.74048 36.2422 9.53507 36.4572 10.2958C36.6722 11.0565 37.3308 11.5139 38.3195 11.5173C41.931 11.5252 45.5466 11.5252 49.166 11.5173C49.5053 11.5112 49.8402 11.4405 50.153 11.3089C50.4836 11.1611 50.757 10.9095 50.9318 10.5921C51.1066 10.2747 51.1731 9.90897 51.1214 9.55032C50.9792 8.72354 50.3629 8.13395 49.5063 8.12209C47.5832 8.10007 45.6583 8.11701 43.7334 8.11701Z" fill="url(#paint5_linear_59_2267)"/>
<path d="M27.3188 9.83664C27.3107 10.9798 26.8496 12.073 26.0366 12.876C25.2237 13.6791 24.1255 14.1264 22.9832 14.1196C21.8409 14.1046 20.75 13.6423 19.9443 12.8319C19.1386 12.0214 18.6822 10.9273 18.673 9.78412C18.6901 8.641 19.1522 7.54965 19.9609 6.7422C20.7696 5.93475 21.8612 5.47491 23.0035 5.46047C23.5746 5.46201 24.1398 5.57667 24.6664 5.79785C25.193 6.01903 25.6707 6.34235 26.0718 6.74916C26.473 7.15598 26.7897 7.63825 27.0037 8.16815C27.2177 8.69806 27.3248 9.26512 27.3188 9.83664ZM21.3292 9.76379C21.3224 9.98639 21.36 10.2081 21.4397 10.4161C21.5194 10.624 21.6396 10.814 21.7934 10.975C21.9472 11.1359 22.1314 11.2647 22.3354 11.3537C22.5394 11.4428 22.759 11.4903 22.9815 11.4936C23.4309 11.4957 23.8636 11.323 24.1883 11.012C24.513 10.701 24.7043 10.2759 24.7218 9.82648C24.7238 9.60399 24.682 9.38328 24.5988 9.17696C24.5156 8.97063 24.3926 8.78274 24.2368 8.624C24.081 8.46525 23.8955 8.33878 23.6909 8.25179C23.4862 8.1648 23.2665 8.119 23.0441 8.11701C22.822 8.10642 22.6 8.14124 22.3917 8.21935C22.1835 8.29746 21.9933 8.41722 21.8328 8.57133C21.6723 8.72543 21.5449 8.91065 21.4583 9.11567C21.3717 9.32069 21.3278 9.54121 21.3292 9.76379Z" fill="url(#paint6_linear_59_2267)"/>
<path d="M7.57416 9.81971C7.56422 8.67618 8.00736 7.57529 8.80659 6.75798C9.60583 5.94067 10.696 5.47352 11.8386 5.45878C12.992 5.45653 14.0991 5.91231 14.917 6.72608C15.735 7.53986 16.1968 8.64515 16.2013 9.79937C16.1973 10.9442 15.741 12.041 14.9319 12.8504C14.1228 13.6598 13.0267 14.1161 11.8827 14.1196C11.3176 14.1205 10.7579 14.01 10.2356 13.7944C9.7132 13.5787 9.2384 13.2622 8.8383 12.8629C8.4382 12.4636 8.12062 11.9893 7.90372 11.4672C7.68681 10.945 7.57483 10.3852 7.57416 9.81971ZM11.8827 8.11532C11.6602 8.11171 11.4393 8.15251 11.2328 8.23531C11.0263 8.31812 10.8384 8.44127 10.68 8.59758C10.5216 8.7539 10.3959 8.94023 10.3103 9.1457C10.2247 9.35118 10.1808 9.57166 10.1813 9.79429C10.1869 10.2427 10.3668 10.6712 10.6829 10.989C10.9989 11.3069 11.4262 11.4891 11.8742 11.497C12.3222 11.4939 12.751 11.3144 13.0678 10.9973C13.3847 10.6803 13.564 10.2511 13.5671 9.80276C13.5713 9.58017 13.5305 9.35903 13.4474 9.15254C13.3642 8.94606 13.2403 8.75846 13.0831 8.60096C12.9258 8.44346 12.7385 8.31928 12.5323 8.23584C12.326 8.1524 12.1051 8.11141 11.8827 8.11532Z" fill="url(#paint7_linear_59_2267)"/>
<path d="M48.6751 37.7997C50.7597 37.8109 52.7547 38.6492 54.2225 40.1305C55.6904 41.6119 56.5112 43.6154 56.5049 45.7016C56.4829 49.9812 52.9125 53.5086 48.6175 53.495C46.5434 53.4746 44.5604 52.6395 43.0958 51.1697C41.6312 49.6998 40.8023 47.7129 40.7877 45.6372C40.798 43.5521 41.6341 41.5561 43.1126 40.0869C44.5912 38.6177 46.5915 37.7952 48.6751 37.7997ZM53.8673 45.6287C53.8687 44.9392 53.733 44.2562 53.4682 43.6196C53.2034 42.9831 52.8147 42.4055 52.3247 41.9207C51.8347 41.4359 51.2533 41.0534 50.6142 40.7956C49.9752 40.5378 49.2913 40.4098 48.6023 40.419C47.2228 40.4275 45.9031 40.9836 44.9331 41.9652C43.963 42.9468 43.4219 44.2736 43.4287 45.6542C43.4282 46.343 43.5643 47.0251 43.8292 47.661C44.094 48.2968 44.4823 48.8737 44.9715 49.3583C45.4608 49.8429 46.0412 50.2255 46.6793 50.4839C47.3174 50.7424 48.0003 50.8715 48.6886 50.8639C49.3724 50.8614 50.049 50.724 50.6797 50.4594C51.3103 50.1948 51.8825 49.8082 52.3636 49.3219C52.8447 48.8356 53.2252 48.259 53.4832 47.6253C53.7412 46.9915 53.8717 46.3131 53.8673 45.6287Z" fill="url(#paint8_linear_59_2267)"/>
<defs>
<linearGradient id="paint0_linear_59_2267" x1="-8" y1="1.5" x2="64" y2="60" gradientUnits="userSpaceOnUse">
<stop stop-color="#762E78"/>
<stop offset="1" stop-color="#4B4FB4"/>
</linearGradient>
<linearGradient id="paint1_linear_59_2267" x1="-8" y1="1.5" x2="64" y2="60" gradientUnits="userSpaceOnUse">
<stop stop-color="#762E78"/>
<stop offset="1" stop-color="#4B4FB4"/>
</linearGradient>
<linearGradient id="paint2_linear_59_2267" x1="-8" y1="1.5" x2="64" y2="60" gradientUnits="userSpaceOnUse">
<stop stop-color="#762E78"/>
<stop offset="1" stop-color="#4B4FB4"/>
</linearGradient>
<linearGradient id="paint3_linear_59_2267" x1="-8" y1="1.5" x2="64" y2="60" gradientUnits="userSpaceOnUse">
<stop stop-color="#762E78"/>
<stop offset="1" stop-color="#4B4FB4"/>
</linearGradient>
<linearGradient id="paint4_linear_59_2267" x1="-8" y1="1.5" x2="64" y2="60" gradientUnits="userSpaceOnUse">
<stop stop-color="#762E78"/>
<stop offset="1" stop-color="#4B4FB4"/>
</linearGradient>
<linearGradient id="paint5_linear_59_2267" x1="-8" y1="1.5" x2="64" y2="60" gradientUnits="userSpaceOnUse">
<stop stop-color="#762E78"/>
<stop offset="1" stop-color="#4B4FB4"/>
</linearGradient>
<linearGradient id="paint6_linear_59_2267" x1="-8" y1="1.5" x2="64" y2="60" gradientUnits="userSpaceOnUse">
<stop stop-color="#762E78"/>
<stop offset="1" stop-color="#4B4FB4"/>
</linearGradient>
<linearGradient id="paint7_linear_59_2267" x1="-8" y1="1.5" x2="64" y2="60" gradientUnits="userSpaceOnUse">
<stop stop-color="#762E78"/>
<stop offset="1" stop-color="#4B4FB4"/>
</linearGradient>
<linearGradient id="paint8_linear_59_2267" x1="-8" y1="1.5" x2="64" y2="60" gradientUnits="userSpaceOnUse">
<stop stop-color="#762E78"/>
<stop offset="1" stop-color="#4B4FB4"/>
</linearGradient>
</defs>
</svg>
