<svg width="1882" height="99" viewBox="0 0 1882 99" fill="none" xmlns="http://www.w3.org/2000/svg">
<g clip-path="url(#clip0_101_116)">
<path opacity="0.4" d="M94.4809 24.7067V23.7067H93.4809H33.6602H32.6602V24.7067V73.9455V74.9455H33.6602H93.6554H94.6554V73.9455V62.0705H126.315V97.8264H1V1H126.141V31.7101H94.4809V24.7067Z" stroke="#999999" stroke-width="2"/>
<path opacity="0.4" d="M322.125 23.7067H214.122V1H354.785V97.8264H214.122V42.9315H245.782V73.9455V74.9455H246.782H322.125H323.125V73.9455V24.7067V23.7067H322.125Z" stroke="#999999" stroke-width="2"/>
<path opacity="0.4" d="M497.962 52.8761L545.975 1H570.698V97.8264H541.131V43.3237V40.727L539.39 42.653L496.708 89.8503L454.371 42.656L452.627 40.7114V43.3237V97.8264H423.06V1H447.614L496.5 52.8826L497.234 53.662L497.962 52.8761Z" stroke="#999999" stroke-width="2"/>
<path opacity="0.4" d="M732.104 24.7065V23.7065H731.104H638.972V0.999733L736.162 0.99981L736.174 0.999656C739.753 0.955299 743.306 1.61483 746.63 2.94044C749.954 4.26604 752.983 6.23204 755.545 8.72555C758.107 11.219 760.151 14.1913 761.562 17.4728C762.971 20.7524 763.719 24.2765 763.764 27.8443V37.0447C763.654 40.6621 762.826 44.2218 761.327 47.5179C759.826 50.8185 757.683 53.7888 755.022 56.2564C752.36 58.724 749.234 60.64 745.824 61.8922C742.414 63.1445 738.789 63.7084 735.158 63.5511L735.137 63.5502H735.115H671.632H670.632V64.5502V98.3481H638.972V42.4093H731.104H732.104V41.4093V24.7065Z" stroke="#999999" stroke-width="2"/>
<path opacity="0.4" d="M888.902 30.5909L888.605 30.1442H888.069H855.039L874.482 0.478027H900.956L964.18 97.3039H930.127L911.76 68.3643L911.465 67.9002H910.916H861.734H861.164L860.873 68.39L843.723 97.3039H811.252L843.79 47.1071H898.01H899.875L898.843 45.5537L888.902 30.5909Z" stroke="#999999" stroke-width="2"/>
<path opacity="0.4" d="M1126.78 24.7065V23.7065H1125.78H1061.25H1060.25V24.7065V37.2338V38.2338H1061.25H1156V97.8262H1030.68V74.9453H1125.43H1126.43V73.9453V59.3302V58.3302H1125.43H1030.68V0.999756H1156V28.926H1126.78V24.7065Z" stroke="#999999" stroke-width="2"/>
<path opacity="0.4" d="M1421.53 24.7067V23.7067H1420.53H1328.39V0.999977L1425.58 1.00005L1425.6 0.9999C1429.18 0.955543 1432.73 1.61508 1436.05 2.94069C1439.38 4.26628 1442.41 6.23228 1444.97 8.7258C1447.53 11.2193 1449.57 14.1915 1450.98 17.473C1452.39 20.7526 1453.14 24.2767 1453.19 27.8445V37.0447C1453.08 40.6622 1452.25 44.222 1450.75 47.5181C1449.25 50.8187 1447.11 53.789 1444.44 56.2566C1441.78 58.7243 1438.66 60.6402 1435.25 61.8924C1431.84 63.1447 1428.21 63.7087 1424.58 63.5514L1424.56 63.5504H1424.54H1361.05H1360.05V64.5504V98.3483H1328.39V42.4095H1420.53H1421.53V41.4095V24.7067Z" stroke="#999999" stroke-width="2"/>
<path opacity="0.4" d="M1614.94 24.738L1614.97 23.7067H1613.94H1521.81V0.999977L1619.35 1.00005L1619.36 0.9999C1622.94 0.955543 1626.49 1.61508 1629.82 2.94069C1633.14 4.26628 1636.17 6.23228 1638.73 8.7258C1641.29 11.2193 1643.34 14.1915 1644.75 17.473C1646.16 20.7526 1646.9 24.2767 1646.95 27.8445V37.0447C1646.84 40.6622 1646.01 44.222 1644.51 47.5181C1643.01 50.8187 1640.87 53.789 1638.21 56.2566C1635.55 58.7243 1632.42 60.6402 1629.01 61.8924C1625.6 63.1447 1621.97 63.7087 1618.34 63.5514L1614.89 63.4016L1617.73 65.3725L1665.33 98.3483H1616.56L1572.88 63.7664L1572.61 63.5504H1572.26H1553.95H1552.95V64.5504V98.3483H1521.29V42.4095H1613.42H1614.39L1614.42 41.4409L1614.94 24.738Z" stroke="#999999" stroke-width="2"/>
<path opacity="0.4" d="M1848.16 23.7065H1740.16V0.999756H1880.83V97.8262H1740.16V42.9313H1771.82V73.9453V74.9453H1772.82H1848.16H1849.16V73.9453V24.7065V23.7065H1848.16Z" stroke="#999999" stroke-width="2"/>
</g>
<defs>
<clipPath id="clip0_101_116">
<rect width="1882" height="99" fill="white"/>
</clipPath>
</defs>
</svg>
