<svg width="86" height="99" viewBox="0 0 86 99" fill="none" xmlns="http://www.w3.org/2000/svg">
<path d="M83.6289 23.0841L45.4506 1.03124C44.8182 0.634606 43.9488 0.475952 43.0002 0.475952C42.0517 0.475952 41.1822 0.713933 40.5499 1.03124L2.60869 23.1635C1.26494 23.9567 0.316406 25.9399 0.316406 27.4471V71.6322C0.316406 72.5048 0.474494 73.536 1.10685 74.4086L85.526 25.226C85.0517 24.274 84.3403 23.5601 83.6289 23.0841Z" fill="#9B4F96"/>
<path d="M0.870117 74.3293C1.26534 74.9639 1.81865 75.5192 2.37196 75.8365L40.4712 97.9687C41.1036 98.3654 41.9731 98.524 42.9216 98.524C43.8701 98.524 44.7396 98.286 45.372 97.9687L83.3131 75.8365C84.6569 75.0432 85.6054 73.0601 85.6054 71.5529V27.3678C85.6054 26.6538 85.5264 25.8605 85.1311 25.1466L0.870117 74.3293Z" fill="#68217A"/>
<path d="M59.8362 59.0986C56.5163 64.9688 50.1928 68.9351 42.9998 68.9351C32.3288 68.9351 23.634 60.2092 23.634 49.5C23.634 38.7909 32.3288 30.0649 42.9998 30.0649C50.1928 30.0649 56.5163 34.0313 59.8362 39.9808L70.1119 34.0313C64.7369 24.5914 54.6193 18.1659 42.9998 18.1659C25.7682 18.1659 11.7773 32.2068 11.7773 49.5C11.7773 66.7933 25.7682 80.8342 42.9998 80.8342C54.5402 80.8342 64.6579 74.488 70.0329 65.1274L59.8362 59.0986ZM69.0843 51.2452L69.7957 47.8342H66.4759V44.1058H70.5071L71.4557 39.1875H75.3288L74.3803 44.0265H77.384L78.3325 39.1875H82.1266L81.1781 44.0265H83.0751V47.7548H80.4667L79.7553 51.1659H83.0751V54.8943H79.0439L78.0954 59.6539H74.2222L75.1707 54.8943H72.167L71.2185 59.6539H67.4244L68.3729 54.8943H66.4759V51.1659H69.0843V51.2452ZM72.8784 51.2452H75.8821L76.5935 47.8342H73.5898L72.8784 51.2452Z" fill="white"/>
</svg>
