<svg width="134" height="54" viewBox="0 0 134 54" fill="none" xmlns="http://www.w3.org/2000/svg">
<path d="M0 0.200012V3.86826H26.0881V0.200012H0ZM29.7731 0.200012V3.86826H66.9414C66.9414 3.86826 63.1433 0.200012 58.1183 0.200012H29.7731ZM74.236 0.200012V3.86826H96.7229L95.3829 0.200012H74.236ZM112.845 0.200012L111.505 3.86826H133.782V0.200012H112.845ZM0 7.33133V10.9996H26.0881V7.33133H0ZM29.7731 7.33551V10.9996H71.2545C71.2545 10.9996 70.7687 8.1772 69.9271 7.33551H29.7731ZM74.236 7.33551V10.9996H99.1935L97.9582 7.33551H74.236ZM110.177 7.33551L108.942 10.9996H133.795V7.33551H110.177ZM7.5375 14.4626V18.1351H18.8312V14.4626H7.5375ZM37.3106 14.4626V18.1351H48.575V14.4626H37.3106ZM59.5881 14.4626V18.1351H70.886C70.886 18.1351 71.5979 16.1963 71.5979 14.4626H59.5881ZM81.7651 14.4626V18.1351H101.756L100.416 14.4626H81.7651ZM107.749 14.4626L106.409 18.1351H126.463V14.4626H107.749ZM7.5375 21.5981V25.2664H18.8312V21.5981H7.5375ZM37.3106 21.5981V25.2664H66.2044C66.2044 25.2664 68.6164 23.382 69.3869 21.5981H37.3106ZM81.7735 21.5981V25.2664H93.0672V23.2313L93.7791 25.2706H114.465L115.236 23.2313V25.2706H126.463V21.6023H105.257L104.126 24.7094L102.996 21.6023L81.7735 21.5981ZM7.5375 28.7336V32.4019H18.8312V28.7336H7.5375ZM37.3106 28.7336V32.4019H69.345C68.5745 30.6222 66.1625 28.7336 66.1625 28.7336H37.3106ZM81.7735 28.7336V32.4019H93.0672V28.7336H81.7735ZM95.1232 28.7336L96.4884 32.4019H112.003L113.259 28.7336H95.1232ZM115.248 28.7336V32.4019H126.463V28.7336H115.248ZM7.5375 35.865V39.5332H18.8312V35.865H7.5375ZM37.3106 35.865V39.5332H48.575V35.865H37.3106ZM59.5881 35.865V39.5332H71.6063C71.6063 37.8038 70.8944 35.865 70.8944 35.865H59.5881ZM81.7651 35.865V39.5332H93.0588V35.865H81.7651ZM97.6776 35.865L99.0009 39.5332H109.403L110.743 35.865H97.6776ZM115.24 35.865V39.5332H126.463V35.865H115.24ZM0.209375 42.9963V46.6687H26.2975V42.9963H0.209375ZM29.7857 42.9963V46.6687H69.9438C70.7897 45.8312 71.2713 42.9963 71.2713 42.9963H29.7857ZM74.4496 42.9963V46.6687H93.0421V42.9963H74.4496ZM100.224 42.9963L101.585 46.6687H106.878L108.155 42.9963H100.224ZM115.215 42.9963V46.6687H134V42.9963H115.215ZM0.209375 50.1318V53.8H26.2975V50.1318H0.209375ZM29.7857 50.1318V53.7958H58.1351C63.1601 53.7958 66.9623 50.1318 66.9623 50.1318H29.7857ZM74.4496 50.1318V53.8H93.0421V50.1318H74.4496ZM102.799 50.1318L104.11 53.7874L104.336 53.7916L105.667 50.1276L102.799 50.1318ZM115.211 50.1318V53.8H134V50.1318H115.211Z" fill="#1F70C1"/>
</svg>
