<svg width="164" height="41" viewBox="0 0 164 41" fill="none" xmlns="http://www.w3.org/2000/svg">
<path d="M6.44275 0.351807V33.799H18.5447V39.5597H0V0.351807H6.44275ZM41.2684 16.9811V13.455H47.3919V39.5742H41.2974V36.0336C40.4558 37.3396 39.295 38.3554 37.7859 39.0809C36.2767 39.85 34.7386 40.2127 33.215 40.2127C31.227 40.2127 29.4132 39.85 27.7735 39.1244C26.1707 38.4297 24.7283 37.4122 23.5364 36.1352C22.3546 34.8682 21.4196 33.3919 20.7793 31.782C20.1199 30.0999 19.7899 28.3068 19.8071 26.5001C19.8071 24.6718 20.1409 22.916 20.7938 21.2762C21.4265 19.6451 22.3619 18.1484 23.5509 16.865C24.7319 15.5811 26.1642 14.5538 27.759 13.8468C29.4132 13.1212 31.2415 12.7585 33.2005 12.7585C34.7241 12.7585 36.2477 13.1357 37.7568 13.8758C39.2659 14.6303 40.4268 15.6461 41.2394 16.9521L41.2684 16.9811ZM40.717 29.707C41.0993 28.686 41.2959 27.6048 41.2974 26.5146C41.2974 25.3828 41.0943 24.338 40.717 23.3223C40.3695 22.3449 39.8375 21.4434 39.1499 20.6668C38.4637 19.9197 37.6348 19.3177 36.7121 18.8965C35.7199 18.4413 34.6403 18.2085 33.5487 18.2145C32.3879 18.2145 31.3431 18.4612 30.4144 18.911C29.5047 19.3336 28.6864 19.93 28.0056 20.6668C27.3197 21.4396 26.7966 22.3428 26.4675 23.3223C26.1076 24.3479 25.926 25.4276 25.9306 26.5146C25.9306 27.6319 26.1047 28.6912 26.4675 29.707C26.8158 30.7227 27.3382 31.5934 28.0056 32.3189C28.6805 33.0771 29.4993 33.6937 30.4144 34.1327C31.3431 34.5681 32.3879 34.8002 33.5487 34.8002C34.7096 34.8002 35.7689 34.5826 36.7121 34.1327C37.6376 33.7033 38.4667 33.0912 39.1499 32.3334C39.8328 31.5697 40.3646 30.6834 40.717 29.7215V29.707ZM52.2095 39.5742V13.455H68.7807V19.4624H58.304V39.5597H52.2095V39.5742ZM90.9095 16.9811V13.455H97.004V39.5742H90.9095V36.0336C90.0969 37.3396 88.9216 38.3554 87.427 39.0809C85.9033 39.85 84.3797 40.2127 82.8416 40.2127C80.8536 40.2127 79.0398 39.85 77.4001 39.1244C75.7973 38.4297 74.3549 37.4122 73.1629 36.1352C71.9812 34.8682 71.0462 33.3919 70.4059 31.782C69.7515 30.0989 69.4264 28.3058 69.4482 26.5001C69.4482 24.6718 69.7674 22.916 70.4204 21.2762C71.053 19.6451 71.9885 18.1484 73.1775 16.865C74.3585 15.5811 75.7908 14.5538 77.3856 13.8468C79.0398 13.1212 80.8681 12.7585 82.8271 12.7585C84.3507 12.7585 85.8743 13.1357 87.3834 13.8758C88.8925 14.6303 90.0679 15.6461 90.866 16.9521L90.9095 16.9811ZM90.3581 29.707C90.7305 28.6842 90.9172 27.6031 90.9095 26.5146C90.9095 25.3828 90.7209 24.338 90.3581 23.3223C90.015 22.346 89.4879 21.4446 88.8055 20.6668C88.1108 19.9165 87.2718 19.3144 86.3387 18.8965C85.3955 18.4612 84.3362 18.2145 83.1898 18.2145C82.029 18.2145 80.9842 18.4612 80.041 18.911C79.1313 19.3336 78.313 19.93 77.6322 20.6668C76.9463 21.4396 76.4232 22.3428 76.0941 23.3223C75.7391 24.3488 75.5624 25.4285 75.5717 26.5146C75.5717 27.6319 75.7458 28.6912 76.0941 29.707C76.4569 30.7227 76.9647 31.5934 77.6322 32.3189C78.3071 33.0771 79.1259 33.6937 80.041 34.1327C80.9842 34.5681 82.029 34.8002 83.1898 34.8002C84.3507 34.8002 85.3955 34.5826 86.3532 34.1327C87.289 33.7066 88.1284 33.0944 88.82 32.3334C89.4977 31.5685 90.0245 30.6823 90.3726 29.7215L90.3581 29.707ZM121.498 13.455H127.694L117.682 39.5742H109.991L99.9787 13.455H106.146L113.836 33.4507L121.498 13.4695V13.455ZM141 12.7875C149.315 12.7875 154.989 20.1589 153.915 28.7783H133.644C133.644 31.0129 135.936 35.3661 141.334 35.3661C145.978 35.3661 149.097 31.3031 149.097 31.3031L153.218 34.4955C149.518 38.4134 146.5 40.2272 141.755 40.2272C133.31 40.2272 127.593 34.8583 127.593 26.4856C127.593 18.8965 133.513 12.7585 140.986 12.7585L141 12.7875ZM133.673 24.2509H148.328C148.27 23.7431 147.458 17.6341 140.957 17.6341C134.427 17.6341 133.731 23.7576 133.673 24.2509ZM157.905 39.5307V0.351807H164V39.5597H157.905V39.5307Z" fill="#FF2D20"/>
</svg>
