<svg width="120" height="39" viewBox="0 0 120 39" fill="none" xmlns="http://www.w3.org/2000/svg">
<g clip-path="url(#clip0_59_2223)">
<path d="M6.9633 1.8516H2.50732V5.51593H6.9763V4.54481H9.4836V7.35459H0V0H9.47062V2.43425H6.9633V1.8516Z" fill="white"/>
<path d="M21.0713 1.8516V0H31.6981V7.35459H21.0713V3.1205H23.5786V5.51593H29.1908V1.8516H21.0713Z" fill="white"/>
<path d="M48.6911 6.79783L45.4823 3.22411V7.35459H43.1309V0H45.0665L48.7301 3.88448L52.3286 0H54.2773V7.35459H51.9259V3.22411L48.6911 6.79783Z" fill="white"/>
<path d="M72.6473 1.85152H65.71V-8.38144e-05H73.024C73.3015 -0.00350338 73.5769 0.0478094 73.8344 0.150882C74.0919 0.253955 74.3264 0.406752 74.5244 0.600501C74.7224 0.794251 74.88 1.02512 74.9882 1.27982C75.0964 1.53452 75.1529 1.80801 75.1546 2.08458V2.75787C75.1462 3.0379 75.0823 3.31352 74.9666 3.56883C74.8509 3.82414 74.6856 4.05411 74.4803 4.24548C74.275 4.43685 74.0338 4.58583 73.7705 4.68386C73.5072 4.78189 73.227 4.82704 72.9461 4.81667H68.2173V7.40631H65.71V3.01685H72.6473V1.85152Z" fill="white"/>
<path d="M92.1335 2.35656H89.5352L91.0812 0H93.1338L97.9405 7.35459H95.2254L93.8353 5.16634H90.1718L88.8727 7.35459H86.2744L88.7947 3.47013H92.874L92.1335 2.35656Z" fill="white"/>
<path d="M117.636 1.8516H112.829V2.78388H119.961V7.35459H110.478V5.51593H117.61V4.42828H110.478V0H119.961V2.24003H117.636V1.8516Z" fill="white"/>
<path d="M72.6473 24.4849H65.71V22.6333H73.024C73.5834 22.6299 74.1215 22.8472 74.5207 23.2378C74.9198 23.6283 75.1477 24.1605 75.1546 24.718V25.4043C75.1463 25.6837 75.0823 25.9588 74.9664 26.2134C74.8505 26.468 74.685 26.6971 74.4796 26.8875C74.2741 27.0778 74.0327 27.2255 73.7695 27.3221C73.5062 27.4187 73.2263 27.4622 72.9461 27.4501H68.2173V30.0397H65.71V25.6762H72.6473V24.4849Z" fill="white"/>
<path d="M93.5501 24.4849H86.6128V22.6333H93.9269C94.4862 22.6299 95.0243 22.8472 95.4235 23.2378C95.8227 23.6283 96.0506 24.1605 96.0574 24.718V25.4043C96.0491 25.6837 95.9851 25.9588 95.8692 26.2134C95.7534 26.468 95.5879 26.6971 95.3824 26.8875C95.1769 27.0778 94.9356 27.2255 94.6723 27.3221C94.4091 27.4187 94.1292 27.4622 93.8489 27.4501L97.5904 30.0397H93.693L90.4192 27.4501H89.0551V30.0397H86.5479V25.6762H93.4852L93.5501 24.4849Z" fill="white"/>
<path d="M109.373 24.4851V22.6335H120V30.0011H109.373V25.7541H111.88V28.1495H117.493V24.4851H109.373Z" fill="white"/>
<path d="M55.9922 39.0001H120V34.9602H117.402V36.4104H58.5904V16.2242H117.402V17.4154H120V13.6345H55.9922V39.0001Z" fill="white"/>
</g>
<defs>
<clipPath id="clip0_59_2223">
<rect width="120" height="39" fill="white"/>
</clipPath>
</defs>
</svg>
