<svg width="224" height="335" viewBox="0 0 224 335" fill="none" xmlns="http://www.w3.org/2000/svg">
<g clip-path="url(#clip0_59_2209)">
<path d="M56.3579 74.1032H44.0766V84.0942H56.3937V81.4464H63.3042V89.1074H37.166V69.0547H63.2683V75.6918H56.3579V74.1032Z" fill="white"/>
<path d="M95.2432 74.1032V69.0547H124.711V89.1074H95.4223V77.5629H102.333V84.0942H117.55V74.1032H95.2432Z" fill="white"/>
<path d="M171.258 87.5894L162.414 77.8454V89.1074H155.934V69.0547H161.304L171.402 79.646L181.32 69.0547H186.691V89.1074H180.174V77.8454L171.258 87.5894Z" fill="white"/>
<path d="M56.2863 162.716H37.166V157.668H57.2889C58.0566 157.654 58.8194 157.79 59.5333 158.069C60.2471 158.348 60.8977 158.764 61.4473 159.293C61.9968 159.821 62.4345 160.452 62.7348 161.149C63.0351 161.846 63.1922 162.595 63.1968 163.352V165.188C63.1691 165.953 62.9886 166.705 62.6658 167.401C62.343 168.098 61.8842 168.724 61.3156 169.246C60.7469 169.767 60.0796 170.173 59.3518 170.44C58.624 170.706 57.8499 170.829 57.0739 170.801H44.0766V177.862H37.166V166.105H56.2863V162.716Z" fill="white"/>
<path d="M109.995 164.093H102.834L107.095 157.668H112.788L126.036 177.72H118.517L114.722 171.754H104.625L100.865 177.72H93.8828L100.829 167.129H112.036L109.995 164.093Z" fill="white"/>
<path d="M180.246 162.716H167.105V165.258H186.798V177.72H160.517V172.601H180.174V169.636H160.517V157.562H186.691V163.669H180.138L180.246 162.716Z" fill="white"/>
<path d="M56.2863 251.329H37.166V246.281H57.2889C58.0566 246.267 58.8194 246.403 59.5333 246.682C60.2471 246.961 60.8977 247.377 61.4473 247.906C61.9968 248.435 62.4345 249.066 62.7348 249.762C63.0351 250.459 63.1922 251.208 63.1968 251.965V253.801C63.1691 254.566 62.9886 255.318 62.6658 256.015C62.343 256.711 61.8842 257.338 61.3156 257.859C60.7469 258.38 60.0796 258.786 59.3518 259.053C58.624 259.32 57.8499 259.442 57.0739 259.414H44.0766V266.475H37.166V254.719H56.2863V251.329Z" fill="white"/>
<path d="M113.969 251.329H94.8848V246.281H115.008C115.775 246.267 116.538 246.403 117.252 246.682C117.966 246.961 118.616 247.377 119.166 247.906C119.716 248.435 120.153 249.066 120.453 249.762C120.754 250.459 120.911 251.208 120.915 251.965V253.801C120.888 254.566 120.707 255.318 120.384 256.015C120.062 256.711 119.603 257.338 119.034 257.859C118.466 258.38 117.798 258.786 117.07 259.053C116.343 259.32 115.569 259.442 114.793 259.414L125.105 266.475H114.542L105.519 259.414H101.938V266.475H95.0279V254.719H113.969V251.329Z" fill="white"/>
<path d="M157.509 251.329V246.281H186.798V266.334H157.509V254.789H164.419V261.321H179.851V251.329H157.509Z" fill="white"/>
<path d="M223.964 335H0V0H223.964V335ZM7.16112 327.939H216.803V7.06081H7.16112V327.939Z" fill="white"/>
</g>
<defs>
<clipPath id="clip0_59_2209">
<rect width="224" height="335" fill="white"/>
</clipPath>
</defs>
</svg>
