<svg width="184" height="96" viewBox="0 0 184 96" fill="none" xmlns="http://www.w3.org/2000/svg">
<path d="M0.938969 86.8602H6.97259V63.0327L16.3138 83.8052C17.4154 86.3197 18.9238 87.2083 21.8833 87.2083C24.8429 87.2083 26.294 86.3197 27.3956 83.8052L36.7368 63.0327V86.8602H42.7704V63.0723C42.7704 60.7517 41.8422 59.6281 39.9269 59.0494C35.343 57.6189 32.2674 58.857 30.875 61.9517L21.7086 82.4525L12.8329 61.9502C11.4978 58.857 8.36497 57.6189 3.781 59.048C1.86575 59.6281 0.9375 60.7502 0.9375 63.0709V86.8602H0.938969ZM47.7892 67.4639H53.8213V80.5916C53.7655 81.3039 54.0504 82.9783 57.3551 83.0312C59.0412 83.0576 70.3712 83.0312 70.4769 83.0312V67.3993H76.5238C76.5517 67.3993 76.5179 88.7167 76.5179 88.8048C76.5502 94.063 69.9952 95.2042 66.9725 95.2923H47.9199V91.2327C47.9522 91.2327 66.9593 91.2371 67.0063 91.2312C70.8911 90.8214 70.4314 88.8915 70.4299 88.2423V86.659H57.6063C51.6402 86.6046 47.8391 84.0006 47.7906 81.0043C47.7877 80.7297 47.9213 67.5961 47.7892 67.4639Z" fill="#00618A"/>
<path d="M81.1758 86.8602H98.5247C100.556 86.8602 102.53 86.4357 104.096 85.7013C106.706 84.5028 107.982 82.8784 107.982 80.7487V76.3395C107.982 74.5991 106.532 72.9732 103.689 71.8922C102.18 71.3105 100.322 71.0036 98.5232 71.0036H91.2118C88.7751 71.0036 87.6148 70.2692 87.3254 68.6448C87.2682 68.4509 87.2682 68.2967 87.2682 68.1028V65.3562C87.2682 65.202 87.2682 65.0463 87.3254 64.8539C87.6148 63.6158 88.2537 63.2677 90.401 63.0738L90.9812 63.0356H108.214V59.0142H91.272C88.8353 59.0142 87.559 59.1684 86.3987 59.5165C82.8017 60.6386 81.2331 62.4173 81.2331 65.5119V69.031C81.2331 71.7394 84.3101 74.06 89.4727 74.602C90.0544 74.6387 90.6331 74.6799 91.2132 74.6799H97.4804C97.7124 74.6799 97.9445 74.6799 98.1193 74.7166C100.035 74.8708 100.845 75.2203 101.427 75.9151C101.775 76.2632 101.89 76.6127 101.89 76.9975V80.5181C101.89 80.9426 101.6 81.4846 101.02 81.9487C100.499 82.4128 99.6277 82.7227 98.4674 82.8006L97.8285 82.8388H81.1758V86.8602ZM145.626 79.8601C145.626 83.9976 148.702 86.3182 154.909 86.7838C155.489 86.822 156.069 86.8602 156.649 86.8602H172.373V82.8388H156.534C152.995 82.8388 151.661 81.9487 151.661 79.8205V59.0112H145.627V79.8601H145.626ZM111.833 80.0687V65.7264C111.833 62.0839 114.392 59.8734 119.45 59.1757C119.973 59.0979 120.556 59.0597 121.077 59.0597H132.532C133.114 59.0597 133.637 59.0979 134.217 59.1757C139.275 59.8734 141.835 62.0824 141.835 65.7264V80.0687C141.835 83.0268 140.748 84.6071 138.244 85.6382L144.19 91.0035H137.182L132.373 86.6619L127.532 86.9689H121.077C119.973 86.9689 118.811 86.8147 117.532 86.4651C113.694 85.4194 111.833 83.4028 111.833 80.0687ZM118.345 79.7206C118.345 79.9145 118.403 80.1098 118.461 80.3419C118.81 82.0089 120.381 82.9386 122.763 82.9386H128.245L123.21 78.3928H130.217L134.607 82.3585C135.418 81.9252 135.95 81.2672 136.136 80.4197C136.194 80.2258 136.194 80.032 136.194 79.8381V66.0788C136.194 65.9246 136.194 65.7293 136.136 65.5354C135.787 63.9844 134.217 63.0944 131.892 63.0944H122.762C120.089 63.0944 118.344 64.2576 118.344 66.0788V79.7206H118.345Z" fill="#E48E00"/>
<path d="M177.681 52.3357C173.973 52.2344 171.139 52.5795 168.716 53.6003C168.027 53.8911 166.93 53.8985 166.818 54.7606C167.196 55.1587 167.255 55.7506 167.556 56.2382C168.134 57.1738 169.111 58.4281 169.982 59.0846C170.932 59.8028 171.913 60.5725 172.936 61.1952C174.75 62.3027 176.776 62.9342 178.526 64.0417C179.555 64.6967 180.578 65.5192 181.584 66.258C182.082 66.6208 182.414 67.1892 183.061 67.4169V67.3126C182.722 66.8808 182.634 66.2874 182.322 65.835L180.951 64.4632C179.61 62.6831 177.909 61.1218 176.098 59.8234C174.656 58.7879 171.427 57.3882 170.825 55.7094L170.719 55.6052C171.742 55.4891 172.94 55.119 173.883 54.8664C175.469 54.4404 176.887 54.5506 178.524 54.1276L180.739 53.4931V53.073C179.912 52.2241 179.32 51.099 178.419 50.3309C176.058 48.3202 173.479 46.3109 170.825 44.6336C169.353 43.7054 167.534 43.1017 165.972 42.3144C165.449 42.0486 164.527 41.912 164.179 41.4699C163.358 40.4256 162.913 39.1023 162.28 37.8847C160.958 35.3364 159.657 32.5517 158.483 29.8683C157.684 28.0397 157.161 26.236 156.164 24.5954C151.374 16.7215 146.219 11.9686 138.234 7.29797C136.534 6.30363 134.488 5.91294 132.328 5.40035L128.847 5.18885C128.14 4.89363 127.403 4.02707 126.738 3.60701C124.091 1.93557 117.305 -1.69959 115.346 3.08119C114.109 6.098 117.197 9.04138 118.3 10.5703C119.074 11.6425 120.067 12.844 120.62 14.0498C120.985 14.8429 121.046 15.6375 121.359 16.4762C122.124 18.5413 122.793 20.7899 123.784 22.6978C124.285 23.6643 124.839 24.6821 125.472 25.5457C125.859 26.0745 126.526 26.3095 126.63 27.1276C125.98 28.0382 125.942 29.4541 125.576 30.607C123.928 35.8049 124.549 42.266 126.948 46.1126C127.684 47.295 129.417 49.8271 131.799 48.8548C133.883 48.0059 133.419 45.3753 134.015 43.0532C134.15 42.5289 134.067 42.1411 134.331 41.7886V41.8944L136.23 45.6911C137.636 47.9544 140.128 50.3177 142.242 51.9142C143.337 52.7411 144.201 54.1731 145.617 54.6563V54.5491H145.513C145.237 54.1217 144.809 53.9455 144.457 53.6003C143.631 52.791 142.713 51.7864 142.032 50.8582C140.109 48.2497 138.411 45.3929 136.863 42.4202C136.124 41.0014 135.483 39.4357 134.86 37.9904C134.619 37.4338 134.622 36.5907 134.123 36.3043C133.438 37.3618 132.435 38.2181 131.906 39.468C131.063 41.4655 130.954 43.9022 130.642 46.4284L130.43 46.5327C128.96 46.1787 128.444 44.6659 127.898 43.369C126.517 40.0893 126.26 34.8062 127.476 31.03C127.791 30.0518 129.211 26.9748 128.635 26.0715C128.361 25.1712 127.454 24.6513 126.949 23.9609C126.322 23.1105 125.695 21.9914 125.262 21.0073C124.131 18.4502 123.603 15.5788 122.415 12.9923C121.845 11.7556 120.885 10.5057 120.094 9.4071C119.221 8.18803 118.241 7.2921 117.562 5.82041C117.321 5.29754 116.994 4.45888 117.351 3.92131C117.464 3.55853 117.627 3.40725 117.985 3.28828C118.596 2.81681 120.3 3.44544 120.938 3.70982C122.63 4.41335 124.041 5.08163 125.475 6.03044C126.162 6.48722 126.857 7.36847 127.689 7.61228H128.638C130.123 7.95303 131.787 7.71657 133.174 8.1381C135.627 8.88422 137.824 10.0431 139.818 11.3033C145.897 15.1426 150.866 20.6063 154.268 27.1246C154.814 28.1748 155.052 29.175 155.532 30.2883C156.505 32.5326 157.73 34.8429 158.696 37.0387C159.661 39.2286 160.603 41.4391 161.967 43.2618C162.684 44.2194 165.454 44.7335 166.713 45.2652C167.595 45.6382 169.041 46.0274 169.876 46.5298C171.473 47.4933 173.021 48.6404 174.518 49.6949C175.265 50.2266 177.567 51.3825 177.681 52.3357ZM130.536 12.1522C129.763 12.1375 129.215 12.2374 128.637 12.3637V12.468H128.742C129.111 13.2273 129.762 13.7149 130.219 14.3671L131.275 16.5819L131.379 16.4777C132.032 16.0179 132.331 15.2821 132.328 14.157C132.065 13.8809 132.027 13.5358 131.8 13.2082C131.501 12.7676 130.916 12.5208 130.536 12.1522Z" fill="#00618A"/>
</svg>
