<svg width="161" height="45" viewBox="0 0 161 45" fill="none" xmlns="http://www.w3.org/2000/svg">
<path d="M147.687 15.9536C147.296 15.9536 146.917 16.0328 146.581 16.2195L135.952 22.2509C135.264 22.6401 134.846 23.3758 134.846 24.158V36.1991C134.846 36.981 135.264 37.7155 135.952 38.1059L138.728 39.6777C140.076 40.3311 140.574 40.3206 141.188 40.3206C143.184 40.3206 144.324 39.1301 144.324 37.0609V25.1815C144.324 25.0135 144.176 24.8933 144.008 24.8933H142.677C142.506 24.8933 142.361 25.0166 142.361 25.1815V37.067C142.361 37.9842 141.389 38.9069 139.811 38.1315L136.925 36.4685C136.823 36.414 136.745 36.3144 136.745 36.2025V24.1614C136.745 24.0474 136.822 23.9309 136.925 23.8732L147.532 17.8634C147.632 17.8073 147.75 17.8073 147.848 17.8634L158.455 23.8732C158.556 23.9327 158.636 24.0437 158.636 24.1614V36.2025C158.636 36.3175 158.577 36.4352 158.478 36.4907L147.848 42.5005C147.754 42.5538 147.629 42.5538 147.533 42.5005L144.802 40.904C144.72 40.8572 144.61 40.8609 144.531 40.904C143.777 41.3238 143.636 41.3725 142.929 41.6135C142.755 41.673 142.49 41.7658 143.019 42.0573L146.585 44.1222C146.924 44.3151 147.303 44.4104 147.691 44.4104C148.085 44.4104 148.457 44.3179 148.797 44.1222L159.426 38.1124C160.114 37.7192 160.532 36.9875 160.532 36.2056V24.1645C160.532 23.3823 160.114 22.6482 159.426 22.2574L148.797 16.226C148.464 16.0392 148.082 15.96 147.691 15.96L147.687 15.9536ZM150.531 24.5577C147.504 24.5577 145.701 25.8235 145.701 27.9281C145.701 30.2088 147.49 30.8387 150.395 31.121C153.871 31.4554 154.142 31.9569 154.142 32.629C154.142 33.7949 153.196 34.292 150.96 34.292C148.15 34.292 147.533 33.6029 147.326 32.2271C147.302 32.0798 147.186 31.9612 147.033 31.9612H145.653C145.57 31.963 145.49 31.9963 145.432 32.0541C145.373 32.1119 145.339 32.1898 145.337 32.2715C145.337 34.0292 146.31 36.1076 150.956 36.1076C154.32 36.1076 156.26 34.8132 156.26 32.5375C156.26 30.2877 154.693 29.6796 151.43 29.2552C148.137 28.8238 147.82 28.6173 147.82 27.8582C147.82 27.2319 148.086 26.3943 150.528 26.3943C152.709 26.3943 153.515 26.8565 153.845 28.3014C153.874 28.437 153.996 28.5479 154.139 28.5479H155.519C155.603 28.5479 155.686 28.4968 155.744 28.437C155.802 28.3732 155.843 28.3014 155.835 28.2151C155.622 25.7267 153.933 24.5562 150.531 24.5562L150.531 24.5577Z" fill="#83CD29"/>
<path d="M85.1969 0.168799C85.0782 0.16901 84.9615 0.1996 84.8585 0.257559C84.756 0.316508 84.6708 0.400685 84.6115 0.501797C84.5521 0.60291 84.5206 0.71747 84.5201 0.834191V17.7978C84.5201 17.9642 84.441 18.1134 84.2942 18.1969C84.2223 18.2381 84.1405 18.2599 84.0573 18.2599C83.974 18.2599 83.8922 18.2381 83.8203 18.1969L80.9992 16.6005C80.7935 16.4835 80.5599 16.4219 80.3222 16.4219C80.0845 16.4219 79.8509 16.4835 79.6452 16.6005L68.3842 22.9866C67.9633 23.2251 67.7067 23.6843 67.7067 24.1617V36.9342C67.7064 37.168 67.7688 37.3976 67.8877 37.6001C68.0066 37.8025 68.1778 37.9705 68.3839 38.0872L79.6452 44.4736C79.8508 44.5909 80.0844 44.6526 80.3222 44.6526C80.56 44.6526 80.7936 44.5909 80.9992 44.4736L92.2605 38.0872C92.4667 37.9705 92.6378 37.8025 92.7567 37.6001C92.8756 37.3976 92.938 37.168 92.9377 36.9342V5.09159C92.9377 4.60711 92.6686 4.15252 92.2383 3.91644L85.5357 0.235061C85.4303 0.177429 85.3136 0.167258 85.1969 0.168491V0.168799ZM12.7543 16.1123C12.5395 16.1209 12.3378 16.1576 12.1449 16.2676L0.883912 22.6537C0.677623 22.7702 0.506351 22.9382 0.387475 23.1407C0.268598 23.3431 0.206347 23.5729 0.207037 23.8067L0.229934 40.9481C0.229934 41.1867 0.355397 41.408 0.568685 41.5245C0.777896 41.6478 1.03729 41.6478 1.24556 41.5245L7.92555 37.7546C8.34899 37.5081 8.62501 37.0778 8.62501 36.602V28.5966C8.62501 28.1189 8.88064 27.6813 9.30251 27.444L12.1461 25.8254C12.3516 25.7079 12.5853 25.6467 12.823 25.6478C13.0608 25.6465 13.2947 25.7078 13.5002 25.8254L16.3426 27.4431C16.7638 27.6804 17.0195 28.1186 17.0195 28.5957V36.6008C17.0195 37.0772 17.3017 37.5099 17.7189 37.7534L24.3989 41.5232C24.6091 41.6465 24.8678 41.6465 25.0758 41.5232C25.2828 41.4061 25.4145 41.1852 25.4145 40.9469L25.4371 23.8061C25.4385 23.5722 25.3765 23.3422 25.2575 23.1396C25.1386 22.937 24.967 22.7691 24.7602 22.6531L13.4993 16.2673C13.3089 16.1576 13.1062 16.1206 12.8898 16.112H12.755L12.7543 16.1123ZM113.948 16.2676C113.71 16.267 113.477 16.3282 113.271 16.4452L102.01 22.8316C101.589 23.0704 101.332 23.5071 101.332 23.9842V36.7567C101.332 37.2369 101.608 37.672 102.032 37.9094L113.203 44.1657C113.615 44.3968 114.118 44.4144 114.534 44.1873L121.304 40.484C121.519 40.3669 121.664 40.1481 121.665 39.9077C121.666 39.6673 121.539 39.4509 121.326 39.3314L109.997 32.945C109.785 32.826 109.636 32.5853 109.636 32.3461V28.3522C109.636 28.1137 109.787 27.8949 109.997 27.7759L113.517 25.7801C113.727 25.6611 113.984 25.6611 114.195 25.7801L117.717 27.7759C117.82 27.8341 117.906 27.9181 117.965 28.0193C118.025 28.1205 118.056 28.2354 118.056 28.3522V31.5011C118.055 31.6179 118.086 31.7328 118.146 31.834C118.205 31.9352 118.291 32.0192 118.394 32.0774C118.605 32.197 118.861 32.1976 119.071 32.0774L125.819 28.2197C126.238 27.9806 126.496 27.5426 126.496 27.0671V23.9851C126.496 23.7515 126.434 23.5219 126.315 23.3195C126.196 23.1171 126.025 22.9491 125.819 22.8322L114.626 16.4458C114.42 16.3287 114.186 16.2675 113.948 16.2683L113.948 16.2676ZM80.2769 25.8032C80.3399 25.8029 80.402 25.818 80.4576 25.8472L84.3165 28.0425C84.4213 28.102 84.4972 28.212 84.4972 28.3307V32.7212C84.4972 32.8405 84.4219 32.9502 84.3165 33.0094L80.4576 35.2046C80.3525 35.2632 80.2242 35.2632 80.1188 35.2046L76.2599 33.0094C76.1548 32.9499 76.0792 32.8399 76.0792 32.7212V28.3301C76.0792 28.2111 76.1551 28.102 76.2599 28.0419L80.1188 25.8469C80.1715 25.817 80.2179 25.8029 80.2769 25.8029V25.8026V25.8032Z" fill="white"/>
<path d="M46.5835 16.2008C46.3457 16.2004 46.112 16.2616 45.9059 16.3783L34.6447 22.7426C34.2237 22.9811 33.9678 23.4406 33.9678 23.9177V36.6902C33.9671 36.9239 34.0294 37.1536 34.1483 37.3561C34.2672 37.5585 34.4384 37.7264 34.6447 37.8428L45.9059 44.2292C46.1116 44.3465 46.3452 44.4083 46.583 44.4083C46.8208 44.4083 47.0543 44.3465 47.26 44.2292L58.5213 37.8428C58.7274 37.7262 58.8986 37.5582 59.0175 37.3557C59.1364 37.1533 59.1988 36.9236 59.1985 36.6899V23.9174C59.1985 23.4397 58.9425 22.9805 58.521 22.7422L47.2597 16.378C47.0539 16.2608 46.8201 16.1995 46.5822 16.2005L46.5835 16.2008ZM113.926 27.5988C113.881 27.5988 113.831 27.5988 113.79 27.6203L111.624 28.8624C111.584 28.8844 111.55 28.9165 111.526 28.9554C111.502 28.9942 111.489 29.0386 111.489 29.084V31.5233C111.489 31.6152 111.543 31.699 111.624 31.7452L113.79 32.9647C113.828 32.9874 113.871 32.9994 113.914 32.9994C113.958 32.9994 114.001 32.9874 114.038 32.9647L116.205 31.7452C116.285 31.6999 116.34 31.6152 116.34 31.5233V29.084C116.34 28.9921 116.285 28.9083 116.205 28.8621L114.038 27.62C113.998 27.5966 113.971 27.5985 113.925 27.5985L113.926 27.5988Z" fill="#83CD29"/>
</svg>
