<svg width="168" height="76" viewBox="0 0 168 76" fill="none" xmlns="http://www.w3.org/2000/svg">
<path d="M11.0181 60.0869H2.92707V51.9494H11.4583C14.58 51.9494 16.1424 53.3444 16.1424 56.0817C16.1424 58.7523 14.4343 60.0884 11.0196 60.0884L11.0181 60.0869ZM16.8352 51.8548C15.727 50.8628 14.1754 50.3668 12.1806 50.3668L0.592773 50.4288V69.8968H2.92707L2.90537 61.609H11.528C13.6903 61.609 15.3922 61.113 16.6337 60.121C17.8753 59.129 18.4968 57.7495 18.4968 55.9887C18.4968 54.2279 17.9419 52.8484 16.8337 51.8564L16.8352 51.8548ZM31.9431 65.811C31.7204 66.4481 31.339 67.0178 30.8348 67.4664C29.7886 68.4894 28.1936 68.9963 26.0298 68.9963C24.0923 68.9963 22.6198 68.5003 21.5658 67.5083C20.5118 66.5163 20.0081 65.1879 20.0081 63.5248C20.0081 62.6568 20.1445 61.8895 20.4157 61.2184C20.673 60.5685 21.0772 59.9871 21.5968 59.5196C22.6694 58.5431 24.1481 58.0517 26.0298 58.0517C30.2148 58.0517 32.281 59.8761 32.281 63.5232C32.281 64.3912 32.1616 65.1507 31.9245 65.8079L31.9431 65.811ZM32.3476 58.6268C30.9247 57.3294 28.8183 56.68 26.0283 56.68C23.3933 56.68 21.355 57.3434 19.9182 58.6686C18.6208 59.8683 17.9729 61.4865 17.9729 63.5232C17.9729 65.546 18.6425 67.1781 19.9817 68.4212C20.7211 69.0908 21.5829 69.576 22.5656 69.8751C23.5483 70.1743 24.7046 70.3401 26.0283 70.3401C28.8183 70.3401 30.917 69.6984 32.3833 68.415C33.6806 67.2432 34.3285 65.6188 34.3285 63.5403C34.3285 61.4478 33.6729 59.8156 32.36 58.6423L32.3476 58.6268ZM50.0176 66.3721C50.0176 69.0071 47.6694 70.3029 42.9744 70.3029C41.5391 70.3029 40.3301 70.2099 39.3474 70.0301C38.3647 69.8503 37.568 69.545 36.9542 69.1249C36.4853 68.8067 36.0985 68.3817 35.8258 67.8849C35.5468 67.3843 35.3655 66.7224 35.2833 65.9397L37.4533 65.9195C37.4533 66.9503 37.8362 67.7098 38.6003 68.198C39.4218 68.7839 40.8742 69.0769 42.9605 69.0769C46.2418 69.0769 47.8833 68.2554 47.8833 66.6093C47.8833 65.6483 47.333 64.9864 46.2325 64.6253C46.0093 64.5555 44.6825 64.3711 42.249 64.0719C39.8155 63.7728 38.3027 63.5031 37.7029 63.2659C36.4071 62.7498 35.7592 61.8244 35.7592 60.4852C35.7353 59.8817 35.8865 59.2842 36.1945 58.7647C36.5025 58.2452 36.9542 57.8259 37.4952 57.5573C38.0687 57.2938 38.7817 57.0876 39.6404 56.9404C40.4991 56.7931 41.4926 56.7203 42.6226 56.7203C47.1424 56.7203 49.4023 58.1385 49.4023 60.975H47.3253C47.3253 58.9817 45.7365 57.9835 42.559 57.9835C40.9424 57.9835 39.738 58.185 38.9429 58.6035C38.1477 59.022 37.7494 59.6265 37.7494 60.4635C37.7494 61.2447 38.2857 61.8089 39.3583 62.1577C39.986 62.339 41.4275 62.5483 43.6859 62.7854C45.7071 62.9668 47.0928 63.2241 47.8461 63.5604C49.2814 64.1184 50.0161 65.0639 50.0161 66.4031L50.0176 66.3721ZM58.5984 69.9371L57.7103 70.0611L57.1554 70.103C55.7325 70.103 54.7064 69.8968 54.0786 69.483C53.4509 69.0691 53.1486 68.3484 53.1486 67.313V58.4315H50.5601V57.1248H53.1331L53.1533 52.9274H55.145V57.1248H58.6139V58.4532L55.145 58.4315V67.0758C55.145 67.7191 55.3 68.1639 55.6565 68.4088C56.013 68.6537 56.6082 68.7762 57.4855 68.7762C57.6095 68.7917 57.749 68.7855 57.904 68.7607C58.059 68.7359 58.2869 68.6832 58.5938 68.6026L58.6155 69.9356L58.5984 69.9371ZM72.3733 66.9735C71.8203 67.4246 71.1901 67.7717 70.5133 67.9981C69.8158 68.2352 69.016 68.3546 68.1108 68.3546C63.9444 68.3546 61.8643 66.6496 61.8643 63.1931C61.8643 61.5919 62.3975 60.338 63.4608 59.4328C64.5241 58.5276 66.0276 58.075 67.9635 58.075C69.9134 58.075 71.3937 58.5307 72.4043 59.4436C73.4149 60.3566 73.9202 61.578 73.9202 63.1109C73.9202 64.7818 73.404 66.0559 72.3733 66.9766V66.9735ZM75.9119 57.1186H73.9202L73.8985 59.315C73.0212 58.4237 72.395 57.858 72.0168 57.6224C70.9008 57.0101 69.4593 56.7032 67.6892 56.7032C65.096 56.7032 63.1167 57.2953 61.7527 58.4795C60.4569 59.5645 59.809 61.1409 59.809 63.2024C59.809 64.2192 59.9733 65.129 60.3003 65.9304C60.6274 66.7317 61.1063 67.4106 61.7341 67.9671C63.1027 69.1094 65.0356 69.6814 67.5342 69.6814C70.535 69.6814 72.6492 68.8599 73.9202 67.2014V69.4752C73.9202 70.9245 73.4629 72.0482 72.55 72.8418C71.637 73.6354 70.1351 74.0353 68.0441 74.0353C66.0787 74.0353 64.6775 73.7641 63.8591 73.2231C63.2314 72.8077 62.7989 72.0854 62.5633 71.0578H60.5251C60.7483 72.4915 61.3543 73.53 62.3448 74.1702C63.4887 74.908 65.42 75.2769 68.1387 75.2769C73.3405 75.2769 75.9414 73.344 75.9414 69.4768V57.1031L75.9119 57.1186ZM86.6844 58.4129C86.1323 58.3195 85.5735 58.2707 85.0135 58.2672C81.7399 58.2672 80.1031 60.0621 80.1031 63.6534V69.8968H78.1346L78.1129 57.1202L80.1047 57.1403V59.4188H80.2085C80.5433 58.5198 81.0719 57.8378 81.7973 57.3759C82.5909 56.9109 83.7751 56.7017 85.3499 56.7017H86.6875V58.4113L86.6844 58.4129ZM88.5382 62.7002C88.7893 61.2478 89.3535 60.1241 90.2308 59.3274C90.8043 58.867 91.4507 58.5214 92.1745 58.2889C92.8984 58.0564 93.7152 57.9432 94.6204 57.9432C96.3905 57.9432 97.8351 58.4284 98.9573 59.4002C100.08 60.3721 100.655 61.471 100.655 62.7017H88.5537L88.5382 62.7002ZM100.85 58.7601C100.122 58.0427 99.2318 57.5106 98.2552 57.2085C97.2229 56.8722 96.017 56.7048 94.6359 56.7048C92.0552 56.7048 90.0541 57.3046 88.6312 58.5028C87.2083 59.7009 86.4969 61.3346 86.4969 63.4008C86.4969 65.4669 87.1789 67.1208 88.546 68.3174C90.0231 69.6566 92.1079 70.3262 94.8002 70.3262C95.8728 70.3262 96.8664 70.2022 97.7793 69.9619C98.6923 69.7217 99.4905 69.3729 100.174 68.9312C101.374 68.0694 102.132 67.0092 102.453 65.7444H100.283C99.5432 67.9144 97.7049 69.0211 94.7646 69.0211C92.6876 69.0211 91.0911 68.4879 89.9596 67.4184C88.9986 66.4884 88.5181 65.3166 88.5181 63.8596H102.716C102.716 61.6927 102.096 59.9923 100.813 58.7446L100.85 58.7601Z" fill="white"/>
<path d="M123.796 64.6764C123.796 68.4692 120.736 70.3649 114.62 70.3649C110.954 70.3649 108.277 69.7139 106.591 68.4041C105.196 67.33 104.521 65.6916 104.521 63.4906H107.001C107.001 67.0324 109.543 68.8025 114.635 68.8025C117.075 68.8025 118.84 68.4398 119.927 67.7175C120.848 67.0773 121.322 66.0745 121.322 64.7105C121.322 63.3589 120.694 62.4118 119.439 61.8678C118.726 61.5578 116.99 61.2059 114.231 60.7595C110.759 60.2294 108.507 59.7009 107.476 59.1723C105.985 58.3927 105.238 57.069 105.238 55.2012C105.238 53.4606 105.858 52.1632 107.141 51.3138C108.505 50.3807 110.85 49.9142 114.169 49.9142C120.167 49.9142 123.163 51.9059 123.163 55.8894H120.665C120.665 52.9057 118.437 51.4146 114 51.4146C111.768 51.4146 110.134 51.7153 109.102 52.3136C108.125 52.9553 107.637 53.8946 107.637 55.1377C107.637 56.435 108.265 57.348 109.52 57.8781C110.187 58.185 112.155 58.6097 115.42 59.1553C118.489 59.6156 120.558 60.1519 121.62 60.7673C123.084 61.5206 123.816 62.8241 123.816 64.6795L123.796 64.6764ZM143.803 66.6139C142.875 67.3552 141.818 67.9181 140.685 68.2739C139.525 68.6428 138.228 68.8273 136.791 68.8273C133.846 68.8273 131.49 68.0523 129.683 66.4558C127.875 64.8593 126.97 62.7714 126.97 60.1411C126.97 57.3976 127.866 55.2632 129.659 53.7318C131.453 52.2004 133.844 51.4347 136.789 51.4347C139.79 51.4347 142.149 52.2345 143.865 53.8372C144.772 54.6169 145.441 55.5422 145.875 56.573C146.309 57.6037 146.526 58.805 146.526 60.1426C146.526 62.8706 145.618 65.0282 143.805 66.6154L143.803 66.6139ZM145.114 67.9066C146.398 67.0014 147.346 65.8916 147.962 64.6159C148.577 63.3403 148.884 61.8259 148.884 60.155C148.884 57.1325 147.88 54.7083 145.871 52.87C144.797 51.8672 143.499 51.1216 141.996 50.6349C140.492 50.1482 138.741 49.9033 136.788 49.9033C132.995 49.9033 130.017 50.8225 127.855 52.6623C125.693 54.5022 124.613 56.9946 124.613 60.1426C124.613 63.207 125.702 65.6792 127.868 67.5594C130.033 69.4395 133.029 70.3804 136.808 70.3804C138.285 70.3804 139.575 70.2796 140.677 70.0812C141.779 69.8828 142.712 69.5744 143.479 69.1605L147.119 71.6824L148.638 70.2874L145.114 67.8973V67.9066ZM167.326 69.8952H150.496V50.404L152.81 50.3621V68.2646H167.349L167.327 69.8921L167.326 69.8952Z" fill="#367FAF"/>
<path d="M94.4932 34.7118C94.7985 32.1698 94.7071 31.7978 96.6012 32.2101L97.0662 32.252C98.5232 32.3186 100.425 32.0195 101.546 31.4987C103.953 30.3827 105.38 28.5165 103.007 29.0063C97.5916 30.1223 97.2197 28.2902 97.2197 28.2902C102.939 19.8055 105.326 9.0345 103.265 6.3995C97.6381 -0.792496 87.8948 2.60975 87.7336 2.6981L87.6825 2.7074C86.613 2.48575 85.4148 2.3509 84.071 2.33075C81.622 2.29045 79.762 2.97245 78.336 4.0435C78.336 4.0435 60.9574 -3.1175 61.751 13.049C61.9215 16.4869 66.68 39.0673 72.353 32.2473C74.4269 29.7518 76.4295 27.6438 76.4295 27.6438C77.4246 28.3057 78.5995 28.642 79.8658 28.5211L79.9619 28.439C79.9329 28.7627 79.946 29.0888 80.0007 29.4093C78.539 31.0414 78.9684 31.3313 76.0482 31.9311C73.0923 32.5403 74.8283 33.6253 75.9629 33.9089C77.3378 34.253 80.5199 34.7397 82.6667 31.7312L82.5814 32.0753C83.1549 32.5341 83.1162 35.3721 83.1968 37.3995C83.2774 39.4269 83.4138 41.321 83.8276 42.437C84.2415 43.553 84.7266 46.4267 88.5706 45.6037C91.7791 44.9155 94.2343 43.9266 94.4575 34.718" fill="#231F20"/>
<path d="M94.4932 34.7118C94.7985 32.1698 94.7071 31.7978 96.6012 32.2101L97.0662 32.252C98.5232 32.3186 100.425 32.0195 101.546 31.4987C103.953 30.3827 105.38 28.5165 103.007 29.0063C97.5916 30.1223 97.2196 28.2902 97.2196 28.2902C102.939 19.8055 105.326 9.0345 103.265 6.3995C97.6381 -0.792496 87.8948 2.60975 87.7336 2.6981L87.6825 2.7074C86.613 2.48575 85.4148 2.3509 84.071 2.33075C81.622 2.29045 79.762 2.97245 78.336 4.0435C78.336 4.0435 60.9574 -3.1175 61.751 13.049C61.9215 16.4869 66.68 39.0673 72.353 32.2473C74.4269 29.7518 76.4295 27.6438 76.4295 27.6438C77.4246 28.3057 78.5995 28.642 79.8658 28.5211L79.9619 28.439C79.9329 28.7627 79.946 29.0888 80.0007 29.4093C78.539 31.0414 78.9684 31.3313 76.0482 31.9311C73.0923 32.5403 74.8283 33.6253 75.9629 33.9089C77.3378 34.253 80.5199 34.7397 82.6667 31.7312L82.5814 32.0753C83.1549 32.5341 83.1162 35.3721 83.1968 37.3995C83.2774 39.4269 83.4138 41.321 83.8276 42.437C84.2415 43.553 84.7266 46.4267 88.5706 45.6037C91.7791 44.9155 94.2343 43.9266 94.4575 34.718" stroke="#231F20" stroke-width="2.598"/>
<path d="M103.02 29.0062C97.6039 30.1222 97.2319 28.2901 97.2319 28.2901C102.951 19.8054 105.338 9.03447 103.277 6.39792C97.6504 -0.794083 87.9071 2.60817 87.7459 2.69652L87.6932 2.70582C86.6237 2.48417 85.4256 2.34932 84.0817 2.32917C81.6327 2.28887 79.7727 2.97087 78.3467 4.04192C78.3467 4.04192 60.9681 -3.11908 61.7617 13.0474C61.9322 16.4884 66.6907 39.0657 72.3637 32.2457C74.4376 29.7502 76.4402 27.6422 76.4402 27.6422C77.4353 28.3041 78.6257 28.6404 79.875 28.5195L79.9727 28.4374C79.9417 28.7474 79.9572 29.0496 80.0114 29.4077C78.5498 31.0398 78.9791 31.3297 76.0589 31.9295C73.1031 32.5387 74.8391 33.6237 75.9737 33.9073C77.3485 34.2514 80.5307 34.7381 82.6774 31.7296L82.5922 32.0737C83.1657 32.5325 83.5687 35.0574 83.4989 37.3437C83.4292 39.6299 83.3873 41.2032 83.8399 42.4308C84.2925 43.6584 84.7389 46.4205 88.5829 45.5974C91.7914 44.9092 93.4561 43.1267 93.6871 40.1538C93.8514 38.0396 94.2234 38.3527 94.2451 36.4648L94.5427 35.5705C94.8868 32.703 94.5969 31.7807 96.5732 32.2116L97.0382 32.2535C98.4952 32.3201 100.399 32.021 101.518 31.5002C103.925 30.3842 105.352 28.518 102.979 29.0078L103.02 29.0062Z" fill="#417BA2"/>
<path d="M87.728 2.6253C87.108 2.8144 97.4 -1.13035 103.24 6.3453C105.302 8.9803 102.93 19.7528 97.1953 28.2375M82.9385 30.6493C82.7897 35.9813 82.9757 41.3489 83.4965 42.654C84.0173 43.9591 85.1348 46.498 88.9773 45.6734C92.1858 44.9852 93.3544 43.6538 93.8597 40.7134L95.0455 31.3158L82.9385 30.6493ZM78.3505 3.92265C78.3505 3.92265 60.9595 -3.18565 61.7655 12.9777C61.9205 16.4187 66.6945 38.9976 72.3675 32.1776C74.4414 29.6976 76.3153 27.7291 76.3153 27.7291L78.3505 3.92265Z" stroke="white" stroke-width="0.866" stroke-linecap="round" stroke-linejoin="round"/>
<path d="M97.194 28.2235C97.194 28.2235 97.566 30.0572 102.983 28.9396C105.355 28.4498 103.913 30.3145 101.522 31.432C99.5469 32.3465 95.1201 32.5836 95.0457 31.3173C94.8597 28.0468 97.3769 29.0419 97.194 28.2235ZM97.194 28.2235C97.0297 27.4857 95.9044 26.7619 95.1604 24.9577C94.5094 23.3813 86.2479 11.299 97.4544 13.0939C97.8651 13.0087 94.5311 2.4346 84.0438 2.26255C73.5565 2.0905 73.9037 15.1585 73.9037 15.1585" stroke="white" stroke-width="0.866" stroke-linecap="round" stroke-linejoin="bevel"/>
<path d="M80.0029 29.3395C78.5413 30.9717 78.9706 31.2615 76.0504 31.8614C73.0946 32.4705 74.8306 33.5555 75.9652 33.8392C77.34 34.1833 80.5222 34.67 82.6689 31.6614C83.323 30.7469 82.6658 29.2837 81.7668 28.9102C81.3328 28.7304 80.7516 28.5072 80.006 29.3395H80.0029Z" stroke="white" stroke-width="0.866" stroke-linejoin="round"/>
<path d="M79.9067 29.3116C79.7594 28.3506 80.2229 27.2098 80.7173 25.8706C81.4613 23.8649 83.1973 21.8592 81.807 15.498C80.784 10.7581 73.9051 14.5107 73.902 15.1539C73.8989 15.7972 74.212 18.412 73.7873 21.4578C73.2293 25.432 76.3138 28.7939 79.8679 28.4483" stroke="white" stroke-width="0.866" stroke-linecap="round" stroke-linejoin="round"/>
<path d="M78.2691 15.0593C78.2381 15.2794 78.6721 15.8653 79.2348 15.9428C79.7974 16.0203 80.281 15.563 80.3105 15.3445C80.3399 15.1259 79.9075 14.8826 79.3433 14.802C78.7791 14.7214 78.297 14.8376 78.2676 15.0577L78.2691 15.0593Z" fill="white" stroke="white" stroke-width="0.289"/>
<path d="M95.4341 14.6113C95.4651 14.8314 95.0311 15.4173 94.4685 15.4948C93.9058 15.5723 93.4222 15.1151 93.3912 14.8965C93.3602 14.678 93.7942 14.4346 94.3584 14.3571C94.9226 14.2796 95.4046 14.3928 95.4356 14.6129L95.4341 14.6113Z" fill="white" stroke="white" stroke-width="0.144"/>
<path d="M97.4504 13.0924C97.5434 14.8129 97.0784 15.9878 97.0211 17.8199C96.9343 20.4859 98.2921 23.5348 96.2461 26.5883" stroke="white" stroke-width="0.866" stroke-linecap="round" stroke-linejoin="round"/>
</svg>
