<svg width="58" height="62" viewBox="0 0 58 62" fill="none" xmlns="http://www.w3.org/2000/svg">
<path d="M57.5645 47.1988C55.2981 42.4753 53.0122 37.6638 50.8011 33.0108C49.8668 31.0446 48.9325 29.0794 47.9982 27.1153L47.9787 27.0737C47.9144 26.9273 47.836 26.7874 47.7446 26.6558C47.5856 26.4246 47.3461 26.2587 47.0714 26.1897C46.7966 26.1207 46.5058 26.1532 46.2537 26.2811C45.9904 26.4095 45.7852 26.6299 45.6782 26.8994C45.5711 27.1688 45.57 27.4679 45.6749 27.7382C45.7318 27.8983 45.8018 28.0488 45.8733 28.2009C47.7928 32.2348 49.7118 36.2724 51.6303 40.3137L53.274 43.7707C53.9682 45.2341 54.6868 46.7472 55.4006 48.2315C55.7013 48.8592 55.703 49.3876 55.4006 49.8936C55.1794 50.2682 54.8088 50.478 54.4397 50.6477L36.1851 59.0699C35.0551 59.5902 34.2487 59.3036 33.7187 58.194C33.3838 57.4959 33.051 56.7967 32.7204 56.0965C32.0197 54.6186 31.2946 53.0879 30.5597 51.5924C30.484 51.4507 30.4444 51.293 30.4444 51.1329C30.4444 50.9727 30.484 50.815 30.5597 50.6733C31.843 47.6364 33.1231 44.5985 34.3999 41.5595C36.0078 37.7423 37.6678 33.7954 39.3115 29.9173C39.5905 29.3048 39.7278 28.6388 39.7134 27.9675C39.6991 27.2963 39.5335 26.6366 39.2286 26.0361C38.3327 24.1836 37.4402 22.2878 36.5915 20.4544C36.236 19.6944 35.8799 18.9339 35.5233 18.1728L34.6665 16.3458L40.4658 18.1487C40.7141 18.227 40.9418 18.3585 41.1324 18.5338C41.323 18.709 41.4718 18.9237 41.5681 19.1623C42.0916 20.2831 42.6363 21.4183 43.1614 22.5151L43.7077 23.6568L43.7565 23.7608C43.8174 23.9008 43.8886 24.0362 43.9695 24.1659C44.0976 24.3705 44.2875 24.5305 44.5126 24.6235C44.7376 24.7165 44.9866 24.7379 45.2246 24.6847C45.457 24.6464 45.6707 24.5354 45.8341 24.3681C45.9975 24.2009 46.1019 23.9863 46.1318 23.756C46.1521 23.4375 46.0865 23.1193 45.9416 22.8338C45.6164 22.1261 45.2717 21.4103 44.9401 20.7186C44.5515 19.9036 44.1483 19.0598 43.7646 18.2256C43.5107 17.6424 43.126 17.1235 42.6395 16.7075C42.153 16.2916 41.5771 15.9895 40.9552 15.8238C39.9309 15.5196 38.8937 15.1946 37.8922 14.8808L37.0256 14.6102C36.2224 14.3604 35.4193 14.1074 34.6064 13.8512L33.8114 13.5966C33.8813 13.4925 33.9414 13.3981 34 13.2972C34.2893 12.7987 34.5793 12.3018 34.8698 11.8065C35.6079 10.5448 36.372 9.24463 37.0906 7.93488C37.743 6.80697 38.1261 5.54758 38.2108 4.25218C38.2905 2.78071 37.8694 1.69031 36.9232 0.934558C36.4747 0.588225 35.9708 0.31768 35.4323 0.133973H35.4193C34.8975 -0.0446576 34.3299 -0.0446576 33.8081 0.133973C32.5075 0.556682 31.5157 1.4021 30.7548 2.72147C30.4552 3.23324 30.1996 3.76883 29.9907 4.32264C29.4184 5.86777 29.129 7.49776 28.8526 9.07331L28.7697 9.53445C28.6705 10.0885 28.5811 10.6425 28.4949 11.1772C28.4657 11.3598 28.4364 11.5391 28.4088 11.7152L27.921 11.8513C27.4967 11.9698 27.0951 12.0803 26.7049 12.226C24.897 12.8996 23.0902 13.5769 21.2845 14.2579C19.3497 14.9848 17.4145 15.7102 15.4787 16.4339C14.8742 16.6465 14.3237 16.9856 13.8651 17.4279C13.4065 17.8702 13.0506 18.4051 12.8221 18.9958C10.3622 24.8673 7.85036 30.8332 5.41976 36.6086L2.72253 43.0133C2.49275 43.5567 2.26297 44.0989 2.03319 44.6401C1.45277 46.0059 0.854472 47.4165 0.293566 48.8176C-0.467316 50.7198 0.293566 52.8109 2.08196 53.6835C3.14687 54.2039 4.27031 54.6442 5.35635 55.0653C5.65063 55.179 5.94327 55.2927 6.23592 55.4096C6.51652 55.5108 6.82608 55.5005 7.09914 55.381C7.37221 55.2615 7.58737 55.042 7.69915 54.7691C7.76392 54.634 7.8006 54.4874 7.80702 54.3381C7.81345 54.1888 7.78949 54.0397 7.73655 53.8997C7.66609 53.7396 7.56374 53.595 7.43556 53.4746C7.30738 53.3541 7.15597 53.2602 6.9903 53.1984C6.50255 52.9886 5.99693 52.7853 5.51244 52.5867C4.87674 52.3289 4.21178 52.0615 3.58421 51.7861C3.24856 51.6469 2.94865 51.4358 2.70628 51.1681C2.31771 50.7069 2.29007 50.1577 2.61523 49.3876C7.09923 38.7558 11.1573 29.1104 15.0235 19.9004C15.1361 19.6056 15.3136 19.339 15.5433 19.1198C15.773 18.9005 16.049 18.734 16.3517 18.6323C18.8994 17.686 21.4844 16.7109 23.9931 15.7678L27.5829 14.4148C27.7292 14.3604 27.882 14.3123 28.0543 14.2547L28.0413 14.3508C27.9991 14.671 27.9601 14.9656 27.9243 15.2682C27.9184 15.4139 27.891 15.5579 27.843 15.6958C27.7199 15.7585 27.5878 15.8022 27.4512 15.8254C27.0194 15.9391 26.6149 16.1361 26.261 16.4049C25.9071 16.6737 25.6109 17.009 25.3896 17.3914C25.1669 17.7672 25.0233 18.1833 24.9674 18.6149C24.9116 19.0465 24.9446 19.4848 25.0645 19.9036C25.1869 20.3426 25.3994 20.7522 25.6888 21.1072C25.9782 21.4622 26.3384 21.755 26.7472 21.9675C27.1431 22.1761 27.5781 22.3026 28.0255 22.3392C28.4729 22.3758 28.9231 22.3218 29.3485 22.1805C30.563 21.7834 31.319 20.954 31.597 19.7195C31.875 18.485 31.5043 17.4218 30.5012 16.5332C30.2801 16.3362 30.2264 16.2321 30.2557 16.0528C30.3224 15.6253 30.3793 15.201 30.441 14.7495C30.4541 14.663 30.4654 14.5765 30.4768 14.4885C31.1158 14.8215 31.5759 15.3403 31.9401 16.1329L32.0734 16.4179C33.7106 19.9212 35.403 23.5431 37.0923 27.0945C37.2423 27.3819 37.3242 27.6991 37.3318 28.0222C37.3394 28.3453 37.2725 28.6659 37.1361 28.9598C36.0338 31.5441 34.9267 34.1781 33.8569 36.7255L32.6668 39.558L32.0035 41.1319C29.5918 46.8641 27.1791 52.5958 24.7653 58.3269L24.7539 58.3525C24.6711 58.5701 24.566 58.7788 24.4402 58.9754C23.9719 59.6383 23.2354 59.8096 22.3624 59.4557C20.38 58.6541 18.4003 57.8482 16.4233 57.038L14.0073 56.0517L13.2448 55.7394C12.6319 55.4864 11.9978 55.2254 11.367 54.9821C11.1744 54.8958 10.9642 54.8544 10.7528 54.861C10.5413 54.8677 10.3342 54.9223 10.1476 55.0205C9.996 55.1118 9.86801 55.2366 9.77377 55.385C9.67953 55.5334 9.62162 55.7013 9.60461 55.8755C9.56071 56.1958 9.61924 56.8026 10.4907 57.1661C11.1296 57.4319 11.7718 57.6912 12.414 57.9522L15.5144 59.214C17.5034 60.0242 19.4917 60.837 21.4796 61.6525C22.007 61.8769 22.5747 61.9951 23.1493 62C23.4365 61.9998 23.7227 61.9681 24.0028 61.9055C24.6401 61.7769 25.2342 61.4924 25.7306 61.0783C26.2269 60.6642 26.6095 60.1337 26.8431 59.5358C27.2767 58.5239 27.7037 57.5098 28.1243 56.4936C28.4245 55.7763 28.7264 55.0589 29.0298 54.3416C29.0624 54.2663 29.0965 54.1911 29.1339 54.111C29.1745 54.1879 29.2103 54.2599 29.2444 54.332C29.5338 54.9383 29.8222 55.5452 30.1094 56.1525C30.5928 57.1709 31.0773 58.1887 31.5629 59.206C32.6619 61.494 34.8746 62.2818 37.1996 61.2106C39.2741 60.2563 41.3476 59.2956 43.4199 58.3285C47.3772 56.4968 51.471 54.6026 55.5111 52.7693C56.0265 52.5437 56.4912 52.2193 56.8778 51.8149C57.2644 51.4105 57.5653 50.9342 57.7629 50.4139C57.9483 49.8919 58.0263 49.3387 57.9922 48.7867C57.9582 48.2347 57.8128 47.6949 57.5645 47.1988ZM35.5347 5.45306C34.6129 7.9717 33.1448 10.2438 31.7092 12.4374L31.6507 12.4101L31.2182 12.2084C31.093 12.1508 30.9646 12.0963 30.8264 12.0355L30.8004 12.0243L30.8215 11.8914C31.1467 9.75861 31.4718 7.5522 32.1075 5.45626C32.344 4.64082 32.7468 3.88137 33.2911 3.22423C33.4669 3.00941 33.6727 2.8202 33.9024 2.66222C34.0865 2.53356 34.3026 2.45652 34.5276 2.43932C34.7527 2.42211 34.9783 2.4654 35.1803 2.56455C35.3702 2.66568 35.5282 2.81623 35.6371 2.99975C35.7461 3.18328 35.8018 3.39275 35.7981 3.60531C35.8221 4.23173 35.7329 4.85735 35.5347 5.45306ZM29.2526 19.0518C29.2543 19.1747 29.2311 19.2968 29.1843 19.4108C29.1376 19.5248 29.0681 19.6284 28.9802 19.7157C28.8922 19.8029 28.7874 19.872 28.672 19.9188C28.5566 19.9657 28.4328 19.9894 28.308 19.9885C28.1779 19.986 28.0497 19.9583 27.9306 19.9069C27.8114 19.8555 27.7038 19.7815 27.6138 19.6891C27.4324 19.5089 27.3307 19.2655 27.3309 19.0118C27.332 18.8894 27.3578 18.7684 27.407 18.656C27.4561 18.5435 27.5275 18.4418 27.617 18.3569C27.808 18.1835 28.0596 18.0894 28.3194 18.0943H28.3519C28.4763 18.0944 28.5995 18.1198 28.7135 18.1689C28.8276 18.2179 28.9302 18.2896 29.0148 18.3795C29.0995 18.4693 29.1645 18.5754 29.2057 18.6911C29.2468 18.8068 29.2634 18.9296 29.2542 19.0518H29.2526Z" fill="url(#paint0_linear_59_2272)"/>
<path d="M28.399 35.8689C28.5053 36.315 28.577 36.7683 28.6136 37.2251C28.6429 37.4877 28.6722 37.7583 28.7128 38.0257C28.8266 38.7542 29.303 39.1641 29.9858 39.1145C30.6687 39.0648 31.1044 38.5477 31.0897 37.8447C31.086 37.3136 31.0398 36.7836 30.9516 36.2596C29.9159 30.553 24.5914 26.8239 18.8311 27.7734C16.4095 28.1802 14.2088 29.4089 12.6107 31.2463C10.9733 33.1172 10.0661 35.5013 10.0517 37.9712V38.0033C10.0826 38.2258 10.107 38.45 10.1314 38.6725C10.1787 39.1674 10.2514 39.6596 10.3492 40.1472C10.8506 42.4382 12.1301 44.4925 13.9766 45.9709C15.823 47.4494 18.1261 48.2637 20.5057 48.2796C20.9718 48.2798 21.4373 48.2482 21.899 48.1851C25.4921 47.6951 28.2023 45.8234 29.9549 42.6194C30.0421 42.4614 30.1082 42.293 30.1517 42.1183C30.1944 41.9566 30.2 41.7877 30.1679 41.6237C30.1358 41.4597 30.067 41.3048 29.9663 41.1704C29.8612 41.0328 29.7266 40.9199 29.572 40.8396C29.4174 40.7593 29.2467 40.7137 29.0721 40.706C28.3015 40.6564 27.9926 41.2264 27.7715 41.6395C26.9697 43.143 25.7016 44.3553 24.1518 45.0997C22.6019 45.8442 20.8513 46.082 19.1546 45.7785C18.1021 45.599 17.0964 45.2149 16.1962 44.6486C15.296 44.0823 14.5193 43.3452 13.9114 42.4801C13.2974 41.6153 12.867 40.6373 12.6457 39.6048C12.4245 38.5722 12.417 37.5064 12.6237 36.4709C13.5553 31.7699 18.08 29.4802 21.7397 30.0566C25.0385 30.569 27.5877 32.8011 28.399 35.8689Z" fill="url(#paint1_linear_59_2272)"/>
<path d="M20.6536 36.1139C21.0438 36.2244 21.4389 36.3493 21.8194 36.4693L22.1673 36.5782C22.1728 36.6456 22.1831 36.7124 22.1982 36.7784C22.255 37.0496 22.4051 37.2933 22.623 37.4683C22.841 37.6432 23.1136 37.7389 23.3948 37.7391C23.6733 37.7229 23.9378 37.6136 24.1447 37.4293C24.3516 37.2451 24.4886 36.9968 24.5328 36.7255C24.6309 36.2904 24.5757 35.8353 24.3762 35.4352C24.1768 35.035 23.845 34.7137 23.4354 34.5239C23.3021 34.4615 23.1672 34.4038 23.0338 34.3478L23.0533 34.2789C23.1054 34.0932 23.1541 33.9235 23.1964 33.7505C23.359 33.062 23.0517 32.4504 22.4339 32.2615C21.8161 32.0725 21.1934 32.3799 20.9333 33.0444C20.8552 33.243 20.7918 33.4415 20.7301 33.6337L20.7008 33.7265L20.4878 33.7441C20.2229 33.7559 19.9599 33.7934 19.7025 33.8562C19.1533 34.0118 18.6666 34.3312 18.3093 34.7705C17.9521 35.2098 17.7419 35.7474 17.7077 36.3092C17.6182 37.3708 18.332 38.5012 19.3676 38.9399C19.6379 39.0476 19.9136 39.1417 20.1935 39.2218C20.3561 39.273 20.5366 39.3242 20.7024 39.3819C20.9235 39.4603 21.169 39.6092 21.0764 39.8766C20.9723 40.1728 20.6536 40.1312 20.4715 40.08C20.1236 39.9823 19.779 39.8766 19.4148 39.7597L19.0652 39.6525C19.0571 39.6028 19.0473 39.558 19.036 39.5132C18.8734 38.8727 18.4084 38.4852 17.8442 38.4852C17.2817 38.4852 16.8167 38.8967 16.6623 39.5308C16.4379 40.4466 16.9777 41.3833 17.945 41.7612C18.1336 41.8349 18.1662 41.8845 18.1727 41.8989C18.1792 41.9133 18.1889 41.955 18.1206 42.0991C18.0775 42.198 18.0448 42.301 18.0231 42.4065L18.0052 42.4849C17.9183 42.773 17.944 43.0826 18.0773 43.3528C18.2106 43.6231 18.4418 43.8344 18.7254 43.9452C18.8605 43.9932 19.0029 44.0182 19.1465 44.0189C19.393 44.0137 19.632 43.9342 19.8311 43.791C20.0303 43.6478 20.1801 43.4479 20.2602 43.2183C20.3464 43.0101 20.4228 42.7988 20.4813 42.5938L20.5203 42.4769C22.0405 42.4881 23.2322 41.5803 23.4354 40.2673C23.6663 38.7766 22.907 37.6014 21.4031 37.121L21.1089 37.0298C20.8861 36.9625 20.6553 36.892 20.439 36.8088C20.0358 36.6487 20.1269 36.3973 20.1578 36.3124C20.1991 36.2233 20.2735 36.1531 20.3657 36.1162C20.4579 36.0793 20.5609 36.0785 20.6536 36.1139Z" fill="url(#paint2_linear_59_2272)"/>
<path d="M48.403 46.2013C48.7217 46.8673 49.0398 47.534 49.3574 48.2011C49.5281 48.5598 49.8321 49.0337 50.4955 49.0337H50.5377C50.7063 49.0368 50.8736 49.0041 51.0282 48.9377C51.1828 48.8714 51.321 48.7731 51.4336 48.6494C51.5407 48.5267 51.6196 48.3826 51.6647 48.227C51.7099 48.0714 51.7204 47.9079 51.6953 47.748C51.6554 47.5089 51.5787 47.2773 51.4677 47.0611C49.6251 43.2044 47.7825 39.3488 45.9399 35.4942L45.9139 35.4382C45.8434 35.2794 45.7586 35.1272 45.6603 34.9835C45.5021 34.7518 45.2625 34.5859 44.9876 34.5176C44.7127 34.4493 44.4219 34.4835 44.171 34.6136C43.9053 34.7376 43.6974 34.9565 43.5896 35.2259C43.4818 35.4953 43.4822 35.7951 43.5906 36.0642C43.6527 36.2312 43.7238 36.3947 43.8036 36.5542L43.8166 36.5798C45.1487 39.3723 46.4819 42.1652 47.8161 44.9587L48.403 46.2013Z" fill="url(#paint3_linear_59_2272)"/>
<path d="M47.3511 49.1426C45.5291 45.3201 43.7039 41.5002 41.8754 37.683L41.851 37.6302C41.7725 37.4516 41.6772 37.2806 41.5665 37.1194C41.4093 36.9026 41.1811 36.7456 40.9202 36.6751C40.6594 36.6045 40.3818 36.6246 40.1342 36.7319C39.8954 36.8299 39.6976 37.0052 39.5735 37.2287C39.4494 37.4522 39.4063 37.7107 39.4513 37.9616C39.4994 38.1976 39.5798 38.4259 39.6903 38.6405C41.5329 42.4961 43.3755 46.3512 45.2181 50.2058L45.2278 50.225C45.3111 50.4181 45.4164 50.6013 45.5416 50.771C45.6543 50.9062 45.7963 51.0149 45.9573 51.0889C46.1182 51.1629 46.294 51.2003 46.4716 51.1985C46.6049 51.1987 46.7373 51.1771 46.8634 51.1345C47.3268 50.9743 47.6519 50.4716 47.6519 49.9112V49.8663L47.634 49.8231L47.5755 49.671C47.5121 49.5205 47.4406 49.3315 47.3511 49.1426Z" fill="url(#paint4_linear_59_2272)"/>
<defs>
<linearGradient id="paint0_linear_59_2272" x1="-7.13865" y1="1.49988" x2="62.7694" y2="52.1887" gradientUnits="userSpaceOnUse">
<stop stop-color="#762E78"/>
<stop offset="1" stop-color="#4B4FB4"/>
</linearGradient>
<linearGradient id="paint1_linear_59_2272" x1="-7.13865" y1="1.49988" x2="62.7694" y2="52.1887" gradientUnits="userSpaceOnUse">
<stop stop-color="#762E78"/>
<stop offset="1" stop-color="#4B4FB4"/>
</linearGradient>
<linearGradient id="paint2_linear_59_2272" x1="-7.13865" y1="1.49988" x2="62.7694" y2="52.1887" gradientUnits="userSpaceOnUse">
<stop stop-color="#762E78"/>
<stop offset="1" stop-color="#4B4FB4"/>
</linearGradient>
<linearGradient id="paint3_linear_59_2272" x1="-7.13865" y1="1.49988" x2="62.7694" y2="52.1887" gradientUnits="userSpaceOnUse">
<stop stop-color="#762E78"/>
<stop offset="1" stop-color="#4B4FB4"/>
</linearGradient>
<linearGradient id="paint4_linear_59_2272" x1="-7.13865" y1="1.49988" x2="62.7694" y2="52.1887" gradientUnits="userSpaceOnUse">
<stop stop-color="#762E78"/>
<stop offset="1" stop-color="#4B4FB4"/>
</linearGradient>
</defs>
</svg>
