<svg width="196" height="57" viewBox="0 0 196 57" fill="none" xmlns="http://www.w3.org/2000/svg">
<path d="M73.988 24.2814C73.988 18.3396 72.2848 15.2909 68.8777 15.1233C67.5222 15.06 66.1989 15.2694 64.911 15.7711C63.8835 16.1363 63.1969 16.4987 62.8277 16.8644V31.0452C65.0069 32.405 66.9423 33.042 68.6299 32.9383C72.2049 32.7035 73.9875 29.8213 73.9875 24.2809L73.988 24.2814ZM78.1908 24.5278C78.1908 27.5459 77.4793 30.0507 76.0473 32.0436C74.4518 34.2985 72.2407 35.4596 69.4135 35.5234C67.2822 35.5916 65.0868 34.9268 62.8277 33.5349V46.4231L59.1729 45.1266V16.5196C59.7728 15.7881 60.5441 15.1598 61.4746 14.6266C63.6499 13.3661 66.2935 12.7174 69.4081 12.6857L69.46 12.7374C72.3029 12.7018 74.4944 13.8575 76.0336 16.2167C77.4685 18.3762 78.1884 21.1439 78.1884 24.5278H78.1908ZM100.522 32.986C100.522 37.0342 100.114 39.8385 99.298 41.397C98.4782 42.9554 96.9189 44.2003 94.6162 45.1276C92.7489 45.8591 90.7293 46.2575 88.5622 46.3247L87.9584 44.0342C90.1622 43.7362 91.7131 43.4376 92.6128 43.1395C94.3841 42.5429 95.6001 41.6283 96.2676 40.4034C96.8033 39.405 97.0673 37.5007 97.0673 34.6809V33.7346C94.6015 34.8555 91.9208 35.432 89.2097 35.4246C87.4104 35.4246 85.8227 34.8645 84.4554 33.7346C82.9201 32.5058 82.1522 30.9468 82.1522 29.0581V13.9311L85.8071 12.6862V27.9126C85.8071 29.5393 86.335 30.792 87.3903 31.6705C88.4457 32.5491 89.8135 32.9709 91.4893 32.9393C93.1642 32.9037 94.96 32.2594 96.8675 30.9984V13.2346H100.522V32.986ZM114.794 35.3247L113.591 35.3763C111.524 35.3763 109.912 34.8874 108.76 33.9055C107.613 32.9232 107.037 31.5678 107.037 29.8374V15.5163H104.539V13.2298H107.037V7.16189L110.688 5.86932V13.2341H114.794V15.5207H110.688V29.7419C110.688 31.1056 111.055 32.0723 111.791 32.6368C112.428 33.1019 113.427 33.3683 114.794 33.4355V35.3286V35.3247ZM136.924 35.0266H133.269V20.9969C133.269 19.5699 132.933 18.3406 132.265 17.3149C131.493 16.1539 130.422 15.5733 129.046 15.5733C127.371 15.5733 125.275 16.4519 122.76 18.2096V35.0266H119.105V1.49143L122.76 0.345947V15.6201C125.095 13.9301 127.646 13.0875 130.417 13.0875C132.352 13.0875 133.92 13.7353 135.119 15.0283C136.323 16.3209 136.923 17.931 136.923 19.8558V35.0315L136.924 35.0266ZM156.349 23.7091C156.349 21.4264 155.908 19.5416 155.045 18.0499C154.014 16.2333 152.411 15.2738 150.243 15.1749C146.237 15.4058 144.237 18.2607 144.237 23.732C144.237 26.2412 144.653 28.3368 145.493 30.0147C146.564 32.1576 148.172 33.2159 150.315 33.1803C154.338 33.1487 156.349 29.9913 156.349 23.7038L156.349 23.7091ZM160.352 23.7335C160.352 26.9819 159.516 29.6864 157.854 31.8459C156.018 34.2635 153.483 35.4767 150.249 35.4767C147.042 35.4767 144.542 34.2591 142.739 31.8459C141.103 29.6864 140.288 26.9824 140.288 23.7335C140.288 20.6798 141.172 18.1103 142.939 16.019C144.806 13.8001 147.262 12.6867 150.297 12.6867C153.331 12.6867 155.802 13.8001 157.706 16.019C159.469 18.1107 160.357 20.6798 160.357 23.7335H160.352ZM181.304 35.0266H177.65V20.2015C177.65 18.5749 177.158 17.3067 176.174 16.392C175.195 15.4813 173.879 15.04 172.244 15.0756C170.508 15.1072 168.857 15.6722 167.289 16.7656V35.0266H163.634V16.3165C165.738 14.7936 167.673 13.7986 169.44 13.334C171.108 12.8957 172.575 12.6862 173.847 12.6862C174.715 12.6862 175.531 12.769 176.298 12.9366C177.733 13.2668 178.901 13.879 179.801 14.7775C180.805 15.7711 181.304 16.9692 181.304 18.3606V35.0266Z" fill="white"/>
<path d="M23.0753 1.62636C21.1948 1.63512 19.399 1.79438 17.8191 2.07247C13.1643 2.89068 12.3195 4.60209 12.3195 7.75851V11.9275H23.3187V13.317H8.18621C4.98928 13.317 2.19001 15.228 1.31536 18.8627C0.30555 23.0292 0.260495 25.6295 1.31536 29.9801C2.09745 33.2188 3.96478 35.5259 7.16122 35.5259H10.9434V30.5285C10.9434 26.9177 14.0845 23.733 17.8142 23.733H28.8012C31.8595 23.733 34.3008 21.2287 34.3008 18.1741V7.75803C34.3008 4.79349 31.7861 2.56632 28.8012 2.07199C26.9118 1.75931 24.951 1.6171 23.0704 1.62587L23.0753 1.62636ZM17.1217 4.97856C18.2579 4.97856 19.1859 5.91658 19.1859 7.06937C19.1859 8.21875 18.2579 9.14751 17.1217 9.14751C15.9817 9.14751 15.0575 8.21827 15.0575 7.06937C15.0575 5.91609 15.9812 4.97856 17.1217 4.97856Z" fill="url(#paint0_linear_59_2305)"/>
<path d="M35.6826 13.3169V18.1745C35.6826 21.9407 32.472 25.1098 28.8118 25.1098H17.8248C14.8154 25.1098 12.3252 27.6715 12.3252 30.6687V41.0852C12.3252 44.0498 14.9173 45.7933 17.8248 46.6441C21.3019 47.662 24.6457 47.8461 28.8118 46.6441C31.5812 45.8469 34.3114 44.2421 34.3114 41.0852V36.9163H23.3244V35.5268H39.811C43.0079 35.5268 44.199 33.3094 45.3106 29.981C46.459 26.5543 46.4101 23.2591 45.3106 18.8636C44.5207 15.6989 43.0119 13.3179 39.811 13.3179H35.6826V13.3169ZM29.5033 39.6957C30.6434 39.6957 31.5675 40.625 31.5675 41.7739C31.5675 42.9272 30.6439 43.8647 29.5033 43.8647C28.3671 43.8647 27.4391 42.9267 27.4391 41.7739C27.4391 40.6245 28.3671 39.6957 29.5033 39.6957Z" fill="url(#paint1_linear_59_2305)"/>
<path d="M188.421 9.99348H189.062V5.99743H190.58V5.52112H186.903V5.99743H188.421V9.99348ZM191.148 9.99348H191.696V6.3437L192.884 9.99348H193.494L194.732 6.35539V9.99348H195.33V5.52063H194.54L193.186 9.35256L192.033 5.52063H191.149V9.99348" fill="#646464"/>
<path opacity="0.444" d="M38.1838 53.7251C38.1838 55.2949 31.5843 56.5677 23.4435 56.5677C15.3027 56.5677 8.70312 55.2952 8.70312 53.7251C8.70312 52.155 15.3027 50.8824 23.4435 50.8824C31.5843 50.8824 38.1838 52.155 38.1838 53.7251Z" fill="url(#paint2_radial_59_2305)"/>
<defs>
<linearGradient id="paint0_linear_59_2305" x1="0.545025" y1="1.62538" x2="25.584" y2="23.4964" gradientUnits="userSpaceOnUse">
<stop stop-color="#5A9FD4"/>
<stop offset="1" stop-color="#306998"/>
</linearGradient>
<linearGradient id="paint1_linear_59_2305" x1="29.2339" y1="41.4232" x2="20.3164" y2="28.6139" gradientUnits="userSpaceOnUse">
<stop stop-color="#FFD43B"/>
<stop offset="1" stop-color="#FFE873"/>
</linearGradient>
<radialGradient id="paint2_radial_59_2305" cx="0" cy="0" r="1" gradientUnits="userSpaceOnUse" gradientTransform="translate(23.4435 53.725) rotate(-90) scale(2.84255 12.5634)">
<stop stop-color="#B8B8B8" stop-opacity="0.498"/>
<stop offset="1" stop-color="#7F7F7F" stop-opacity="0"/>
</radialGradient>
</defs>
</svg>
