<svg width="96" height="117" viewBox="0 0 96 117" fill="none" xmlns="http://www.w3.org/2000/svg">
<path d="M48 51.75C52.8152 51.75 56.7188 47.8465 56.7188 43.0312C56.7188 38.216 52.8152 34.3125 48 34.3125C43.1848 34.3125 39.2812 38.216 39.2812 43.0312C39.2812 47.8465 43.1848 51.75 48 51.75Z" fill="#61DAFB"/>
<path d="M48 75.0938C54.8438 81.75 61.5938 85.6875 67.0313 85.6875C68.8125 85.6875 70.5 85.3125 71.9062 84.4688C76.7812 81.6562 78.5625 74.625 76.875 64.5938C76.5938 62.8125 76.2188 61.0312 75.75 59.1562C77.625 58.5938 79.3125 58.0313 81 57.4688C90.4688 53.8125 95.7188 48.75 95.7188 43.2188C95.7188 37.5938 90.4688 32.5312 81 28.9688C79.3125 28.3125 77.625 27.75 75.75 27.2812C76.2188 25.4062 76.5938 23.625 76.875 21.8438C78.4688 11.625 76.6875 4.5 71.8125 1.6875C70.4062 0.84375 68.7188 0.46875 66.9375 0.46875C61.5938 0.46875 54.75 4.40625 47.9063 11.0625C41.1563 4.40625 34.4062 0.46875 28.9688 0.46875C27.1875 0.46875 25.5 0.84375 24.0938 1.6875C19.2188 4.5 17.4375 11.5312 19.125 21.5625C19.4062 23.3438 19.7813 25.125 20.25 27C18.375 27.5625 16.6875 28.125 15 28.6875C5.53125 32.3438 0.28125 37.4063 0.28125 42.9375C0.28125 48.5625 5.53125 53.625 15 57.1875C16.6875 57.8438 18.375 58.4063 20.25 58.875C19.7813 60.75 19.4062 62.5312 19.125 64.3125C17.5312 74.3438 19.3125 81.4688 24.0938 84.1875C25.5 85.0312 27.1875 85.4062 28.9688 85.4062C34.4062 85.5938 41.1562 81.6562 48 75.0938ZM42.75 62.4375C44.4375 62.5312 46.2188 62.5313 48 62.5313C49.7812 62.5313 51.5625 62.5312 53.25 62.4375C51.5625 64.6875 49.7812 66.75 48 68.7188C46.2188 66.75 44.4375 64.6875 42.75 62.4375ZM31.125 52.7813C32.0625 54.375 32.9062 55.875 33.9375 57.375C31.0313 57 28.3125 56.5312 25.6875 55.9688C26.5312 53.4375 27.4687 50.8125 28.5937 48.1875C29.3437 49.6875 30.1875 51.2813 31.125 52.7813ZM25.6875 30.1875C28.3125 29.625 31.0313 29.1562 33.9375 28.7812C33 30.2812 32.0625 31.7813 31.125 33.375C30.1875 34.9688 29.3437 36.4688 28.5937 38.0625C27.375 35.3438 26.4375 32.7188 25.6875 30.1875ZM30.8437 43.0312C32.0625 40.5 33.375 37.9688 34.875 35.4375C36.2812 33 37.875 30.5625 39.4688 28.125C42.2813 27.9375 45.0938 27.8437 48 27.8437C51 27.8437 53.8125 27.9375 56.5312 28.125C58.2188 30.5625 59.7188 33 61.125 35.4375C62.625 37.9688 63.9375 40.5 65.1563 43.0312C63.9375 45.5625 62.625 48.0938 61.125 50.625C59.7188 53.0625 58.125 55.5 56.5312 57.9375C53.7188 58.125 50.9062 58.2188 48 58.2188C45 58.2188 42.1875 58.125 39.4688 57.9375C37.7813 55.5 36.2812 53.0625 34.875 50.625C33.375 48.0938 32.0625 45.5625 30.8437 43.0312ZM67.5 37.9688L64.9688 33.2812C64.0312 31.6875 63.1875 30.1875 62.1562 28.6875C65.0625 29.0625 67.7812 29.5312 70.4062 30.0938C69.5625 32.7188 68.625 35.3438 67.5 37.9688ZM67.5 48.0938C68.625 50.7188 69.5625 53.3438 70.4062 55.875C67.7812 56.4375 65.0625 56.9063 62.1562 57.2813C63.0938 55.7813 64.0312 54.2812 64.9688 52.6875C65.8125 51.2812 66.6563 49.6875 67.5 48.0938ZM69.6562 80.625C68.9062 81.0938 67.9688 81.2813 66.9375 81.2813C62.3438 81.2813 56.625 77.5313 51 71.9063C53.7188 69 56.3438 65.7188 58.9688 62.0625C63.375 61.6875 67.5938 61.0312 71.5312 60.0938C72 61.7812 72.2812 63.4688 72.5625 65.1562C73.875 73.125 72.8438 78.8438 69.6562 80.625ZM74.5313 31.2188C85.0313 34.2188 91.3125 38.8125 91.3125 43.0312C91.3125 46.6875 87 50.3438 79.4062 53.25C77.9062 53.8125 76.2188 54.375 74.5313 54.8438C73.3125 51 71.8125 47.0625 69.9375 43.0312C71.8125 39 73.4063 35.0625 74.5313 31.2188ZM67.0313 4.78125C68.0625 4.78125 68.9062 4.96875 69.75 5.4375C72.8438 7.21875 73.9688 12.8437 72.6563 20.9062C72.375 22.5 72 24.1875 71.625 25.9687C67.6875 25.125 63.4688 24.4688 59.0625 24C56.5313 20.3438 53.8125 17.0625 51.0938 14.1562C56.7188 8.625 62.4375 4.78125 67.0313 4.78125ZM53.25 23.625C51.5625 23.5312 49.7812 23.5312 48 23.5312C46.2188 23.5312 44.4375 23.5312 42.75 23.625C44.4375 21.375 46.2188 19.3125 48 17.3438C49.7812 19.3125 51.5625 21.4687 53.25 23.625ZM26.3438 5.4375C27.0938 4.96875 28.0312 4.78125 29.0625 4.78125C33.6562 4.78125 39.375 8.53125 45 14.1562C42.2812 17.0625 39.6562 20.3438 37.0312 24C32.625 24.375 28.4062 25.0312 24.4688 25.9687C24 24.2812 23.7187 22.5938 23.4375 20.9062C22.125 12.9375 23.1563 7.3125 26.3438 5.4375ZM21.4688 54.8438C10.9688 51.8438 4.6875 47.25 4.6875 43.0312C4.6875 39.375 9 35.7188 16.5938 32.8125C18.0938 32.25 19.7812 31.6875 21.4688 31.2188C22.6875 35.0625 24.1875 39 26.0625 43.0312C24.1875 47.0625 22.5938 51.0938 21.4688 54.8438ZM23.4375 65.1562C23.7187 63.5625 24.0938 61.875 24.4688 60.0938C28.4062 60.9375 32.625 61.5938 37.0312 62.0625C39.5625 65.7188 42.2812 69 45 71.9063C39.375 77.4375 33.6562 81.2813 29.0625 81.2813C28.0312 81.2813 27.1875 81.0938 26.3438 80.625C23.1563 78.8438 22.125 73.125 23.4375 65.1562ZM19.5 103.781C21.5625 101.25 21.6562 98.4375 20.5312 95.625C19.4062 92.8125 17.0625 91.5 14.1562 91.4062C10.6875 91.3125 7.125 91.4062 3.65625 91.4062H3V115.688H5.8125V106.5H10.2188C10.7812 106.5 11.25 106.688 11.5312 107.156L17.1562 115.875C17.25 116.062 17.5312 116.344 17.7188 116.344H21.375C19.125 112.875 16.9688 109.594 14.7188 106.219C16.6875 105.938 18.375 105.281 19.5 103.781ZM5.8125 103.594V94.3125H6.84375C9 94.3125 11.25 94.2188 13.4062 94.4063C15.9375 94.5 17.7188 96.4688 17.7188 99C17.7188 101.531 15.6562 103.5 13.125 103.594C10.875 103.688 8.625 103.594 5.8125 103.594ZM42.0938 104.812C40.5938 98.25 34.5938 96.5625 30 98.625C26.4375 100.219 24.8438 103.312 24.75 107.156C24.6562 110.062 25.5 112.688 27.75 114.656C30.2813 116.906 33.375 117.188 36.5625 116.625C38.3437 116.25 39.9375 115.406 41.1562 114.094C40.6875 113.438 40.2188 112.781 39.75 112.219C37.125 114.469 34.2188 115.219 31.0313 113.719C28.9688 112.688 27.9375 110.156 27.75 108.281H42.2813V107.063C42.375 106.219 42.2812 105.469 42.0938 104.812ZM27.9375 106.312C27.6562 103.5 30.4688 100.5 33.5625 100.5C37.125 100.406 39.375 102.562 39.4688 106.312H27.9375ZM56.7188 98.1563C55.3125 97.875 53.8125 97.7812 52.4062 97.875C50.1562 98.0625 48.1875 99.0938 46.5938 100.781C47.0625 101.438 47.4375 102.094 48 102.844C48.1875 102.656 48.375 102.469 48.5625 102.375C50.0625 100.969 51.8438 100.219 54 100.406C55.6875 100.5 57.2813 101.062 57.75 102.75C58.125 104.062 58.0313 105.469 58.125 106.875C57.8438 106.875 57.75 106.781 57.6563 106.688C55.4063 104.812 52.875 104.438 50.1563 105.094C47.625 105.75 46.0312 107.719 45.8438 110.25C45.6562 113.156 46.9688 115.312 49.5 116.344C51.0938 117 52.875 117 54.5625 116.625C55.875 116.344 56.4375 115.594 58.3125 114.563V115.781H60.9375C60.9375 112.031 61.0313 107.438 60.9375 103.125C60.9375 100.406 59.3438 98.7188 56.7188 98.1563ZM58.0312 109.969C57.9375 110.25 58.0312 110.531 58.0312 110.813C58.0312 112.781 57.5625 113.438 55.6875 114.188C54.375 114.656 52.9688 114.844 51.5625 114.375C49.9688 113.906 48.8438 112.5 48.8438 110.906C48.75 109.312 49.7812 107.719 51.375 107.25C53.5312 106.5 55.5 106.969 57.2813 108.281C57.8438 108.75 58.2188 109.219 58.0312 109.969ZM72.6563 100.688C75.0938 99.9375 77.3438 100.406 79.0312 102.469L79.3125 102.656C79.9688 102.094 80.5312 101.531 81.2812 100.875C81 100.594 80.9062 100.406 80.7188 100.125C78 97.2188 72.6563 96.8438 69.375 99.1875C64.7813 102.562 64.875 109.125 67.125 112.594C69.2812 115.875 72.375 117 76.0312 116.531C78.1875 116.25 79.9688 115.219 81.375 113.438C80.7188 112.875 80.0625 112.312 79.4062 111.656C79.2188 111.844 79.125 111.938 79.0312 112.125C76.5 114.938 72.2812 114.656 70.0312 111.656C68.7188 109.875 68.4375 107.812 68.8125 105.75C69 103.406 70.2188 101.531 72.6563 100.688ZM92.1562 113.438C91.9688 113.531 91.875 113.625 91.875 113.625C91.125 114.188 90.375 114.281 89.5313 114C88.6875 113.625 88.5938 112.875 88.5 112.125V101.438C88.5 101.25 88.5 101.625 88.5938 100.688H92.1562V97.875H88.4062V93.1875H85.5938V98.25H83.1562C82.9688 98.25 82.6875 98.4375 82.6875 98.625C82.5938 99.2813 82.6875 99.75 82.6875 100.688H85.6875V112.688C85.6875 114.188 86.0625 115.5 87.375 116.25C88.7812 117.094 91.5 116.906 92.7188 115.875C92.9062 115.781 93 115.406 93 115.312C92.7188 114.75 92.4375 114.094 92.1562 113.438Z" fill="#61DAFB"/>
</svg>
