<svg width="18" height="17" viewBox="0 0 18 17" fill="none" xmlns="http://www.w3.org/2000/svg">
<path d="M16.6856 1.07103L0.701612 7.34403C0.701612 7.34403 -0.0543876 7.60503 0.00861241 8.08203C0.0716124 8.55903 0.683612 8.77503 0.683612 8.77503L4.70661 10.125L14.3636 3.99603C14.3636 3.99603 14.9216 3.65403 14.9036 3.99603C14.9036 3.99603 15.0026 4.05903 14.7056 4.33803C14.3996 4.61703 7.10961 11.169 7.10961 11.169L7.09161 11.187L7.08261 11.241L6.58761 15.642C6.81261 15.741 7.01061 15.588 7.01061 15.588L9.61161 13.221L13.6616 16.326C14.7596 16.803 15.1556 15.804 15.1556 15.804L17.9996 1.44903C17.9996 0.495031 16.6856 1.07103 16.6856 1.07103Z" fill="white"/>
</svg>
