<svg width="154" height="57" viewBox="0 0 154 57" fill="none" xmlns="http://www.w3.org/2000/svg">
<path fill-rule="evenodd" clip-rule="evenodd" d="M52.0312 2.1228H64.2963L33.3263 56.065L2.15234 2.1228H14.6965L33.3263 34.597L52.0312 2.1228Z" fill="#41B883"/>
<path fill-rule="evenodd" clip-rule="evenodd" d="M40.4404 2.11182H52.1056L33.3104 34.6538L14.666 2.11182H26.1489L33.3104 14.64L40.4404 2.11182Z" fill="#35495E"/>
<path fill-rule="evenodd" clip-rule="evenodd" d="M71.6152 12.761C71.6152 12.363 71.8338 12.0314 72.2709 11.7661C72.708 11.5008 73.165 11.3682 73.6418 11.3682C74.3041 11.3682 74.7147 11.6202 74.8737 12.1243L81.8674 35.7619L88.8215 12.1243C89.0069 11.6202 89.4043 11.3682 90.0136 11.3682C90.5169 11.3682 90.9871 11.5141 91.4242 11.8059C91.8613 12.0977 92.0799 12.4293 92.0799 12.8008C92.0799 12.8273 92.0734 12.8671 92.06 12.9201C92.0467 12.9732 92.0401 13.0263 92.0401 13.0793L83.9735 39.5424C83.6821 40.3117 82.9802 40.6964 81.8675 40.6964C80.7548 40.6964 80.0793 40.3117 79.8409 39.5424L71.6951 13.0793C71.6421 12.9202 71.6156 12.814 71.6156 12.761H71.6152ZM92.393 33.1352V22.7891C92.393 22.4707 92.5586 22.1921 92.8897 21.9534C93.2209 21.7146 93.6116 21.5952 94.062 21.5952C94.4859 21.5952 94.8633 21.7213 95.1945 21.9733C95.5256 22.2253 95.6912 22.4972 95.6912 22.789V33.1352C95.6912 34.329 96.1416 35.4035 97.0423 36.3585C97.943 37.3136 99.0159 37.7911 100.261 37.7911C101.48 37.7911 102.539 37.3202 103.44 36.3784C104.341 35.4367 104.791 34.3556 104.791 33.1352V22.7486C104.791 22.4568 104.957 22.1915 105.288 21.9528C105.619 21.714 106.01 21.5946 106.46 21.5946C106.937 21.5946 107.328 21.7074 107.632 21.9329C107.937 22.1584 108.089 22.4303 108.089 22.7486V33.1352C108.089 35.178 107.314 36.9621 105.765 38.4875C104.215 40.013 102.38 40.7757 100.261 40.7757C98.1153 40.7757 96.2675 40.013 94.7177 38.4875C93.168 36.9621 92.3931 35.178 92.3931 33.1352H92.393ZM110.786 33.0556V28.8773C110.786 26.8345 111.561 25.0704 113.111 23.5847C114.66 22.099 116.521 21.3562 118.694 21.3562C120.76 21.3562 122.548 22.0526 124.058 23.4454C125.568 24.8382 126.323 26.5825 126.323 28.6783C126.323 29.4477 126.231 30.0645 126.045 30.5288C125.86 30.9931 125.575 31.3246 125.191 31.5237C124.807 31.7226 124.449 31.8486 124.118 31.9017C123.787 31.9548 123.343 31.9813 122.787 31.9813H114.084V33.1751C114.084 34.6342 114.607 35.8015 115.654 36.677C116.7 37.5525 118.058 37.9902 119.727 37.9902C120.601 37.9902 121.363 37.8576 122.012 37.5923C122.661 37.327 123.184 37.0683 123.581 36.8163C123.979 36.5643 124.296 36.4383 124.535 36.4383C124.906 36.4383 125.224 36.6041 125.489 36.9357C125.754 37.2673 125.886 37.6056 125.886 37.9504C125.886 38.5606 125.283 39.184 124.078 39.8207C122.873 40.4574 121.382 40.7758 119.608 40.7758C117.011 40.7758 114.892 40.0661 113.25 38.6468C111.607 37.2275 110.786 35.3638 110.786 33.0558L110.786 33.0556ZM114.084 29.7528H121.436C122.124 29.7528 122.588 29.6665 122.826 29.4941C123.065 29.3217 123.184 28.9834 123.184 28.4794C123.184 27.2856 122.747 26.2377 121.873 25.3357C120.998 24.4336 119.926 23.9826 118.654 23.9826C117.409 23.9826 116.336 24.4005 115.435 25.2361C114.535 26.0718 114.084 27.0998 114.084 28.3201L114.084 29.7528ZM127.987 38.6267C127.987 38.043 128.186 37.5456 128.583 37.1345C128.981 36.7232 129.471 36.5177 130.054 36.5177C130.61 36.5177 131.087 36.7233 131.484 37.1345C131.882 37.5457 132.08 38.0431 132.08 38.6267C132.08 39.1838 131.882 39.668 131.484 40.0792C131.087 40.4904 130.61 40.696 130.054 40.696C129.471 40.696 128.981 40.4904 128.583 40.0792C128.186 39.668 127.987 39.1839 127.987 38.6267ZM130.923 48.1376C130.923 47.7131 131.055 47.3616 131.32 47.083C131.585 46.8045 131.903 46.6652 132.274 46.6652C133.307 46.6652 133.983 46.2805 134.301 45.5112C134.619 44.7419 134.777 43.5879 134.777 42.0491V22.749C134.777 22.4041 134.93 22.1255 135.234 21.9133C135.539 21.701 135.93 21.5949 136.407 21.5949C136.884 21.5949 137.281 21.7011 137.599 21.9133C137.917 22.1255 138.076 22.4041 138.076 22.749V42.0491C138.076 44.3572 137.625 46.1877 136.725 47.5407C135.824 48.8937 134.46 49.5702 132.632 49.5702C131.493 49.5702 130.923 49.0927 130.923 48.1376L130.923 48.1376ZM134.34 14.5116C134.34 14.0075 134.539 13.5698 134.936 13.1984C135.334 12.827 135.824 12.6413 136.407 12.6413C136.963 12.6413 137.44 12.827 137.837 13.1984C138.235 13.5698 138.433 14.0075 138.433 14.5116C138.433 15.0156 138.235 15.46 137.837 15.8447C137.44 16.2293 136.963 16.4217 136.407 16.4217C135.85 16.4217 135.367 16.2294 134.956 15.8447C134.546 15.46 134.34 15.0156 134.34 14.5116H134.34ZM140.534 37.751C140.534 37.4061 140.647 37.0679 140.872 36.7363C141.097 36.4047 141.369 36.2389 141.687 36.2389C141.899 36.2389 142.203 36.398 142.601 36.7164C142.998 37.0347 143.568 37.3464 144.309 37.6515C145.051 37.9566 145.925 38.1092 146.932 38.1092C148.257 38.1092 149.217 37.8704 149.813 37.3929C150.409 36.9153 150.707 36.3184 150.707 35.6021C150.707 34.7266 150.376 34.0303 149.714 33.5129C149.051 32.9956 148.243 32.6043 147.29 32.339C146.336 32.0737 145.382 31.7819 144.428 31.4635C143.475 31.1452 142.667 30.6145 142.004 29.8717C141.342 29.1289 141.011 28.1473 141.011 26.927C141.011 25.4149 141.547 24.1083 142.62 23.0073C143.693 21.9064 145.329 21.3559 147.528 21.3559C148.932 21.3559 150.217 21.5747 151.382 22.0125C152.548 22.4502 153.131 22.9476 153.131 23.5047C153.131 23.8231 153.005 24.1812 152.753 24.5792C152.502 24.9771 152.19 25.1761 151.819 25.1761C151.713 25.1761 151.204 24.9837 150.29 24.599C149.376 24.2144 148.468 24.022 147.568 24.022C146.349 24.022 145.442 24.3072 144.846 24.8776C144.25 25.448 143.952 26.0913 143.952 26.8076C143.952 27.5504 144.283 28.1341 144.945 28.5585C145.607 28.983 146.422 29.3147 147.389 29.5534C148.356 29.7922 149.316 30.084 150.27 30.4289C151.223 30.7738 152.031 31.3641 152.694 32.1997C153.356 33.0354 153.687 34.1164 153.687 35.4429C153.687 37.0878 153.104 38.3877 151.939 39.3427C150.773 40.2978 149.144 40.7753 147.051 40.7753C145.25 40.7753 143.713 40.4503 142.442 39.8003C141.17 39.1504 140.534 38.4672 140.534 37.7509L140.534 37.751Z" fill="white"/>
</svg>
